<svg width="141" height="141" viewBox="0 0 141 141" fill="none" xmlns="http://www.w3.org/2000/svg">
<circle cx="70.5057" cy="70.5057" r="68.5" fill="#D7BC5B"/>
<circle cx="70.0057" cy="70.0057" r="59" transform="rotate(-12.0356 70.0057 70.0057)" fill="url(#paint0_linear)" fill-opacity="0.8"/>
<circle cx="70.0057" cy="70.0057" r="56.5" stroke="#C8A735" stroke-width="5"/>
<circle cx="71.5057" cy="70.5057" r="64.5" stroke="url(#paint1_linear)" stroke-width="8"/>
<g filter="url(#filter0_i)">
<path d="M81.9425 76.6076L83.3619 69.1464C85.702 56.8456 86.5771 48.9674 85.9872 45.5119C85.3532 41.5605 83.8822 38.9126 81.5743 37.5681C80.2723 36.7632 78.6183 36.1699 76.6123 35.7883C74.6062 35.4067 72.8165 35.3448 71.2431 35.6027C69.7365 35.8733 68.3873 36.5917 67.1954 37.758C66.0035 38.9243 64.9659 40.1895 64.0828 41.5538C63.2665 42.9309 62.4355 44.9319 61.5896 47.5571C60.4467 51.3794 59.1528 57.0883 57.7078 64.684L56.3268 71.9435C54.7667 80.1441 53.9551 86.0493 53.892 89.6591C53.9085 93.2145 54.2442 95.8206 54.8991 97.4775C56.3454 101.166 59.2418 103.423 63.5883 104.25C68.8709 105.255 72.7032 103.685 75.0852 99.5415C77.5468 95.3432 79.8326 87.6986 81.9425 76.6076ZM62.9849 106.329C51.8178 104.205 44.0346 99.5897 39.6354 92.4842C35.3158 85.3243 34.2493 75.9971 36.436 64.5029C38.6354 52.9414 43.3039 44.4267 50.4416 38.9588C57.6588 33.4364 66.6838 31.7055 77.5166 33.7663C88.3493 35.8271 95.9063 40.5383 100.188 47.9C104.548 55.2071 105.629 64.6414 103.43 76.2029C101.23 87.7643 96.7147 96.2037 89.8829 101.521C83.118 106.851 74.152 108.453 62.9849 106.329Z" fill="#987D1D"/>
</g>
<defs>
<filter id="filter0_i" x="29.6842" y="27.2977" width="82.6315" height="89.4045" filterUnits="userSpaceOnUse" color-interpolation-filters="sRGB">
<feFlood flood-opacity="0" result="BackgroundImageFix"/>
<feBlend mode="normal" in="SourceGraphic" in2="BackgroundImageFix" result="shape"/>
<feColorMatrix in="SourceAlpha" type="matrix" values="0 0 0 0 0 0 0 0 0 0 0 0 0 0 0 0 0 0 127 0" result="hardAlpha"/>
<feOffset dx="2" dy="4"/>
<feGaussianBlur stdDeviation="5"/>
<feComposite in2="hardAlpha" operator="arithmetic" k2="-1" k3="1"/>
<feColorMatrix type="matrix" values="0 0 0 0 0 0 0 0 0 0 0 0 0 0 0 0 0 0 0.25 0"/>
<feBlend mode="normal" in2="shape" result="effect1_innerShadow"/>
</filter>
<linearGradient id="paint0_linear" x1="70.0057" y1="11.0057" x2="70.0057" y2="129.006" gradientUnits="userSpaceOnUse">
<stop stop-color="#C8A735"/>
<stop offset="0.520833" stop-color="#907514" stop-opacity="0.3"/>
<stop offset="1" stop-color="#C8A735"/>
</linearGradient>
<linearGradient id="paint1_linear" x1="71.5057" y1="2.00574" x2="71.5057" y2="139.006" gradientUnits="userSpaceOnUse">
<stop stop-color="#C9A522"/>
<stop offset="1" stop-color="#D7BC5B" stop-opacity="0"/>
</linearGradient>
</defs>
</svg>
