<svg width="1250" height="1023" viewBox="0 0 1250 1023" fill="none" xmlns="http://www.w3.org/2000/svg">
<mask id="mask0" style="mask-type:alpha" maskUnits="userSpaceOnUse" x="0" y="0" width="1250" height="1023">
<rect width="1250" height="1022.27" fill="#C4C4C4"/>
</mask>
<g mask="url(#mask0)">
<rect x="23.0737" y="-315.008" width="1394.46" height="1460.67" fill="#E4A3A3"/>
<path d="M399.022 915.799V941.178H209.043V915.799H399.022Z" fill="#DADBD8"/>
<rect width="1444.62" height="1027.29" transform="translate(-331.521 -7.02246)" fill="white"/>
<g clip-path="url(#clip0)">
<rect width="1444.62" height="1027.29" transform="translate(-331.521 -7.02246)" fill="white"/>
<rect x="-331.521" y="-7.02246" width="1440" height="1024" fill="#E4A3A3"/>
</g>
<path d="M234.926 916.848C235.585 916.848 236.122 922.174 236.122 928.74C236.122 935.307 235.585 940.631 234.926 940.631C234.267 940.631 233.732 935.307 233.732 928.74C233.732 922.174 234.267 916.848 234.926 916.848Z" fill="#FAFAF9"/>
<path d="M230.79 916.333C231.449 916.333 231.984 921.657 231.984 928.224C231.984 934.793 231.449 940.115 230.79 940.115C230.128 940.115 229.593 934.793 229.593 928.224C229.593 921.657 230.128 916.333 230.79 916.333Z" fill="#FAFAF9"/>
<path d="M384.334 916.848C384.992 916.848 385.528 922.174 385.528 928.74C385.528 935.307 384.992 940.631 384.334 940.631C383.673 940.631 383.139 935.307 383.139 928.74C383.139 922.174 383.673 916.848 384.334 916.848Z" fill="#FAFAF9"/>
<path d="M380.196 916.333C380.858 916.333 381.391 921.657 381.391 928.224C381.391 934.793 380.858 940.115 380.196 940.115C379.535 940.115 379.002 934.793 379.002 928.224C379.002 921.657 379.535 916.333 380.196 916.333Z" fill="#FAFAF9"/>
<path d="M355.382 929.256C355.382 929.918 333.623 930.452 306.788 930.452C279.945 930.452 258.189 929.918 258.189 929.256C258.189 928.598 279.945 928.062 306.788 928.062C333.623 928.062 355.382 928.598 355.382 929.256Z" fill="#FAFAF9"/>
<path d="M398.202 941.914V1029.98H225.186V941.914H398.202Z" fill="#E7E8E5"/>
<path d="M253.935 944.933C254.595 944.933 255.129 964.018 255.129 987.556C255.129 1011.1 254.595 1030.18 253.935 1030.18C253.275 1030.18 252.74 1011.1 252.74 987.556C252.74 964.018 253.275 944.933 253.935 944.933Z" fill="#DADBD8"/>
<path d="M267.048 943.841C267.71 943.841 268.245 962.683 268.245 985.919C268.245 1009.16 267.71 1028 267.048 1028C266.391 1028 265.854 1009.16 265.854 985.919C265.854 962.683 266.391 943.841 267.048 943.841Z" fill="#DADBD8"/>
<path d="M378.644 941.012C379.302 941.012 379.839 960.854 379.839 985.321C379.839 1009.8 379.302 1029.64 378.644 1029.64C377.983 1029.64 377.45 1009.8 377.45 985.321C377.45 960.854 377.983 941.012 378.644 941.012Z" fill="#DADBD8"/>
<path d="M363.226 942.203C363.884 942.203 364.421 961.528 364.421 985.371C364.421 1009.21 363.884 1028.54 363.226 1028.54C362.565 1028.54 362.032 1009.21 362.032 985.371C362.032 961.528 362.565 942.203 363.226 942.203Z" fill="#DADBD8"/>
<path d="M1253.43 670.336C1264.4 686 1285.71 680.814 1295.6 671.254C1305.48 661.691 1309.65 647.836 1313.46 634.619C1322.15 604.428 1330.91 572.757 1324.45 542.01C1322.52 532.818 1319.08 523.653 1312.62 516.83C1306.16 510.014 1296.23 505.955 1287.15 508.357C1276.4 511.192 1269.72 521.72 1264.89 531.731C1250.7 561.166 1243.19 593.799 1243.08 626.473C1243.02 641.735 1244.82 657.736 1253.43 670.336" fill="#E7E8E5"/>
<path d="M1223.31 692.812C1235.22 678.677 1237.48 658.067 1232.18 640.365C1226.88 622.66 1214.91 607.597 1201.12 595.3C1184.94 580.885 1165.93 569.665 1145.49 562.478C1137.44 559.65 1128.96 557.42 1120.47 558.23C1111.98 559.036 1103.44 563.376 1099.48 570.928C1093.63 582.097 1099.24 595.638 1105.31 606.685C1116 626.155 1128.23 644.775 1141.84 662.325C1152.79 676.443 1165.34 690.373 1182.03 696.754C1198.72 703.131 1216.06 702.382 1224.9 690.808" fill="#E7E8E5"/>
<path d="M1254.22 813.459C1254.43 813.453 1254.39 809.942 1254.15 803.592C1253.79 797.252 1252.92 788.087 1251.13 776.865C1249.24 765.665 1246.59 752.37 1242.44 737.921C1240.64 731.317 1236.41 715.488 1226.16 691.841C1212.64 659.795 1194.3 633.603 1178.33 617.372C1174.59 613.07 1170.42 609.962 1167.08 606.918C1165.36 605.457 1163.83 604 1162.28 602.846C1160.71 601.773 1159.26 600.767 1157.91 599.839C1152.65 596.245 1149.71 594.352 1149.6 594.525C1149.13 595.162 1161.37 602.367 1176.83 618.81C1192.22 635.216 1210.06 661.232 1223.46 693.005C1230.93 710.241 1236.14 725.611 1239.83 738.663C1244.11 752.974 1246.94 766.134 1249.08 777.219C1251.12 788.331 1252.3 797.403 1253.01 803.684C1253.6 809.977 1254.02 813.462 1254.22 813.459Z" fill="#DADBD8"/>
<path d="M1173.39 939.551L1181.23 1046.92H1319.17L1327.01 939.551H1173.39Z" fill="#E7E8E5"/>
<path d="M1160.06 897.227V939.552H1343.46V897.227H1160.06Z" fill="#E7E8E5"/>
<path d="M1324.44 974.641C1324.47 974.669 1324.25 975.002 1323.8 975.627C1323.25 976.352 1322.57 977.256 1321.74 978.363C1319.78 980.87 1317.09 984.312 1313.7 988.645L1313.34 989.101L1313 988.625C1307.95 981.636 1301.2 972.307 1293.26 961.321H1294.39C1288.52 969.638 1281.98 978.897 1274.95 988.841L1274.35 989.705L1273.66 988.895C1266.49 980.358 1258.7 971.089 1250.61 961.468L1251.94 961.451C1251.54 961.951 1251.11 962.497 1250.67 963.044C1243.53 972.006 1236.61 980.678 1230.07 988.885L1229.37 989.745L1228.74 988.848C1221.74 978.947 1215.21 969.694 1209.29 961.334L1210.43 961.388C1200.84 972.307 1192.72 981.567 1186.48 988.672L1186.05 989.159L1185.73 988.614C1182.57 983.306 1180.05 979.082 1178.23 976.012C1177.45 974.649 1176.81 973.542 1176.31 972.657C1175.88 971.895 1175.68 971.487 1175.72 971.463C1175.75 971.444 1176.03 971.803 1176.52 972.526C1177.08 973.376 1177.78 974.439 1178.65 975.755C1180.57 978.766 1183.21 982.916 1186.52 988.123L1185.77 988.065C1191.91 980.87 1199.91 971.494 1209.34 960.445L1209.93 959.748L1210.47 960.499C1216.43 968.82 1223.03 978.033 1230.09 987.889L1228.77 987.852C1235.3 979.64 1242.2 970.951 1249.33 961.974C1249.77 961.427 1250.2 960.884 1250.6 960.382L1251.26 959.558L1251.93 960.365C1260 970.005 1267.76 979.291 1274.92 987.842L1273.63 987.896C1280.72 978 1287.33 968.787 1293.26 960.514L1293.83 959.707L1294.39 960.514C1302.17 971.619 1308.78 981.052 1313.72 988.112L1313.02 988.089C1316.54 983.867 1319.34 980.509 1321.38 978.069C1322.28 977.02 1323.02 976.168 1323.61 975.478C1324.13 974.902 1324.41 974.615 1324.44 974.641" fill="#F3F2F1"/>
<path d="M1328.92 938.839C1328.92 939.316 1294.36 939.7 1251.73 939.7C1209.1 939.7 1174.54 939.316 1174.54 938.839C1174.54 938.366 1209.1 937.983 1251.73 937.983C1294.36 937.983 1328.92 938.366 1328.92 938.839Z" fill="#F3F2F1"/>
<path d="M43.5613 299.01H702.555V-194.411H43.5613V299.01Z" fill="#DADBD8"/>
<path d="M66.5964 278.733H681.986V-171.469H66.5964V278.733Z" fill="#FAFAF9"/>
<path d="M202.526 25.2281C202.526 25.2281 203.167 100.803 207.009 123.86L301.799 119.376C301.799 119.376 293.474 45.0828 296.676 25.2281H202.526Z" fill="#DADBD8"/>
<path d="M249.215 35.9147L249.562 35.8777C249.831 35.8675 250.167 35.854 250.585 35.8371C251.485 35.773 252.818 35.8372 254.53 36.0329C256.228 36.3028 258.317 36.7618 260.556 37.8247C262.789 38.8842 265.103 40.6118 267.115 43.0144C269.057 45.4574 270.836 48.491 271.661 52.142C272.443 55.7964 272.045 59.8996 270.666 63.8544C269.994 65.8385 269.079 67.7956 268.004 69.7055C266.935 71.6154 265.86 73.5354 264.969 75.6174C263.179 79.7543 261.761 84.3097 261.136 89.0709L261.096 89.3847L260.788 89.3881C257.796 89.4387 254.635 89.4893 251.428 89.5399C248.066 89.5939 244.752 89.6479 241.612 89.6951L241.264 89.7019L241.251 89.3476C241.092 84.5763 238.949 80.2369 236.699 76.3901C235.56 74.4499 234.317 72.6277 233.152 70.7853C232.01 68.98 230.726 67.2456 229.819 65.3559C227.95 61.5834 227.63 57.406 228.335 53.8123C229.014 50.2051 230.211 46.9388 231.992 44.3641C233.767 41.7895 236.028 40.0011 238.162 38.81C240.308 37.6154 242.327 36.9676 243.983 36.5593C245.646 36.1611 246.964 36.0025 247.854 35.9316C248.299 35.9046 248.64 35.8844 248.87 35.8912L249.215 35.9147L248.874 35.9587C248.608 35.9856 248.278 36.0194 247.867 36.0633C246.985 36.1746 245.683 36.3737 244.047 36.809C242.418 37.251 240.435 37.9292 238.346 39.1339C236.267 40.3318 234.084 42.1135 232.382 44.6341C230.68 47.1412 229.527 50.3705 228.889 53.9034C228.227 57.4296 228.563 61.4384 230.386 65.0793C231.273 66.9082 232.531 68.5886 233.708 70.4377C234.865 72.2497 236.129 74.0888 237.285 76.0425C239.564 79.9298 241.78 84.3299 241.959 89.3341L241.601 88.9865C244.742 88.9359 248.055 88.8819 251.418 88.8279C254.624 88.7773 257.786 88.7267 260.778 88.6795L260.431 89C261.078 84.1072 262.519 79.5417 264.345 75.344C265.249 73.2452 266.361 71.2712 267.429 69.385C268.497 67.5055 269.401 65.5888 270.068 63.6486C271.437 59.7816 271.839 55.7998 271.112 52.2601C270.345 48.734 268.617 45.7105 266.746 43.3147C264.803 40.946 262.565 39.2318 260.392 38.1621C258.214 37.0857 256.164 36.593 254.492 36.2893C252.803 36.0565 251.481 35.9519 250.583 35.9722C250.167 35.9587 249.831 35.9519 249.563 35.9451L249.215 35.9147" fill="white"/>
<path d="M254.076 88.5644L254.018 88.2641C253.984 88.0549 253.937 87.7647 253.874 87.3868C253.755 86.6005 253.581 85.4634 253.358 84.0057C252.932 81.0632 252.302 76.8015 251.876 71.5004C251.776 70.1743 251.684 68.784 251.631 67.333C251.584 65.8821 251.521 64.3704 251.605 62.8047C251.693 61.239 251.947 59.5957 252.674 58.0603C253.399 56.552 254.606 55.1348 256.289 54.443C257.957 53.7209 260.076 54.0955 261.447 55.4249C262.123 56.0863 262.577 57.0345 262.554 58.0198C262.55 58.9984 262.173 59.9499 261.584 60.7328C261.003 61.5291 260.188 62.1399 259.304 62.5752C258.418 63.0206 257.457 63.2973 256.488 63.5099C254.545 63.9215 252.539 64.1443 250.506 64.2084C248.47 64.2523 246.458 64.2152 244.486 63.9149C243.504 63.7529 242.535 63.4998 241.633 63.0915C240.73 62.6865 239.908 62.1095 239.244 61.3941C238.582 60.6788 238.077 59.8049 237.869 58.8567C237.647 57.9085 237.795 56.9029 238.206 56.0492C238.615 55.1989 239.308 54.4667 240.189 54.1191C241.071 53.7648 242.07 53.866 242.887 54.2439C243.713 54.6252 244.396 55.2428 244.898 55.9581C245.405 56.6836 245.706 57.5002 245.908 58.3168C246.294 59.9668 246.285 61.6001 246.385 63.1556C246.548 66.2735 246.7 69.1788 246.839 71.8344C247.105 77.1355 247.322 81.4243 247.473 84.4039C247.54 85.8785 247.592 87.0291 247.631 87.8254C247.644 88.2067 247.656 88.5004 247.664 88.7129L247.665 89.0166L247.633 88.7163C247.619 88.5037 247.598 88.2068 247.571 87.8288C247.523 87.0359 247.449 85.8852 247.357 84.4106C247.187 81.4345 246.937 77.1423 246.63 71.848C246.48 69.1923 246.318 66.287 246.141 63.1657C246.036 61.6101 246.037 59.9803 245.655 58.3809C245.459 57.5845 245.161 56.7916 244.683 56.1099C244.202 55.4283 243.547 54.8479 242.775 54.4936C242.008 54.1393 241.091 54.0516 240.29 54.3756C239.487 54.6928 238.841 55.3709 238.459 56.1707C238.076 56.9738 237.941 57.9085 238.147 58.7959C238.345 59.6867 238.822 60.5135 239.457 61.1951C240.73 62.5955 242.611 63.3277 244.533 63.6246C246.468 63.9216 248.481 63.9587 250.496 63.9115C252.514 63.8507 254.504 63.628 256.425 63.2231C257.381 63.0139 258.319 62.7406 259.176 62.3154C260.03 61.8936 260.801 61.3132 261.353 60.5607C261.912 59.8183 262.264 58.9207 262.268 58.0164C262.289 57.1087 261.878 56.2483 261.249 55.6241C259.968 54.3789 257.965 54.0145 256.389 54.6927C254.792 55.344 253.614 56.7072 252.906 58.1717C252.199 59.6564 251.941 61.2727 251.849 62.8148C251.761 64.367 251.817 65.8787 251.858 67.3229C251.904 68.7739 251.992 70.1608 252.084 71.4835C252.481 76.7812 253.081 81.043 253.471 83.9889C253.67 85.4499 253.826 86.5904 253.933 87.38C253.982 87.7579 254.021 88.0515 254.049 88.2608L254.076 88.5644" fill="white"/>
<path d="M241.596 89.0639C241.644 89.1078 241.723 90.2383 241.844 92.2156C241.961 94.5001 242.102 97.2367 242.265 100.425L242.187 100.226C244.094 102.423 246.246 104.903 248.569 107.579L248.242 107.441C250.564 107.309 253.043 107.167 255.618 107.026L255.308 107.181C256.49 105.733 257.723 104.228 258.98 102.693C259.601 101.937 260.218 101.191 260.824 100.452L260.725 100.739C260.625 96.4133 260.53 92.3236 260.445 88.5882L260.847 88.9695C255.472 89.0303 250.812 89.0809 247.064 89.1214C245.57 89.1214 244.257 89.118 243.083 89.118C242.147 89.1079 241.629 89.0943 241.596 89.0639C241.567 89.0336 242.025 88.9931 242.911 88.9391C244.058 88.8784 245.339 88.8109 246.799 88.7366C250.614 88.5848 255.355 88.3993 260.827 88.1867L261.22 88.1698L261.232 88.5679C261.344 92.3 261.466 96.393 261.597 100.716L261.602 100.878L261.498 101.006C260.894 101.745 260.279 102.494 259.658 103.25C258.397 104.782 257.161 106.283 255.974 107.727L255.851 107.876L255.664 107.886C253.088 108.011 250.607 108.132 248.284 108.247L248.081 108.254L247.954 108.105C245.674 105.389 243.563 102.875 241.693 100.648L241.618 100.557L241.617 100.446C241.585 97.176 241.559 94.3718 241.535 92.0233C241.537 90.0661 241.55 89.0201 241.596 89.0639" fill="white"/>
<path d="M260.639 99.7403C260.627 99.7605 260.382 99.6458 259.939 99.4433C259.494 99.2408 258.846 98.9675 258.024 98.6875C256.388 98.1172 254.01 97.5908 251.361 97.6718C248.711 97.7494 246.37 98.4243 244.771 99.0891C243.969 99.4231 243.336 99.7335 242.906 99.963C242.477 100.192 242.239 100.321 242.226 100.3C242.215 100.287 242.434 100.125 242.851 99.8617C243.266 99.6019 243.888 99.2578 244.689 98.9001C246.285 98.1746 248.657 97.4592 251.353 97.3782C254.047 97.2939 256.458 97.8675 258.095 98.4918C258.915 98.8022 259.558 99.1059 259.989 99.3421C260.419 99.575 260.646 99.7234 260.639 99.7403" fill="white"/>
<path d="M260.635 96.7874C260.626 96.8077 260.38 96.6929 259.937 96.4904C259.492 96.2913 258.843 96.0146 258.023 95.7346C256.384 95.1643 254.009 94.6379 251.36 94.7189C248.708 94.7965 246.368 95.4714 244.769 96.1362C243.966 96.4702 243.335 96.784 242.905 97.0101C242.473 97.2395 242.237 97.3678 242.225 97.3475C242.214 97.334 242.432 97.172 242.847 96.9122C243.262 96.6524 243.886 96.3049 244.687 95.9472C246.282 95.2217 248.655 94.5064 251.349 94.4254C254.045 94.341 256.456 94.9147 258.091 95.5389C258.914 95.8494 259.556 96.1531 259.986 96.3893C260.418 96.6221 260.643 96.7705 260.635 96.7874" fill="white"/>
<path d="M260.462 93.9804C260.45 94.0007 260.205 93.886 259.762 93.6869C259.32 93.4845 258.67 93.2111 257.847 92.9277C256.211 92.3608 253.833 91.831 251.184 91.912C248.535 91.993 246.194 92.6678 244.595 93.3326C243.793 93.6633 243.161 93.977 242.73 94.2065C242.3 94.4326 242.061 94.5608 242.05 94.5439C242.04 94.5271 242.258 94.3652 242.675 94.1053C243.09 93.8455 243.713 93.5013 244.513 93.1402C246.108 92.4181 248.481 91.6994 251.176 91.6184C253.87 91.534 256.283 92.1077 257.917 92.7319C258.738 93.0424 259.381 93.3495 259.812 93.5823C260.243 93.8151 260.47 93.9669 260.462 93.9804" fill="white"/>
<path d="M96.957 -98.3202C96.957 -98.3202 97.5975 -22.745 101.441 0.308594L196.231 -4.17255C196.231 -4.17255 187.903 -78.469 191.107 -98.3202H96.957" fill="#E7E8E5"/>
<path d="M92.47 124.026C92.47 124.026 93.1104 199.601 96.9528 222.658L191.743 218.173C191.743 218.173 183.418 143.88 186.618 124.026H92.47Z" fill="#E7E8E5"/>
<path d="M172.334 155.768C172.363 156.281 158.15 157.553 140.586 158.609C123.017 159.669 108.755 160.107 108.724 159.595C108.695 159.085 122.906 157.813 140.476 156.757C158.038 155.697 172.302 155.255 172.334 155.768" fill="white"/>
<path d="M172.358 171.776C172.389 172.289 158.174 173.561 140.612 174.617C123.043 175.677 108.781 176.115 108.749 175.603C108.718 175.09 122.931 173.818 140.5 172.761C158.062 171.705 172.327 171.267 172.358 171.776Z" fill="white"/>
<path d="M156.247 187.494C156.279 188.007 148.191 188.911 138.184 189.512C128.174 190.116 120.037 190.186 120.007 189.673C119.975 189.161 128.062 188.26 138.072 187.659C148.079 187.055 156.215 186.981 156.247 187.494" fill="white"/>
<path d="M351.515 -78.2901L360.902 139.689L633.02 142.973L620.804 -75.4118L351.515 -78.2901Z" fill="#E7E8E5"/>
<path d="M618.668 124.255H348.361V-79.8524H618.668V124.255Z" fill="#F3F2F1"/>
<path d="M618.668 124.259C618.668 124.259 618.614 122.943 618.587 120.473C618.564 117.945 618.537 114.311 618.499 109.58C618.452 100.011 618.388 86.068 618.304 68.2785C618.206 32.6892 618.071 -18.2398 617.906 -79.852L618.668 -79.0894C542.253 -79.0422 448.976 -78.9848 348.385 -78.9241H348.361L349.291 -79.852C349.258 -6.44646 349.226 63.0617 349.198 124.255L348.361 123.419C428.341 123.591 495.805 123.736 543.339 123.837C567.112 123.932 585.886 124.009 598.793 124.06C605.194 124.104 610.128 124.137 613.532 124.161C615.172 124.181 616.431 124.198 617.345 124.208C618.206 124.225 618.668 124.259 618.668 124.259C618.668 124.259 618.27 124.289 617.443 124.306C616.552 124.32 615.321 124.333 613.721 124.353C610.357 124.377 605.478 124.411 599.148 124.455C586.285 124.509 567.574 124.583 543.886 124.677C496.22 124.782 428.564 124.924 348.361 125.096H347.523V124.255C347.495 63.0617 347.464 -6.44646 347.432 -79.852L347.431 -80.7834H348.361H348.385C448.976 -80.7192 542.253 -80.6619 618.668 -80.6146H619.434V-79.852C619.265 -18.0407 619.13 33.0536 619.036 68.7576C618.952 86.4729 618.884 100.355 618.84 109.888C618.803 114.554 618.773 118.141 618.753 120.635C618.726 123.054 618.668 124.259 618.668 124.259" fill="#DADBD8"/>
<path d="M490.544 101.292H380.969V-36.6138H490.544V101.292Z" fill="#F3F2F1"/>
<path d="M490.544 101.293C490.53 101.276 490.514 101.043 490.497 100.598C490.483 100.075 490.47 99.4335 490.449 98.6338C490.426 96.8184 490.392 94.3045 490.352 91.0921C490.298 84.4311 490.223 74.8716 490.129 62.8016C490.028 38.5265 489.883 4.17564 489.714 -36.6101L490.544 -35.78C457.89 -35.7497 420.519 -35.7193 380.982 -35.6822C380.76 -35.4865 382.73 -37.4267 381.897 -36.5865V-36.5527V-36.4751V-36.3233V-36.0264V-35.4291V-34.2312V-31.8455V-27.0911C381.897 -23.9259 381.897 -20.7811 381.897 -17.6497C381.893 -11.3869 381.89 -5.18818 381.887 0.932891C381.876 13.1784 381.866 25.1304 381.856 36.7179C381.816 59.8794 381.775 81.5865 381.741 101.293L380.969 100.52C413.842 100.689 441.123 100.824 460.303 100.922C469.819 101.006 477.32 101.073 482.564 101.121C485.067 101.158 487.028 101.188 488.465 101.208C489.808 101.235 490.544 101.293 490.544 101.293C490.574 101.323 489.923 101.35 488.631 101.377C487.227 101.401 485.317 101.428 482.877 101.465C477.674 101.512 470.23 101.58 460.789 101.664C441.491 101.758 414.044 101.897 380.969 102.065L380.199 102.069L380.196 101.293C380.162 81.5865 380.122 59.8794 380.081 36.7179C380.071 25.1304 380.061 13.1784 380.051 0.932891C380.048 -5.18818 380.044 -11.3869 380.041 -17.6497C380.041 -20.7811 380.041 -23.9259 380.041 -27.0911V-31.8455L380.037 -34.2312V-35.4291V-36.0264V-36.3233V-36.4751V-36.5527V-36.5865C379.211 -35.7665 381.164 -37.7506 380.982 -37.5414C420.519 -37.5077 457.89 -37.4739 490.544 -37.4436H491.381L491.377 -36.6101C491.209 4.39834 491.064 38.9348 490.959 63.3414C490.868 75.3305 490.794 84.8259 490.74 91.443C490.699 94.5879 490.665 97.0445 490.642 98.8228C490.622 99.5854 490.605 100.196 490.595 100.692C490.578 101.107 490.561 101.31 490.544 101.293" fill="#DADBD8"/>
<path d="M595.163 46.5H503.961V-36.6136H595.163V46.5Z" fill="#F3F2F1"/>
<path d="M595.166 46.5002C595.136 46.4732 595.105 45.9265 595.075 44.894C595.055 43.7433 595.024 42.2553 594.987 40.3825C594.937 36.3198 594.866 30.6238 594.781 23.4432C594.68 8.81879 594.542 -11.8288 594.373 -36.61L595.163 -35.8204C568.822 -35.7799 537.502 -35.7327 503.968 -35.6821C503.755 -35.483 505.719 -37.4367 504.889 -36.5999V-36.5763V-36.5324V-36.4413V-36.2692V-35.9115V-35.2029V-33.7857V-30.9648C504.889 -29.0886 504.889 -27.2192 504.889 -25.3566C504.885 -21.6313 504.885 -17.9431 504.882 -14.2887C504.875 -6.97984 504.868 0.17708 504.862 7.15186C504.831 21.0947 504.801 34.3053 504.777 46.5002L503.961 45.687C531.01 45.8557 553.672 46.0008 569.75 46.0986C577.66 46.1897 583.943 46.2639 588.411 46.3146C590.482 46.3551 592.129 46.3854 593.391 46.4091C594.528 46.4394 595.132 46.4732 595.166 46.5002C595.196 46.5339 594.653 46.5643 593.573 46.5947C592.352 46.6217 590.756 46.652 588.751 46.6925C584.328 46.7431 578.105 46.814 570.27 46.9051C554.07 47.0063 531.226 47.148 503.961 47.3167L503.148 47.3235L503.144 46.5002C503.117 34.3053 503.09 21.0947 503.06 7.15186C503.053 0.17708 503.046 -6.97984 503.04 -14.2887C503.04 -17.9431 503.036 -21.6313 503.033 -25.3566C503.033 -27.2192 503.033 -29.0886 503.033 -30.9648V-33.7857V-35.2029V-35.9115V-36.2692V-36.4413V-36.5324V-36.5763V-36.5999C502.199 -35.7766 504.16 -37.7472 503.968 -37.5414C537.502 -37.4908 568.822 -37.4435 595.163 -37.403H595.962L595.956 -36.61C595.787 -11.623 595.649 9.20009 595.551 23.9426C595.463 31.049 595.392 36.6876 595.341 40.7064C595.308 42.5151 595.274 43.9559 595.254 45.0694C595.223 46.0446 595.193 46.5305 595.166 46.5002" fill="#DADBD8"/>
<path d="M595.163 101.292H503.961V59.5316H595.163V101.292Z" fill="#F3F2F1"/>
<path d="M595.166 101.293C595.119 101.245 595.072 100.203 595.021 98.2659C594.98 96.1637 594.923 93.3765 594.852 89.8773C594.764 82.5111 594.64 72.1924 594.491 59.5318L595.163 60.2067C571.377 60.2742 539.287 60.3619 503.967 60.4598C503.134 61.2899 505.091 59.3293 504.889 59.5351V59.5453V59.5689V59.6128V59.6972V59.8693V60.2134V60.9017V62.2718V65.005C504.889 66.8204 504.889 68.629 504.885 70.4241C504.885 74.0178 504.879 77.5643 504.879 81.0601C504.865 88.045 504.855 94.8106 504.841 101.293L503.961 100.412C530.267 100.581 552.899 100.726 569.18 100.83C577.15 100.932 583.558 101.016 588.184 101.073C590.29 101.121 591.987 101.154 593.317 101.185C594.498 101.222 595.129 101.256 595.166 101.293C595.2 101.33 594.64 101.364 593.529 101.401C592.247 101.428 590.611 101.465 588.579 101.512C584 101.569 577.66 101.654 569.774 101.755C553.344 101.86 530.507 102.005 503.961 102.177L503.08 102.18V101.293C503.067 94.8106 503.056 88.045 503.043 81.0601C503.04 77.5643 503.04 74.0178 503.036 70.4241C503.036 68.629 503.033 66.8204 503.033 65.005V62.2718V60.9017V60.2134V59.8693V59.6972V59.6128V59.5689V59.5453V59.5351C502.83 59.7308 504.794 57.7704 503.967 58.6005C539.287 58.7017 571.377 58.7895 595.163 58.857L595.848 58.8602L595.837 59.5318C595.689 72.3645 595.564 82.8215 595.476 90.2924C595.406 93.7241 595.348 96.464 595.308 98.5224C595.257 100.388 595.21 101.34 595.166 101.293" fill="#DADBD8"/>
<path d="M487.835 -36.3742C453.916 10.482 414.888 54.4397 380.969 101.292Z" fill="white"/>
<path d="M380.969 101.293C380.919 101.256 381.226 100.726 381.864 99.7542C382.64 98.617 383.585 97.2301 384.728 95.5564C387.236 91.9223 390.985 86.7528 395.698 80.4259C405.113 67.762 418.587 50.6236 433.673 31.8791C448.77 13.1312 462.393 -3.85855 472.063 -16.3065C476.757 -22.3669 480.617 -27.3542 483.496 -31.066C484.748 -32.6587 485.783 -33.9746 486.637 -35.0578C487.369 -35.9554 487.784 -36.411 487.835 -36.3738C487.886 -36.3367 487.575 -35.8069 486.941 -34.8351C486.165 -33.698 485.22 -32.3111 484.076 -30.6375C481.572 -27.0033 477.82 -21.8371 473.106 -15.5102C463.692 -2.84292 450.218 14.2954 435.124 33.0466C420.034 51.7878 406.415 68.7776 396.745 81.2256C392.047 87.2825 388.184 92.2698 385.309 95.985C384.057 97.5777 383.021 98.8937 382.167 99.9735C381.432 100.874 381.02 101.33 380.969 101.293Z" fill="#DADBD8"/>
<path d="M380.969 -36.6138L490.544 101.292Z" fill="white"/>
<path d="M490.544 101.292C490.143 101.613 465.287 70.9976 435.033 32.9214C404.768 -5.16822 380.567 -36.2932 380.969 -36.6138C381.371 -36.931 406.223 -6.32223 436.487 31.764C466.742 69.8402 490.949 100.972 490.544 101.292Z" fill="#DADBD8"/>
<path d="M1311.84 327.806H1114.29V41.4723H1311.84V327.806Z" fill="#DADBD8"/>
<path d="M1301.94 327.806H1104.4V41.4723H1301.94V327.806Z" fill="#F3F2F1"/>
<path d="M1277.4 296.792H1128.94V72.4827H1277.4V296.792Z" fill="white"/>
<path d="M1277.4 296.792C1277.4 296.792 1277.38 296.411 1277.37 295.695C1277.36 294.957 1277.35 293.897 1277.34 292.517C1277.32 289.696 1277.31 285.569 1277.28 280.211C1277.25 269.46 1277.2 253.796 1277.15 234.006C1277.09 194.452 1277 138.441 1276.9 72.4824L1277.4 72.975C1232.04 72.9885 1181.78 73.002 1128.96 73.0189H1128.94L1129.48 72.4824C1129.43 157.101 1129.4 235.123 1129.37 296.792L1128.94 296.364C1174.15 296.458 1211.21 296.536 1237 296.59C1249.9 296.637 1259.97 296.674 1266.85 296.698C1270.27 296.721 1272.89 296.735 1274.68 296.748C1276.46 296.762 1277.4 296.792 1277.4 296.792C1277.4 296.792 1276.52 296.826 1274.78 296.839C1273 296.849 1270.41 296.866 1267.02 296.887C1260.16 296.91 1250.12 296.951 1237.26 296.995C1211.41 297.049 1174.26 297.126 1128.94 297.221H1128.51V296.792C1128.48 235.123 1128.44 157.101 1128.4 72.4824L1128.4 71.9458H1128.94H1128.96C1181.78 71.9593 1232.04 71.9762 1277.4 71.9897H1277.89V72.4824C1277.79 138.576 1277.71 194.694 1277.65 234.33C1277.59 254.073 1277.55 269.7 1277.51 280.423C1277.49 285.738 1277.47 289.831 1277.46 292.628C1277.45 293.988 1277.43 295.024 1277.43 295.753C1277.42 296.451 1277.4 296.792 1277.4 296.792" fill="#DADBD8"/>
<path d="M1104.37 327.58C1112.99 316.937 1121.62 306.294 1130.24 295.652Z" fill="white"/>
<path d="M1130.24 295.652C1130.47 295.841 1124.87 303.139 1117.72 311.953C1110.57 320.77 1104.6 327.765 1104.37 327.58C1104.14 327.391 1109.74 320.096 1116.89 311.278C1124.03 302.461 1130.01 295.466 1130.24 295.652" fill="#DADBD8"/>
<path d="M1104.39 41.4721C1104.63 41.2865 1110.25 48.0082 1116.96 56.4846C1123.66 64.961 1128.9 71.983 1128.67 72.1652C1128.44 72.3508 1122.82 65.6291 1116.11 57.1493C1109.41 48.6764 1104.16 41.6544 1104.39 41.4721" fill="#DADBD8"/>
<path d="M1231.14 259.165H1181.43V118.026H1231.14V259.165Z" fill="#DADBD8"/>
<path d="M410.812 -80.4903C356.664 4.68834 360.211 122.777 419.373 204.551C458.816 259.064 517.978 295.601 564.959 343.77C611.937 391.939 647.621 462.921 622.826 525.472C597.586 589.146 523.661 615.051 468.298 655.384C407.995 699.318 365.64 767.179 352.666 840.653C339.69 914.122 356.239 992.386 397.848 1054.32H972.911C972.911 1054.32 1073.93 861.796 944.05 715.08C814.168 568.363 744.421 565.961 749.226 469.751C754.037 373.542 821.383 342.275 859.867 306.197C898.352 270.121 1085.96 185.938 975.314 -80.4903H410.812Z" fill="#FAFAF9"/>
<path d="M410.811 -80.4871C410.811 -80.4871 414.152 -80.5444 420.715 -80.5681C427.295 -80.5849 437.06 -80.6119 449.863 -80.6457C475.528 -80.6828 513.358 -80.7401 562.08 -80.8076C659.629 -80.8819 800.791 -80.9831 975.313 -81.1113H975.738L975.89 -80.7266C983.745 -60.7741 991.688 -40.2311 997.317 -18.4564C1003.11 3.2204 1007.86 25.8015 1009.54 49.2094C1011.3 72.5666 1010.54 96.6865 1005.89 120.638C1001.09 144.525 992.529 168.186 979.895 190.075C973.612 201.042 966.219 211.455 958.235 221.504C950.157 231.492 941.212 240.879 931.743 249.845C922.261 258.797 912.162 267.229 901.674 275.297C891.211 283.396 880.288 291.046 869.621 299.124C864.28 303.153 859.404 307.671 854.312 312.199C849.197 316.64 843.933 320.925 838.615 325.17C827.989 333.667 817.255 342.167 807.125 351.47C786.67 369.769 769.397 392.62 759.894 419.213C755.282 432.481 751.978 446.387 750.902 460.62C750.615 464.177 750.136 467.723 750.004 471.296C749.933 474.87 749.731 478.45 749.903 482.034C749.947 489.201 750.757 496.364 752.059 503.427C754.759 517.552 760.691 531.087 769.322 542.819C777.819 554.66 788.3 565.086 799.145 575.112C820.98 595.074 844.135 614.126 866.321 634.703C888.609 655.161 910.255 676.76 931.105 699.46C941.448 710.848 951.969 722.311 961.012 735.019C970.366 747.493 978.218 761.12 985.122 775.217C998.724 803.548 1007.13 834.629 1009.89 866.412C1012.85 898.196 1010.58 930.582 1004.28 962.274C1001.17 978.137 997.027 993.848 991.945 1009.31C986.86 1024.76 980.992 1040 973.69 1054.73L973.457 1055.2H972.91C968.244 1055.2 963.175 1055.2 958.104 1055.2C761.798 1055.18 572.389 1055.17 397.847 1055.16H397.395L397.149 1054.79C369.749 1013.65 353.481 966.401 348.994 919.045C344.226 871.683 351.514 824.183 368.888 782.026C386.037 739.719 412.698 702.615 444.906 673.447C460.964 658.752 478.865 646.722 496.803 635.597C514.758 624.448 532.862 614.139 549.983 602.859C567.027 591.558 583.453 579.515 596.792 564.783C610.175 550.179 620.399 533.017 625.757 514.572C631.133 496.115 631.183 476.753 628.038 458.528C624.85 440.236 618.411 422.939 610.266 407.005C602.096 391.051 592.189 376.406 581.321 363.037C570.479 349.628 558.429 337.726 546.295 326.49C521.952 304.081 497.039 284.482 474.614 264.341C463.384 254.292 452.738 244.149 442.945 233.726C433.224 223.245 424.332 212.497 416.696 201.365C401.292 179.152 390.731 155.754 383.793 133.167C376.842 110.552 373.39 88.6892 372.597 68.5747C372.124 63.5537 372.31 58.6272 372.317 53.8187C372.381 49.0137 372.236 44.3132 372.732 39.7511C373.086 35.1856 373.427 30.7348 373.761 26.3988C374.281 22.0864 374.993 17.9123 375.573 13.8395C380.638 -18.7365 390.464 -42.5391 398.127 -57.7743C399.963 -61.6447 401.583 -65.0494 403.33 -67.8062C404.974 -70.6036 406.351 -72.9522 407.457 -74.8418C409.674 -78.6076 410.811 -80.4871 410.811 -80.4871C410.579 -80.0754 409.64 -78.4186 407.555 -74.7304C406.465 -72.8374 405.115 -70.4821 403.509 -67.6814C401.798 -64.9346 400.199 -61.5232 398.387 -57.646C390.818 -42.3872 381.097 -18.5914 376.133 13.9272C375.566 17.9933 374.864 22.1606 374.358 26.4662C374.034 30.7888 373.704 35.2329 373.363 39.7882C372.877 44.3369 373.032 49.0272 372.978 53.8221C372.982 58.6171 372.806 63.5335 373.289 68.5411C374.122 88.6016 377.611 110.396 384.579 132.927C391.534 155.43 402.095 178.727 417.469 200.826C425.088 211.907 433.966 222.604 443.674 233.044C453.456 243.423 464.089 253.533 475.315 263.555C497.735 283.642 522.668 303.213 547.084 325.639C559.246 336.876 571.356 348.808 582.259 362.275C593.188 375.688 603.156 390.393 611.386 406.428C619.596 422.449 626.095 439.854 629.327 458.305C632.516 476.685 632.482 496.26 627.056 514.947C621.651 533.614 611.312 550.978 597.818 565.724C584.371 580.602 567.86 592.712 550.773 604.06C533.607 615.384 515.494 625.71 497.579 636.849C479.675 647.974 461.879 659.943 445.918 674.571C413.892 703.6 387.387 740.532 370.35 782.624C353.09 824.564 345.862 871.784 350.62 918.89C355.098 965.982 371.298 1012.97 398.542 1053.85L397.847 1053.48C572.389 1053.47 761.798 1053.45 958.104 1053.44C963.175 1053.44 968.244 1053.44 972.91 1053.44L972.131 1053.91C979.349 1039.36 985.223 1024.13 990.278 1008.76C995.336 993.368 999.46 977.725 1002.56 961.933C1008.83 930.383 1011.09 898.162 1008.15 866.571C1005.41 834.977 997.06 804.108 983.556 775.967C976.703 761.966 968.908 748.429 959.615 736.038C950.64 723.418 940.182 712.019 929.84 700.624C909.024 677.955 887.425 656.39 865.171 635.955C843.018 615.398 819.904 596.373 798.008 576.343C787.132 566.278 776.581 555.787 767.966 543.791C759.23 531.903 753.173 518.089 750.439 503.741C749.117 496.567 748.307 489.309 748.26 482.067C748.091 478.443 748.293 474.836 748.371 471.229C748.506 467.622 748.982 464.048 749.272 460.461C750.365 446.114 753.709 432.07 758.369 418.66C767.979 391.787 785.482 368.689 806.052 350.306C816.246 340.956 827.017 332.435 837.639 323.952C842.954 319.711 848.208 315.439 853.29 311.028C858.294 306.581 863.305 301.948 868.683 297.899C879.404 289.787 890.303 282.161 900.746 274.089C911.207 266.052 921.273 257.656 930.717 248.748C940.145 239.833 949.047 230.496 957.085 220.572C965.031 210.584 972.384 200.238 978.633 189.346C991.203 167.605 999.716 144.11 1004.51 120.368C1009.15 96.5616 1009.92 72.57 1008.19 49.3106C1006.53 26.0108 1001.82 3.50047 996.062 -18.119C990.47 -39.8295 982.564 -60.3287 974.739 -80.2508L975.313 -79.8662C800.896 -79.9944 659.818 -80.099 562.326 -80.1698C513.567 -80.2407 475.707 -80.2947 450.025 -80.3285C437.189 -80.3656 427.396 -80.3926 420.799 -80.4095C414.209 -80.4365 410.811 -80.4871 410.811 -80.4871" fill="#17282F"/>
<path d="M952.368 75.7289C1037.06 89.6515 903.521 239.662 827.932 298.851C784.16 333.128 737.152 370.296 716.37 421.856C692.786 480.354 710.265 546.103 698.836 604.952C696.937 614.717 682.498 613.182 682.643 603.231C683.206 564.604 682.174 525.999 675.773 487.973C666.696 434.041 645.96 380.686 608.161 341.159C577.306 308.896 536.847 287.456 503.934 257.296C455.88 213.257 406.52 156.46 401.705 91.4601C401.705 91.4601 493.97 17.1435 545.182 26.5242C605.03 37.4874 663.952 129.84 756.69 119.261C821.443 111.878 854.117 59.5793 952.368 75.7289" fill="#F03D5F"/>
<path d="M959.886 878.638C957.744 857.457 952.098 833.485 933.3 823.494C921.911 817.441 908.046 818.112 895.578 821.391C883.103 824.675 871.384 830.344 859.024 834.015C834.698 841.239 808.047 840.396 784.231 831.646C761.249 823.204 741.522 807.945 720.186 795.945C698.847 783.951 673.87 775.011 650.111 780.923C609.146 791.117 587.831 840.437 547.332 852.342C529.33 857.633 509.998 854.663 491.699 850.516C473.4 846.369 455.03 841.051 436.282 841.75C421.59 842.299 406.304 847.378 396.006 857.447L396.114 857.308L395.817 857.629C394.123 859.303 392.567 861.118 391.174 863.075C378.611 879.819 376.603 902.336 380.467 922.784C384.796 945.682 395.489 966.843 406.969 987.119C420.49 1011.01 435.847 1034.79 458.202 1050.71C476.727 1063.91 498.461 1062.12 520.965 1060.33C531.958 1059.46 543.137 1058.59 554.215 1059.46C632.946 1065.67 717.655 1069.91 796.396 1063.81C837.988 1060.59 876.975 1065.09 909.98 1039.58C933.205 1021.63 948.302 994.567 955.587 966.131C962.869 937.696 962.836 907.839 959.886 878.638" fill="#F03D5F"/>
<path d="M811.324 838.074C811.313 838.074 811.303 838.072 811.292 838.072C811.292 838.072 811.292 838.072 811.292 838.068C811.303 838.072 811.313 838.074 811.324 838.074" fill="#B3B5B3"/>
<path d="M854.735 1051.67C847.001 1051.67 839.216 1047.66 832.913 1042.8C814.83 1028.84 803.239 1007.26 799.871 984.663C796.504 962.068 801.046 938.63 811.03 918.083C816.439 906.954 823.63 895.198 821.42 883.172C821.768 882.964 822.112 882.761 822.449 882.562C825.908 880.483 828.641 878.839 830.635 877.643C831.486 877.109 832.174 876.678 832.741 876.323C833.207 876.022 833.443 875.854 833.426 875.826C833.423 875.823 833.419 875.823 833.412 875.823C833.358 875.823 833.099 875.941 832.643 876.17C832.056 876.485 831.337 876.869 830.45 877.338C828.418 878.465 825.635 880.011 822.112 881.965C821.835 882.12 821.558 882.278 821.272 882.436C821.241 882.295 821.211 882.15 821.177 882.008C819.318 874.093 813.524 867.812 809.239 860.901C804.953 853.992 806.846 844.877 811.294 838.072C811.304 838.072 811.314 838.074 811.324 838.074C815.599 838.884 819.915 839.145 824.248 839.145C826.266 839.145 828.287 839.087 830.308 839.002C835.383 846.277 841.754 852.443 849.4 856.968L853.395 931.288L873.763 927.754C872.751 952.185 873.763 976.695 876.81 1000.96C877.998 1010.39 879.482 1020.01 877.681 1029.35C875.879 1038.68 870.011 1047.89 860.937 1050.74C858.892 1051.38 856.817 1051.67 854.735 1051.67" fill="#CE3148"/>
<path d="M692.162 251.35C677.77 251.35 663.386 248.91 650.317 244.446C635.156 239.182 622.225 231.772 610.918 224.332C599.58 216.814 589.808 209.393 580.596 202.29C571.421 195.171 563.06 188.31 555.585 181.855C525.712 155.967 509.998 136.936 513.028 133.261C513.416 132.789 514.077 132.56 515.005 132.56C521.569 132.56 541.383 144.053 570.264 161.802C578.504 166.86 587.513 172.394 597.184 178.333C606.845 184.217 617.238 190.71 627.833 196.719C638.463 202.722 649.554 208.185 661.057 211.732C670.681 214.607 680.844 216.213 691.555 216.213C693.562 216.213 695.584 216.156 697.628 216.041C723.533 214.722 748.672 205.591 770.454 195.079C792.346 184.366 811.924 172.245 828.999 162.686C846.053 153.018 860.64 145.875 871.259 142.079C877.967 139.673 883.035 138.508 886.136 138.508C887.948 138.508 889.089 138.907 889.494 139.683C890.641 141.876 886.369 146.62 878.217 153.855C870.034 161.1 858.096 171.037 842.918 183.276C827.656 195.41 809.164 210.041 785.615 223.694C773.818 230.51 760.685 236.695 746.324 241.726C739.103 244.149 731.618 246.4 723.746 247.969C715.917 249.646 707.752 250.76 699.353 251.144C696.96 251.283 694.561 251.35 692.162 251.35" fill="#CE3148"/>
<path d="M683.065 675.445C689.308 673.248 696.772 679.528 695.668 686.057C694.568 692.58 685.461 696.065 680.285 691.945C675.108 687.822 676.468 678.165 682.582 675.63" fill="#F03D5F"/>
<path d="M479.635 233.807C479.592 233.847 478.903 233.149 477.628 231.782C476.261 230.284 474.429 228.273 472.121 225.742C469.792 223.063 466.729 219.965 463.597 216.007C460.419 212.052 456.821 207.574 452.853 202.641C449.189 197.455 445.025 191.867 440.837 185.678C438.85 182.51 436.791 179.233 434.672 175.862C433.633 174.165 432.499 172.488 431.49 170.706C430.515 168.904 429.526 167.079 428.524 165.23C420.22 150.612 412.827 133.487 407.57 114.783C402.309 96.0692 399.842 77.5709 399.62 60.7262C399.603 56.5217 399.835 52.4152 399.93 48.4301C400.021 46.4392 399.987 44.4686 400.186 42.5486C400.389 40.6252 400.591 38.7322 400.79 36.8695C401.216 33.1544 401.513 29.5506 402.012 26.1122C402.629 22.7007 403.223 19.4208 403.79 16.2894C404.755 9.99624 406.419 4.47242 407.61 -0.430509C408.258 -2.86679 408.767 -5.16468 409.409 -7.22641C410.077 -9.26789 410.691 -11.144 411.248 -12.848C412.337 -16.0942 413.205 -18.679 413.849 -20.599C414.463 -22.3672 414.811 -23.2816 414.868 -23.2613C414.926 -23.2411 414.686 -22.2861 414.183 -20.4876C413.62 -18.544 412.857 -15.9323 411.902 -12.649C411.393 -10.9348 410.829 -9.05196 410.215 -7.00036C409.621 -4.92851 409.162 -2.63059 408.562 -0.187566C407.465 4.72211 405.892 10.2392 405.012 16.5155C404.482 19.6367 403.929 22.9065 403.355 26.3078C402.896 29.726 402.633 33.313 402.241 37.008C402.059 38.8571 401.874 40.74 401.685 42.6499C401.502 44.5631 401.553 46.5202 401.472 48.4975C401.408 52.4557 401.202 56.5285 401.236 60.7026C401.55 77.4158 404.043 95.7452 409.26 114.307C414.473 132.86 421.765 149.873 429.945 164.454C430.93 166.296 431.902 168.118 432.864 169.913C433.856 171.692 434.973 173.369 435.995 175.066C438.077 178.437 440.098 181.707 442.055 184.875C446.169 191.074 450.258 196.679 453.849 201.895C457.729 206.876 461.245 211.391 464.356 215.383C467.407 219.391 470.39 222.546 472.637 225.293C474.837 227.912 476.588 229.994 477.891 231.546C479.079 232.99 479.683 233.766 479.635 233.807" fill="#17282F"/>
<path d="M447.613 735.11C447.586 735.093 447.798 734.719 448.244 734C448.743 733.207 449.405 732.161 450.252 730.825C451.166 729.407 452.273 727.697 453.569 725.692C454.23 724.677 454.942 723.587 455.698 722.422C456.528 721.306 457.5 720.185 458.482 718.964C460.476 716.524 462.689 713.821 465.102 710.872C467.7 708.075 470.68 705.18 473.798 701.987C480.206 695.789 487.953 689.178 496.963 682.494C514.874 668.919 537.981 655.428 563.029 639.683C575.457 631.683 588.543 623.254 600.913 612.996C613.3 602.815 625.242 591.076 634.909 577.072C653.975 548.724 661.719 515.889 662.397 486.535C663.166 456.959 656.873 430.619 649.463 409.624C641.958 388.548 633.357 372.509 627.108 361.691C623.983 356.269 621.419 352.138 619.651 349.355C618.814 348.015 618.156 346.966 617.663 346.173C617.221 345.45 617.009 345.072 617.036 345.056C617.063 345.039 617.322 345.383 617.812 346.075C618.341 346.841 619.047 347.863 619.948 349.162C621.81 351.882 624.476 355.962 627.695 361.344C634.14 372.077 642.94 388.082 650.631 409.205C658.23 430.251 664.698 456.74 664.013 486.572C663.888 494.009 663.288 501.622 662.151 509.332C661.084 517.046 659.454 524.854 657.21 532.636C652.871 548.242 645.906 563.74 636.367 578.054C626.568 592.25 614.488 604.094 601.999 614.332C589.521 624.644 576.375 633.073 563.896 641.053C538.754 656.751 515.636 670.096 497.702 683.493C488.679 690.089 480.918 696.602 474.479 702.696C471.345 705.838 468.345 708.685 465.723 711.436C463.277 714.338 461.039 716.99 459.018 719.386C458.019 720.587 457.031 721.687 456.184 722.78C455.404 723.921 454.675 724.994 453.997 725.992C452.647 727.956 451.5 729.63 450.549 731.017C449.644 732.309 448.932 733.325 448.399 734.091C447.906 734.776 447.64 735.123 447.613 735.11Z" fill="#17282F"/>
<path d="M416.231 794.731C416.282 794.761 416.025 795.304 415.492 796.297C414.844 797.454 414.051 798.871 413.09 800.589C412.003 802.428 410.714 804.696 409.411 807.435C408.082 810.158 406.402 813.175 404.978 816.712C404.218 818.466 403.425 820.298 402.602 822.198C401.789 824.111 401.124 826.173 400.334 828.269C398.684 832.435 397.406 837.049 395.948 841.864C393.35 851.582 391.18 862.461 390.053 874.024C389.054 885.603 389.209 896.693 389.995 906.725C390.556 911.73 390.974 916.498 391.835 920.895C392.233 923.097 392.509 925.244 392.965 927.276C393.427 929.296 393.873 931.241 394.301 933.103C395.054 936.841 396.16 940.114 396.97 943.03C397.753 945.963 398.607 948.429 399.342 950.43C399.977 952.296 400.496 953.834 400.922 955.091C401.266 956.163 401.421 956.737 401.364 956.76C401.31 956.784 401.043 956.254 400.594 955.222C400.085 953.994 399.457 952.492 398.701 950.667C397.864 948.692 396.913 946.246 396.036 943.328C395.128 940.419 393.933 937.152 393.097 933.404C392.631 931.537 392.145 929.587 391.639 927.559C391.146 925.52 390.832 923.361 390.4 921.148C389.469 916.72 388.993 911.916 388.383 906.87C387.498 896.758 387.293 885.555 388.305 873.862C389.439 862.188 391.679 851.211 394.389 841.429C395.904 836.58 397.247 831.94 398.968 827.763C399.795 825.66 400.496 823.592 401.35 821.682C402.217 819.782 403.051 817.953 403.847 816.199C405.352 812.665 407.124 809.665 408.544 806.976C409.938 804.264 411.318 802.033 412.499 800.241C413.579 798.584 414.466 797.221 415.192 796.107C415.823 795.173 416.18 794.697 416.231 794.731" fill="#17282F"/>
<path d="M833.426 875.826C833.443 875.854 833.206 876.023 832.741 876.324C832.174 876.678 831.485 877.109 830.635 877.643C828.641 878.84 825.908 880.483 822.449 882.562C820.654 883.626 818.67 884.799 816.507 886.081C814.297 887.297 811.806 888.457 809.178 889.791C803.87 892.348 797.978 895.607 791.024 898.236C787.589 899.646 783.988 901.121 780.243 902.657C776.48 904.165 772.421 905.332 768.297 906.76C760.081 909.76 750.99 911.895 741.488 914.376C722.325 918.637 700.881 921.765 678.209 922.491C655.517 922.953 633.941 920.949 614.576 917.69C604.955 915.709 595.764 914.048 587.402 911.48C583.211 910.273 579.094 909.321 575.258 908.012C571.438 906.671 567.767 905.386 564.261 904.155C557.178 901.893 551.124 898.948 545.692 896.67C542.996 895.476 540.451 894.446 538.18 893.347C535.953 892.186 533.912 891.113 532.063 890.144C528.499 888.251 525.685 886.75 523.63 885.66C522.756 885.171 522.041 884.777 521.46 884.455C520.978 884.178 520.738 884.02 520.755 883.993C520.769 883.966 521.035 884.07 521.548 884.299C522.152 884.58 522.891 884.921 523.799 885.346C525.888 886.365 528.749 887.762 532.366 889.531C534.236 890.459 536.291 891.48 538.538 892.59C540.822 893.641 543.38 894.623 546.083 895.766C551.536 897.956 557.6 900.811 564.679 902.987C568.182 904.175 571.85 905.421 575.666 906.716C579.493 907.984 583.602 908.902 587.783 910.073C596.121 912.57 605.276 914.166 614.856 916.096C634.133 919.248 655.598 921.192 678.162 920.736C700.713 920.015 722.038 916.95 741.124 912.797C750.589 910.374 759.649 908.302 767.842 905.373C771.959 903.986 776.011 902.856 779.767 901.387C783.516 899.896 787.109 898.459 790.548 897.089C797.499 894.548 803.408 891.376 808.739 888.91C811.378 887.624 813.885 886.514 816.112 885.343C818.292 884.115 820.296 882.988 822.111 881.965C825.634 880.012 828.418 878.466 830.45 877.339C831.337 876.869 832.056 876.485 832.643 876.171C833.146 875.919 833.409 875.8 833.426 875.826" fill="#17282F"/>
<path d="M868.616 161.68C868.636 161.704 868.393 161.93 867.897 162.352C867.327 162.824 866.598 163.421 865.687 164.174C863.619 165.824 860.734 168.125 857.069 171.047C849.564 176.983 838.713 185.591 824.996 195.845C811.252 206.043 794.603 217.92 774.806 229.025C764.811 234.363 754.165 239.82 742.473 243.899C730.818 248.013 718.289 251.161 705.163 252.2C678.799 253.982 653.805 247.304 633.475 237.289C623.308 232.194 614.136 226.484 605.788 220.822C597.548 215.008 590.027 209.383 583.372 203.991C570.01 193.271 559.546 184.2 552.271 177.978C548.728 174.914 545.937 172.502 543.936 170.774C543.056 169.988 542.35 169.36 541.794 168.864C541.318 168.429 541.085 168.193 541.105 168.169C541.125 168.145 541.395 168.334 541.912 168.726C542.495 169.188 543.238 169.772 544.162 170.501C546.214 172.171 549.079 174.499 552.713 177.455C560.12 183.512 570.708 192.441 584.142 203.016C590.833 208.337 598.375 213.885 606.611 219.621C614.953 225.199 624.094 230.824 634.187 235.835C654.362 245.671 679.049 252.2 705.034 250.446C717.965 249.423 730.345 246.329 741.892 242.28C753.477 238.261 764.065 232.875 774.023 227.605C793.756 216.641 810.442 204.899 824.257 194.843C838.051 184.734 849.018 176.274 856.651 170.507C860.403 167.693 863.352 165.48 865.471 163.894C866.423 163.198 867.189 162.645 867.789 162.206C868.316 161.835 868.596 161.656 868.616 161.68" fill="#17282F"/>
<path d="M671.585 920.801C651.427 920.801 632.251 918.942 614.856 916.096C605.276 914.166 596.121 912.57 587.783 910.073C583.603 908.902 579.493 907.984 575.666 906.716C572.15 905.525 568.759 904.374 565.509 903.267C573.814 897.368 583.741 895.358 594.073 895.358C603.521 895.358 613.31 897.039 622.516 898.971C639.053 902.447 655.699 907.749 672.409 907.749C675.672 907.749 678.935 907.545 682.205 907.087C697.281 904.978 711.116 897.558 725.993 894.336C729.84 893.502 733.906 893.042 737.955 893.042C749.33 893.042 760.604 896.66 766.803 905.737C758.887 908.477 750.191 910.474 741.124 912.797C722.039 916.95 700.713 920.015 678.162 920.736C675.959 920.781 673.765 920.801 671.585 920.801V920.801ZM564.946 904.398C564.727 904.32 564.511 904.246 564.291 904.168C564.295 904.168 564.295 904.168 564.295 904.168C564.511 904.242 564.73 904.32 564.946 904.398Z" fill="#CE3148"/>
<path d="M668.939 921.724C633.626 921.724 598.32 915.942 564.945 904.398C564.729 904.32 564.509 904.242 564.293 904.168C564.695 903.858 565.1 903.557 565.508 903.267C568.758 904.374 572.149 905.525 575.665 906.716C579.492 907.984 583.601 908.902 587.782 910.073C596.12 912.57 605.275 914.166 614.855 916.096C632.249 918.942 651.426 920.8 671.584 920.8C673.764 920.8 675.957 920.781 678.161 920.736C700.712 920.015 722.037 916.95 741.123 912.797C750.19 910.474 758.885 908.477 766.802 905.737C766.926 905.919 767.048 906.105 767.169 906.291C735.515 916.583 702.223 921.724 668.939 921.724" fill="#101C21"/>
<path d="M1122.31 812.605L1049.64 731.237L1048.9 830.145L1070.77 893.587L853.395 931.289L844.173 759.77L828.526 628.046C826.61 611.906 835.818 596.502 850.939 590.547L910.763 566.987L995.017 582.445L1028.91 595.328C1043.14 600.734 1055.83 609.558 1065.85 621.017L1167.88 737.695L1122.31 812.605" fill="#F03D5F"/>
<path d="M1044.54 711.78C1044.55 711.432 1049.32 712.138 1056.81 710.916C1064.23 709.759 1074.48 706.131 1082.99 698.306C1091.48 690.457 1095.92 680.533 1097.67 673.235C1099.5 665.865 1099.18 661.057 1099.53 661.07C1099.63 661.063 1099.8 662.251 1099.83 664.411C1099.87 666.57 1099.66 669.712 1098.89 673.515C1097.4 681.06 1093 691.446 1084.18 699.595C1075.34 707.731 1064.64 711.281 1056.99 712.144C1053.14 712.613 1049.99 712.57 1047.84 712.357C1045.69 712.151 1044.52 711.885 1044.54 711.78" fill="white"/>
<path d="M1050.9 825.933C1051.4 825.931 1051.53 791.666 1051.19 749.411C1050.84 707.143 1050.15 672.89 1049.64 672.897C1049.13 672.9 1049 707.16 1049.35 749.426C1049.69 791.677 1050.39 825.937 1050.9 825.933" fill="#17282F"/>
<path d="M1042.93 851.077L911.585 798.2C900.99 793.935 893.735 784.028 892.868 772.642L883.254 646.709C883.254 646.709 884.391 593.151 850.938 590.546L831.903 598.041C807.307 611.103 801.217 646.915 804.564 674.561C809.322 713.848 811.303 769.447 816.627 803.545C820.984 831.438 836.958 855.969 864.256 863.157L1026.04 898.179L1042.93 851.077" fill="#F03D5F"/>
<path d="M885.137 665.922C885.194 665.915 885.336 666.911 885.552 668.804C885.758 670.859 886.038 673.623 886.395 677.101C887.063 684.485 888.008 694.874 889.172 707.643C890.283 720.593 891.602 735.933 893.063 752.954C893.424 757.218 893.789 761.585 894.166 766.049C894.558 770.514 894.828 775.086 895.844 779.523C896.805 783.977 898.945 788.151 902.37 791.327C905.778 794.513 910.043 796.847 914.49 798.865C950.707 814.538 984.089 827.48 1008.32 836.554C1020.35 840.986 1030.13 844.59 1037.09 847.152C1040.37 848.36 1042.98 849.322 1044.91 850.036C1046.69 850.711 1047.62 851.093 1047.6 851.15C1047.58 851.208 1046.61 850.938 1044.79 850.371C1042.83 849.736 1040.19 848.879 1036.86 847.796C1029.99 845.518 1020.08 842.107 1007.89 837.72C983.519 828.934 950.086 816.185 913.761 800.464C909.243 798.409 904.809 796.007 901.172 792.595C897.497 789.204 895.142 784.565 894.166 779.914C893.117 775.255 892.871 770.648 892.493 766.197C892.138 761.73 891.794 757.36 891.453 753.092C890.131 736.058 888.94 720.705 887.934 707.741C887.006 694.952 886.25 684.545 885.714 677.155C885.494 673.663 885.322 670.893 885.194 668.831C885.1 666.928 885.076 665.926 885.137 665.922" fill="#17282F"/>
<path d="M809.882 734.381C809.946 734.378 810.027 734.961 810.142 736.071C810.26 737.384 810.402 738.987 810.577 740.93C810.966 745.418 811.495 751.458 812.133 758.801C812.855 766.339 813.766 775.309 815.079 785.222C816.432 795.119 818.021 806.038 821.008 817.119C822.425 822.721 824.409 827.895 827.419 832.331C830.432 836.807 833.773 840.828 837.231 844.388C844.176 851.491 851.589 856.698 858.25 860.157C871.687 867.141 881.456 867.243 881.321 867.708C881.314 867.769 880.727 867.752 879.61 867.667C878.493 867.593 876.843 867.461 874.751 867.04C870.563 866.304 864.54 864.658 857.683 861.262C850.84 857.892 843.214 852.692 836.077 845.522C832.524 841.928 829.086 837.852 825.991 833.293C822.85 828.721 820.717 823.194 819.314 817.588C816.287 806.336 814.745 795.378 813.473 785.432C812.248 775.47 811.458 766.467 810.898 758.905C810.345 751.34 810.051 745.213 809.896 740.971C809.852 739.021 809.818 737.408 809.791 736.088C809.788 734.971 809.825 734.384 809.882 734.381Z" fill="#17282F"/>
<path d="M866.051 822.502C865.869 822.455 866.429 819.643 868.44 815.503C870.428 811.37 874.109 806.029 879.468 801.433C884.846 796.86 890.698 794.063 895.088 792.744C899.494 791.404 902.353 791.292 902.376 791.478C902.43 791.772 899.67 792.319 895.496 793.918C891.325 795.497 885.795 798.361 880.608 802.769C875.446 807.203 871.751 812.213 869.537 816.091C867.303 819.961 866.331 822.6 866.051 822.502" fill="#17282F"/>
<path d="M891.885 726.732C891.902 726.708 892.182 726.833 892.719 727.103C893.336 727.423 894.109 727.832 895.067 728.335C897.176 729.327 900.25 730.886 904.438 732.31C912.698 735.174 925.639 738.093 941.255 735.451C956.669 732.93 974.597 723.847 987.015 707.022C993.163 698.714 997.917 688.477 999.001 677.26C999.544 671.689 999.085 665.885 997.246 660.426C995.444 654.976 992.147 649.918 987.778 645.957C983.431 641.985 978.029 639.188 972.357 638.462C966.769 637.578 960.783 639.056 956.902 642.805C955.033 644.688 953.865 647.205 953.892 649.8C953.882 652.385 954.878 654.939 956.43 657.014C959.538 661.263 964.778 663.243 969.792 663.986C980.023 665.389 990.079 663.54 998.501 659.876C1006.96 656.188 1013.87 650.708 1018.85 644.661C1023.84 638.587 1026.91 632.021 1028.75 626.061C1030.59 620.082 1031.15 614.659 1031.25 610.259C1031.31 605.846 1030.85 602.427 1030.51 600.13C1030.31 599.063 1030.15 598.21 1030.03 597.518C1029.92 596.931 1029.89 596.624 1029.91 596.617C1029.91 596.617 1031.78 601.3 1031.93 610.263C1031.94 614.717 1031.48 620.234 1029.69 626.341C1027.91 632.432 1024.86 639.171 1019.81 645.444C1014.78 651.69 1007.74 657.372 999.085 661.209C990.464 665.025 980.172 666.996 969.549 665.585C964.333 664.833 958.61 662.778 955.08 658.016C953.352 655.708 952.192 652.833 952.188 649.793C952.148 646.743 953.538 643.74 955.684 641.59C960.088 637.328 966.593 635.81 972.593 636.731C978.67 637.504 984.39 640.48 988.955 644.654C993.558 648.825 997.006 654.126 998.906 659.872C1000.83 665.609 1001.29 671.652 1000.71 677.426C999.564 689.037 994.634 699.511 988.317 707.984C975.545 725.136 957.182 734.267 941.458 736.679C925.538 739.203 912.469 736.038 904.208 732.951C895.853 729.762 891.885 726.732 891.885 726.732" fill="white"/>
<path d="M805.847 693.143C805.762 693.069 806.498 692.087 808 690.451C809.518 688.834 811.863 686.611 815.099 684.279C821.477 679.487 832.035 675.124 844.156 673.987C850.216 673.339 856.098 673.629 861.281 674.702C866.474 675.779 870.938 677.527 874.478 679.339C878.028 681.144 880.713 682.922 882.505 684.228C884.284 685.541 885.201 686.354 885.137 686.445C884.955 686.722 881.027 683.752 873.941 680.459C866.933 677.105 856.206 674.308 844.341 675.732C832.46 676.862 822.219 680.884 815.805 685.305C809.302 689.634 806.086 693.393 805.847 693.143" fill="white"/>
<path d="M826.851 603.095C827.121 602.798 830.225 607.097 837.484 610.826C841.071 612.685 845.707 614.244 851.018 614.794C856.306 615.354 862.278 614.75 867.957 612.452C873.603 610.063 878.256 606.267 881.603 602.134C884.974 597.997 887.151 593.613 888.376 589.763C890.876 581.999 890.032 576.765 890.434 576.782C890.525 576.772 890.792 578.034 890.873 580.359C890.964 582.684 890.69 586.092 889.56 590.124C888.45 594.157 886.31 598.773 882.865 603.146C879.444 607.516 874.591 611.558 868.629 614.079C862.633 616.502 856.346 617.075 850.839 616.4C845.309 615.742 840.534 613.988 836.9 611.923C833.252 609.864 830.647 607.647 829.075 605.936C827.485 604.232 826.78 603.153 826.851 603.095" fill="white"/>
<path d="M941.313 810.169C941.256 810.159 941.347 809.308 941.587 807.682C941.961 806.092 942.477 803.684 943.915 800.883C946.567 795.224 953.164 788.138 963.577 783.815C973.845 779.203 987.964 778.315 1002.19 782.432C1009.14 784.496 1017.11 787.044 1022.32 793.827C1024.87 797.161 1025.74 802.127 1023.8 806.181C1021.94 810.249 1018.28 813.054 1014.44 815.015C1010.52 816.928 1006.27 818.01 1002 818.095C997.773 818.177 993.363 817.124 990.062 814.39C986.729 811.698 984.977 807.537 984.718 803.569C984.407 799.563 985.22 795.7 986.503 792.19C992.101 778.139 1003.42 769.205 1013.57 764.784C1023.9 760.269 1033.24 759.794 1039.42 760.347C1045.63 760.988 1048.85 762.334 1048.85 762.334C1048.8 762.563 1045.51 761.447 1039.36 761.029C1033.26 760.691 1024.12 761.356 1014.09 765.918C1009.11 768.189 1003.97 771.455 999.345 775.922C994.743 780.367 990.602 786.06 988.024 792.741C986.82 796.094 986.088 799.765 986.388 803.431C986.654 807.078 988.227 810.699 991.156 813.057C994.048 815.45 998.023 816.425 1001.97 816.344C1005.95 816.269 1009.98 815.237 1013.65 813.442C1017.27 811.61 1020.61 808.971 1022.2 805.458C1023.86 801.973 1023.17 797.835 1020.92 794.833C1018.7 791.768 1015.45 789.558 1012.13 787.858C1008.8 786.174 1005.22 785.026 1001.75 783.987C987.819 779.874 974.132 780.616 964.053 784.963C953.825 789.045 947.299 795.77 944.519 801.199C941.647 806.65 941.563 810.236 941.313 810.169" fill="white"/>
<path d="M853.86 857.591C853.809 857.258 858.871 856.832 866.456 854.126C873.998 851.485 884.05 846.071 892.277 836.971C900.503 827.871 904.877 817.322 906.749 809.551C908.676 801.733 908.592 796.654 908.929 796.674C909.034 796.674 909.155 797.933 909.115 800.221C909.081 802.503 908.787 805.816 907.961 809.831C906.368 817.826 902.059 828.771 893.583 838.152C885.103 847.526 874.642 852.915 866.854 855.303C862.943 856.529 859.677 857.157 857.406 857.42C855.135 857.689 853.87 857.697 853.86 857.591" fill="white"/>
<path d="M811.293 759.703C811.276 759.641 811.819 759.422 812.879 759.065C813.938 758.717 815.511 758.23 817.566 757.711C821.666 756.719 827.783 755.36 835.46 755.896C839.28 756.197 843.461 757.067 847.624 758.903C851.761 760.738 855.902 763.616 858.972 767.808C861.986 771.992 863.831 777.438 863.386 783.12C863.173 785.952 862.306 788.796 860.778 791.338C859.239 793.837 856.931 796.105 853.894 797.093C850.898 798.032 847.385 797.556 845.019 795.335C842.688 793.077 842.104 789.906 841.959 787.156C841.746 781.552 842.958 776.186 845.057 771.529C849.234 762.108 857.005 755.926 864.213 753.352C871.471 750.662 877.906 750.865 882.077 751.583C884.182 751.944 885.771 752.414 886.828 752.786C887.874 753.18 888.414 753.416 888.393 753.474C888.339 753.645 886.139 752.771 881.979 752.258C877.865 751.759 871.606 751.769 864.658 754.51C857.768 757.145 850.456 763.145 846.535 772.188C844.567 776.645 843.457 781.784 843.68 787.065C843.811 789.65 844.415 792.356 846.224 794.067C848.002 795.754 850.894 796.203 853.364 795.417C855.861 794.613 857.906 792.663 859.29 790.419C860.663 788.145 861.463 785.571 861.668 782.975C862.11 777.771 860.427 772.67 857.656 768.752C854.835 764.825 850.955 762.035 847.024 760.229C843.069 758.414 839.047 757.502 835.352 757.131C827.908 756.453 821.831 757.596 817.718 758.38C813.594 759.223 811.333 759.833 811.293 759.703" fill="white"/>
<path d="M1001.3 833.911C994.598 831.376 987.327 828.593 979.582 825.572L941.317 810.169C941.321 810.169 941.321 810.169 941.321 810.169C941.506 810.169 941.618 808.056 942.951 804.625C949.18 808.775 955.915 812.271 962.714 815.362C976.046 821.419 988.595 827 1001.3 833.911V833.911ZM941.311 810.165L937.862 808.778C930.253 805.613 922.441 802.306 914.491 798.865C910.044 796.847 905.779 794.512 902.371 791.326C898.946 788.151 896.806 783.977 895.845 779.523C894.829 775.086 894.559 770.514 894.168 766.049C893.847 762.273 893.537 758.565 893.233 754.931C893.186 753.955 893.125 752.976 893.054 752.002C891.839 735.788 890.628 719.574 889.417 703.364C895.909 711.8 899.877 721.599 903.069 731.823C899.573 730.541 896.941 729.215 895.069 728.334C894.11 727.831 893.337 727.423 892.72 727.102C892.231 726.856 891.954 726.728 891.897 726.728C891.89 726.728 891.886 726.731 891.886 726.731C891.886 726.731 895.568 729.542 903.309 732.599C909.089 751.377 912.409 771.498 924.034 787.169C929.082 793.972 935.449 799.566 942.488 804.314C942.05 805.644 941.796 806.79 941.587 807.681C941.354 809.267 941.26 810.119 941.311 810.165" fill="#BA2C42"/>
<path d="M979.582 825.573C966.783 820.582 952.705 814.954 937.862 808.779L941.31 810.165C941.31 810.169 941.314 810.169 941.314 810.169C941.317 810.169 941.317 810.169 941.317 810.169L979.582 825.573V825.573ZM940.632 811.792C939.205 811.296 937.784 810.816 936.367 810.351C928.93 807.894 919.438 804.167 911.555 799.425C912.284 799.783 913.023 800.126 913.762 800.464C922.937 804.435 931.926 808.216 940.632 811.792Z" fill="#BA2C42"/>
<path d="M1005.19 836.067C984.232 829.152 961.776 819.101 940.632 811.792C931.926 808.216 922.937 804.435 913.762 800.464C913.023 800.126 912.284 799.782 911.555 799.425C910.715 798.919 909.892 798.402 909.092 797.873C909.055 797.089 908.991 796.674 908.93 796.674C908.927 796.674 908.927 796.674 908.927 796.674C908.842 796.674 908.785 797.003 908.714 797.619C906.035 795.822 903.622 793.895 901.648 791.85C902.137 791.684 902.394 791.569 902.377 791.479C902.374 791.435 902.218 791.407 901.932 791.407C901.756 791.407 901.53 791.418 901.26 791.441C892.534 782.017 893.911 768.671 893.232 754.931C893.536 758.565 893.847 762.273 894.167 766.049C894.559 770.514 894.828 775.086 895.844 779.523C896.806 783.977 898.945 788.151 902.37 791.327C905.778 794.513 910.043 796.847 914.491 798.865C922.441 802.306 930.252 805.614 937.862 808.778C952.705 814.954 966.783 820.582 979.582 825.573C987.326 828.594 994.598 831.376 1001.3 833.911C1002.6 834.616 1003.89 835.334 1005.19 836.067" fill="#0F191D"/>
<path d="M901.648 791.85C901.584 791.781 901.519 791.718 901.455 791.651C901.388 791.58 901.324 791.512 901.26 791.441C901.529 791.418 901.756 791.407 901.931 791.407C902.218 791.407 902.373 791.435 902.376 791.478C902.393 791.569 902.137 791.684 901.648 791.85Z" fill="#0F191D"/>
<path d="M903.307 732.599C895.567 729.542 891.885 726.731 891.885 726.731C891.885 726.731 891.889 726.728 891.895 726.728C891.953 726.728 892.229 726.856 892.719 727.103C893.336 727.423 894.109 727.831 895.067 728.334C896.94 729.215 899.572 730.541 903.068 731.823C903.149 732.083 903.226 732.343 903.307 732.599" fill="#A7A9A8"/>
<path d="M941.32 810.169C941.32 810.169 941.32 810.169 941.317 810.169C941.317 810.169 941.317 810.169 941.313 810.169C941.313 810.169 941.31 810.169 941.31 810.165C941.259 810.119 941.354 809.267 941.587 807.682C941.796 806.791 942.049 805.644 942.488 804.314C942.639 804.415 942.795 804.52 942.95 804.625C941.617 808.056 941.506 810.169 941.32 810.169" fill="#A7A9A8"/>
<path d="M909.091 797.873C908.966 797.788 908.838 797.704 908.713 797.619C908.784 797.003 908.842 796.674 908.926 796.674C908.926 796.674 908.926 796.674 908.929 796.674C908.99 796.674 909.054 797.089 909.091 797.873" fill="#A7A9A8"/>
<path d="M1233.42 1021.15C1233.42 1021.15 1343.32 1051.57 1347.73 1053.12C1354.35 1055.45 1353.24 1079.71 1342.94 1079.33C1338.06 1079.15 1258.52 1082.29 1248.47 1081.67C1238.42 1081.03 1208.1 1069.09 1208.1 1069.09L1233.42 1021.15" fill="#F03D5F"/>
<path d="M1116.76 990.807C1116.76 990.807 1012.76 1058.9 1009.04 1061.72C1003.43 1065.95 1009.86 1086.1 1019.56 1082.61C1024.15 1080.96 1111.42 1056.68 1120.8 1053.03C1130.19 1049.38 1155.45 1028.79 1155.45 1028.79L1116.76 990.807Z" fill="#F03D5F"/>
<path d="M1095.22 1036.24C1095.66 1036.06 1093.64 1030.84 1088.88 1026.01C1084.14 1021.14 1078.96 1019.02 1078.79 1019.46C1078.52 1019.94 1083.08 1022.67 1087.56 1027.3C1092.1 1031.88 1094.73 1036.49 1095.22 1036.24" fill="#17282F"/>
<path d="M1104.58 1030.23C1105.06 1030.25 1104.54 1024.28 1100.04 1018.79C1095.6 1013.25 1089.87 1011.51 1089.78 1011.98C1089.54 1012.47 1094.53 1014.82 1098.61 1019.95C1102.78 1025.01 1104.05 1030.37 1104.58 1030.23Z" fill="#17282F"/>
<path d="M1098.42 1017.3C1098.69 1017.16 1097.27 1014.35 1096.06 1009.51C1095.47 1007.1 1094.97 1004.17 1094.84 1000.89C1094.77 999.26 1094.81 997.54 1094.95 995.771C1095.01 994.914 1095.17 994.074 1095.52 993.571C1095.85 993.109 1096.31 992.998 1096.94 993.251C1098.13 993.72 1098.75 995.741 1099.31 997.337C1099.84 999.001 1100.17 1000.67 1100.33 1002.28C1100.65 1005.51 1100.41 1008.47 1100.06 1010.94C1099.33 1015.88 1098.36 1018.87 1098.65 1018.97C1098.84 1019.03 1100.26 1016.19 1101.34 1011.16C1101.87 1008.65 1102.26 1005.57 1102.01 1002.13C1101.89 1000.41 1101.58 998.609 1101.03 996.801C1100.76 995.883 1100.42 995.006 1100.01 994.078C1099.58 993.173 1098.9 992.09 1097.67 991.56C1096.55 990.956 1094.72 991.341 1094.02 992.529C1093.31 993.608 1093.23 994.692 1093.16 995.63C1093.02 997.486 1093.03 999.284 1093.15 1000.99C1093.39 1004.4 1094.04 1007.41 1094.81 1009.87C1096.39 1014.78 1098.24 1017.4 1098.42 1017.3" fill="#17282F"/>
<path d="M1098.21 1016.19C1098.34 1016.46 1100.78 1015.22 1104.97 1014.2C1107.06 1013.7 1109.59 1013.27 1112.41 1013.18C1113.82 1013.16 1115.34 1013.11 1116.69 1013.45C1118.05 1013.77 1119.1 1014.61 1119.17 1015.88C1119.27 1017.18 1118.54 1018.45 1117.42 1019.18C1116.3 1019.95 1114.9 1020.31 1113.55 1020.47C1110.83 1020.79 1108.31 1020.29 1106.24 1019.74C1102.11 1018.55 1099.57 1017.46 1099.46 1017.74C1099.38 1017.92 1101.66 1019.42 1105.86 1020.98C1107.96 1021.71 1110.64 1022.41 1113.73 1022.16C1115.24 1022.02 1116.91 1021.67 1118.43 1020.67C1119.95 1019.72 1121.18 1017.82 1121 1015.73C1120.92 1013.49 1118.78 1011.97 1117.12 1011.7C1115.37 1011.31 1113.81 1011.43 1112.33 1011.49C1109.37 1011.67 1106.74 1012.26 1104.62 1012.95C1100.35 1014.34 1098.1 1016.01 1098.21 1016.19" fill="#17282F"/>
<path d="M1332.88 824.744C1332.88 824.744 1364.08 835.886 1364.21 870.867C1364.47 937.878 1228.82 1011.74 1228.82 1011.74L1048.31 892.138L1037 887.559C1037 887.559 1280.67 796.028 1332.88 824.744" fill="#17282F"/>
<path d="M1139.75 952.547C1139.82 952.651 1141.49 951.511 1144.45 949.357C1147.41 947.215 1151.63 944.033 1156.8 940.034C1167.13 932.048 1181.19 920.727 1196.32 907.742C1211.45 894.747 1224.77 882.559 1234.22 873.553C1238.95 869.048 1242.74 865.357 1245.31 862.759C1247.88 860.164 1249.26 858.686 1249.17 858.594C1249.08 858.5 1247.54 859.807 1244.82 862.242C1241.87 864.905 1238 868.39 1233.34 872.597C1223.67 881.355 1210.23 893.371 1195.12 906.349C1180.02 919.312 1166.11 930.775 1155.99 939.018C1151.12 942.987 1147.09 946.281 1144.01 948.794C1141.2 951.113 1139.67 952.446 1139.75 952.547" fill="#33535F"/>
<path d="M1281.93 849.79C1281.99 849.342 1273.94 848.555 1264.53 851.37C1255.1 854.113 1248.77 859.151 1249.06 859.488C1249.36 859.967 1255.94 855.776 1265.05 853.134C1274.13 850.408 1281.94 850.354 1281.93 849.79" fill="#33535F"/>
<path d="M1266.38 839.229C1266.22 838.793 1260.43 841.338 1255.67 847.28C1250.87 853.179 1249.6 859.37 1250.06 859.437C1250.59 859.616 1252.56 853.994 1257.1 848.434C1261.58 842.818 1266.66 839.705 1266.38 839.229" fill="#33535F"/>
<path d="M1291.37 715.272L1227.08 878.246L950.252 882.758L945.126 867.78L1042.14 864.26L1088.77 719.686L1291.37 715.272" fill="#33535F"/>
<path d="M1162.09 785.826C1165.64 783.417 1172.21 784.381 1175.4 787.247C1178.6 790.111 1179.63 795.069 1178.01 799.04C1176.38 803.011 1172.29 805.795 1168.01 806.025C1163.45 806.271 1158.71 803.42 1157.43 799.044C1156.16 794.667 1157.58 788.134 1162.09 785.826Z" fill="#E7E8E5"/>
<path d="M1245.91 1019.88C1245.91 1019.88 990.872 852.591 980.429 849.113C969.985 845.63 944.748 829.096 919.511 836.057C894.275 843.019 871.65 865.647 860.332 898.715C853.87 917.608 850.816 949.844 849.386 974.02C847.672 1002.92 856.624 1031.74 875.527 1053.67C884.131 1063.65 894.744 1072.33 907.327 1076.25C909.982 1077.08 912.739 1077.79 915.57 1078.4C963.79 1088.86 1013.35 1067.21 1040.43 1025.98L1046.39 1016.92C1046.39 1016.92 1213.22 1078.21 1215.84 1077.34L1245.91 1019.88" fill="#17282F"/>
<path d="M930.388 973.835C930.388 973.835 930.85 974.072 931.785 974.452C932.794 974.854 934.181 975.404 935.959 976.109C939.725 977.557 945.154 979.648 952.129 982.335C966.315 987.677 986.78 995.39 1012.22 1004.97C1037.74 1014.5 1068.32 1025.82 1102.62 1038.3C1136.93 1050.77 1174.95 1064.46 1215.55 1078.21L1216.28 1078.46L1216.64 1077.77C1223.02 1065.59 1229.75 1052.75 1236.57 1039.71C1240.05 1033.06 1243.5 1026.47 1246.73 1020.31L1247.12 1019.56L1246.41 1019.11C1169.83 970.498 1101.31 927.002 1051.87 895.614C1027.18 880.042 1007.26 867.472 993.431 858.753C986.584 854.481 981.253 851.15 977.558 848.849C975.79 847.765 974.413 846.926 973.418 846.315C972.48 845.755 971.973 845.505 971.973 845.505C971.973 845.505 972.412 845.855 973.32 846.47C974.295 847.112 975.638 848.005 977.369 849.153C981.023 851.522 986.294 854.94 993.063 859.337C1006.81 868.171 1026.63 880.902 1051.19 896.68C1100.56 928.189 1168.96 971.848 1245.41 1020.65L1245.1 1019.46C1241.88 1025.62 1238.42 1032.21 1234.94 1038.86C1228.12 1051.9 1221.4 1064.74 1215.03 1076.92L1216.13 1076.48C1175.54 1062.77 1137.51 1049.14 1103.17 1036.77C1068.89 1024.29 1038.27 1013.15 1012.64 1003.83C987.121 994.462 966.591 986.934 952.365 981.714C945.34 979.157 939.873 977.165 936.08 975.789C934.272 975.151 932.868 974.651 931.849 974.29C930.891 973.959 930.388 973.835 930.388 973.835" fill="#33535F"/>
<path d="M956.855 379.771C961.201 368.011 970.811 362.906 983 359.96C995.181 357.011 1008.74 360.5 1017.97 368.97C1024.16 374.632 1028.69 382.457 1036.32 385.919C1048.89 391.618 1065.01 383.29 1076.92 390.255C1083.98 394.378 1087.44 403.762 1084.75 411.483C1082.07 419.2 1073.53 424.407 1065.44 423.259C1073.63 427.13 1075.16 439.46 1069.52 446.549C1063.88 453.639 1053.45 455.559 1044.73 453.092C1036.02 450.625 1028.78 444.538 1022.62 437.897C1016.46 431.25 1011.07 423.877 1004.4 417.746C997.732 411.611 989.414 406.671 980.364 406.334C968.105 405.875 956.798 414.115 950.363 424.559C943.931 434.995 941.529 447.376 939.734 459.51C937.942 471.641 936.592 484.021 931.912 495.356C931.362 496.689 930.579 498.163 929.169 498.457C927.13 498.885 925.642 496.628 924.826 494.718C915.607 473.112 910.687 449.687 910.438 426.199C910.292 412.559 911.821 399.794 920.291 389.101C928.764 378.408 948.301 371.747 956.855 379.771" fill="#17282F"/>
<path d="M928.096 434.206L909.351 570.452C906.159 593.62 923.007 614.744 946.307 616.782C968.052 618.688 987.461 603.166 990.413 581.54C991.817 571.285 993.005 562.735 993.217 561.689C993.217 561.689 1028.35 563.197 1035.58 529.214C1039.07 512.791 1043.51 478.379 1047.17 447.204C1051.09 413.72 1028.6 382.841 995.549 376.238L992.259 375.58C956.403 370.569 932.115 398.222 928.096 434.206" fill="#F8A58D"/>
<path d="M993.373 561.209C993.373 561.209 971.494 558.658 951.48 539.711C951.48 539.711 957.078 566.325 991.689 570.053L993.373 561.209" fill="#F68260"/>
<path d="M1032.68 468.037C1032.26 470.625 1029.72 472.4 1027.01 472.008C1024.31 471.617 1022.45 469.208 1022.87 466.62C1023.3 464.035 1025.83 462.253 1028.54 462.645C1031.25 463.036 1033.11 465.452 1032.68 468.037Z" fill="#17282F"/>
<path d="M1036.51 462.459C1035.78 462.972 1032.64 459.51 1027.4 458.474C1022.18 457.371 1017.8 459.294 1017.36 458.542C1017.14 458.201 1017.98 457.182 1019.9 456.298C1021.79 455.41 1024.83 454.796 1028.09 455.461C1031.35 456.129 1033.85 457.88 1035.18 459.423C1036.55 460.982 1036.86 462.237 1036.51 462.459" fill="#17282F"/>
<path d="M980.982 459.557C980.56 462.142 978.019 463.92 975.31 463.526C972.607 463.134 970.748 460.725 971.173 458.14C971.595 455.552 974.136 453.774 976.842 454.165C979.548 454.553 981.404 456.969 980.982 459.557Z" fill="#17282F"/>
<path d="M984.852 453.153C984.123 453.669 980.975 450.204 975.741 449.171C970.524 448.064 966.145 449.991 965.703 449.235C965.48 448.894 966.317 447.875 968.243 446.991C970.13 446.107 973.177 445.49 976.433 446.154C979.689 446.822 982.196 448.574 983.526 450.116C984.882 451.671 985.203 452.93 984.852 453.153Z" fill="#17282F"/>
<path d="M996.096 495.777C996.13 495.474 999.494 495.562 1004.9 495.943C1006.27 496.071 1007.59 496.058 1007.99 495.19C1008.5 494.289 1008.23 492.734 1007.9 491.05C1007.28 487.561 1006.65 483.907 1005.97 480.08C1003.38 464.491 1001.79 451.776 1002.42 451.678C1003.04 451.577 1005.66 464.136 1008.25 479.726C1008.86 483.566 1009.45 487.224 1010 490.723C1010.19 492.342 1010.72 494.242 1009.64 496.112C1009.08 497.036 1007.95 497.566 1007.05 497.623C1006.14 497.714 1005.39 497.579 1004.71 497.488C999.349 496.709 996.056 496.078 996.096 495.777Z" fill="#17282F"/>
<path d="M979.962 496.318C980.823 496.439 979.699 502.125 983.755 507.129C987.804 512.147 993.99 512.721 993.875 513.524C993.882 513.895 992.306 514.357 989.735 513.915C987.211 513.5 983.708 511.961 981.224 508.901C978.751 505.833 978.134 502.28 978.407 499.911C978.667 497.489 979.581 496.21 979.962 496.318Z" fill="#17282F"/>
<path d="M990.305 432.907C989.502 434.226 984.41 432.509 978.117 432.02C971.838 431.409 966.526 432.215 965.966 430.778C965.727 430.093 966.857 428.925 969.135 427.947C971.392 426.968 974.824 426.293 978.593 426.621C982.359 426.958 985.618 428.217 987.677 429.573C989.749 430.93 990.66 432.276 990.305 432.907" fill="#17282F"/>
<path d="M1037.61 446.924C1036.45 447.926 1033.09 445.972 1028.77 445.047C1024.48 443.971 1020.6 444.248 1020 442.837C1019.75 442.156 1020.57 441.079 1022.4 440.276C1024.2 439.47 1027.03 439.082 1029.99 439.767C1032.95 440.455 1035.32 442.051 1036.59 443.569C1037.87 445.098 1038.13 446.424 1037.61 446.924" fill="#17282F"/>
<path d="M925.835 459.989C925.305 459.621 903.814 448.388 899.903 471.826C895.996 495.268 920.332 494.357 920.483 493.692C920.635 493.027 925.835 459.989 925.835 459.989" fill="#F8A58D"/>
<path d="M914.808 483.619C914.713 483.525 914.349 483.835 913.606 484.038C912.881 484.23 911.69 484.25 910.546 483.589C908.221 482.266 906.79 477.991 907.384 473.746C907.678 471.603 908.464 469.646 909.5 468.091C910.498 466.491 911.811 465.482 913.093 465.469C914.382 465.388 915.138 466.282 915.317 466.991C915.523 467.696 915.293 468.141 915.411 468.199C915.469 468.269 915.978 467.891 915.955 466.889C915.935 466.41 915.752 465.81 915.273 465.27C914.791 464.716 914.004 464.348 913.117 464.294C911.291 464.119 909.385 465.509 908.244 467.217C907.006 468.917 906.075 471.107 905.741 473.513C905.103 478.264 906.783 483.086 910.009 484.632C911.588 485.337 913.043 485.067 913.849 484.632C914.669 484.176 914.878 483.673 914.808 483.619" fill="#F68260"/>
<path d="M1055.79 441.572C1039.99 442.564 1023.89 435.397 1014.05 422.99C1007.17 414.304 1002.79 402.926 993.045 397.655C986.486 394.109 978.414 394.065 971.308 396.322C964.198 398.579 957.929 402.946 952.317 407.859C955.442 426.492 947.158 444.933 939.083 462.011C938.192 463.897 937.173 465.918 935.3 466.843C932.122 468.412 928.329 465.928 926.426 462.938C923.385 458.147 923.028 452.161 923.146 446.489C923.399 433.565 925.67 420.567 930.917 408.753C936.164 396.94 944.505 386.337 955.422 379.41C969.061 370.751 986.246 368.281 1002.04 371.693C1017.83 375.101 1032.17 384.147 1042.91 396.221C1047.89 401.822 1052.22 408.257 1053.92 415.559" fill="#17282F"/>
<path d="M111.44 991.24C111.41 991.223 111.61 990.744 112.032 989.816C112.502 988.807 113.138 987.461 113.943 985.739C115.568 982.14 117.68 976.683 119.562 969.421C123.279 954.911 124.575 932.738 119.082 906.403C116.53 893.215 112.415 879.073 107.393 864.074C102.446 849.052 96.7008 833.115 92.0084 815.882C87.3673 798.692 83.7041 780.034 84.4094 760.471C85.1227 740.874 90.9249 721.312 97.3058 701.836C103.674 682.332 110.259 663.27 112.233 644.09C114.466 624.948 110.366 606.159 101.645 590.759C93.1999 575.2 82.5747 561.891 74.62 548.104C66.5425 534.367 61.4901 520.235 58.3769 507.095C52.3412 480.603 54.4556 458.279 57.3474 443.566C60.4819 428.777 63.9777 421.13 63.9777 421.13C64.0077 421.144 63.8761 421.647 63.5836 422.619C63.2512 423.685 62.8085 425.109 62.2416 426.921C61.0724 430.7 59.558 436.345 58.1212 443.715C55.4797 458.397 53.612 480.566 59.7688 506.768C62.9455 519.763 68.0188 533.705 76.0673 547.257C84.0021 560.879 94.6748 574.133 103.287 589.878C112.191 605.444 116.474 624.847 114.205 644.293C112.22 663.793 105.583 682.983 99.2315 702.463C92.8506 721.923 87.1169 741.278 86.3918 760.549C85.6683 779.81 89.2404 798.288 93.8076 815.395C98.4237 832.541 104.102 848.485 108.988 863.549C113.949 878.591 118.01 892.851 120.486 906.129C125.836 932.661 124.31 955.057 120.325 969.618C118.311 976.905 116.064 982.348 114.312 985.912C113.427 987.599 112.732 988.925 112.215 989.91C111.732 990.807 111.47 991.257 111.44 991.24" fill="#17282F"/>
<path d="M85.4204 561.702C85.4204 561.702 69.2724 510.065 98.2419 479.827C99.2579 478.768 101.049 479.267 101.31 480.715C102.858 489.242 104.79 515.221 85.4204 561.702Z" fill="#F03D5F"/>
<path d="M95.0985 497.036C95.3715 497.09 94.9089 500.725 94.0086 506.562C92.9474 513.125 91.7019 520.829 90.3245 529.339C88.9734 537.853 87.7515 545.553 86.7102 552.113C85.8258 557.947 85.2957 561.564 84.9991 561.54C84.7396 561.52 84.7659 557.849 85.2893 551.944C85.8231 546.042 86.8644 537.923 88.3275 529.015C89.7839 520.103 91.3381 512.079 92.6022 506.299C93.8648 500.519 94.8232 496.979 95.0985 497.036Z" fill="#17282F"/>
<path d="M104.392 683.499C104.392 683.499 114.267 630.299 154.012 617.122C155.408 616.66 156.755 617.942 156.311 619.343C153.691 627.603 143.251 651.47 104.392 683.499Z" fill="#F03D5F"/>
<path d="M143.187 630.859C143.403 631.038 141.296 634.035 137.77 638.776C133.763 644.077 129.06 650.306 123.862 657.183C118.688 664.076 114.003 670.312 110.016 675.624C106.507 680.364 104.347 683.314 104.096 683.155C103.873 683.017 105.617 679.781 108.841 674.807C112.072 669.843 116.788 663.155 122.248 655.961C127.703 648.767 132.83 642.403 136.65 637.885C140.468 633.363 142.97 630.684 143.187 630.859" fill="#17282F"/>
<path d="M93.6503 816.955C93.6503 816.955 87.6518 763.181 121.855 739.027C123.056 738.18 124.718 739.014 124.698 740.485C124.59 749.15 121.532 775.018 93.6503 816.955Z" fill="#F03D5F"/>
<path d="M115.486 755.319C115.747 755.423 114.6 758.903 112.603 764.464C110.307 770.702 107.615 778.028 104.639 786.12C101.689 794.215 99.0198 801.545 96.7462 807.787C94.7638 813.341 93.5551 816.793 93.2689 816.712C93.0172 816.645 93.7434 813.04 95.3847 807.344C97.0334 801.656 99.6039 793.888 102.741 785.418C105.87 776.949 108.927 769.37 111.27 763.94C113.611 758.505 115.229 755.215 115.486 755.319" fill="#17282F"/>
<path d="M123.59 951.189C123.59 951.189 119.52 897.238 154.567 874.325C155.798 873.518 157.427 874.413 157.358 875.884C156.938 884.536 152.956 910.279 123.59 951.189Z" fill="#F03D5F"/>
<path d="M147.619 890.374C147.872 890.491 146.603 893.924 144.408 899.41C141.892 905.565 138.938 912.786 135.676 920.766C132.437 928.754 129.507 935.981 127.011 942.136C124.832 947.62 123.499 951.024 123.216 950.936C122.968 950.856 123.822 947.282 125.666 941.65C127.519 936.022 130.365 928.349 133.804 920C137.234 911.648 140.561 904.185 143.097 898.837C145.63 893.492 147.364 890.26 147.619 890.374Z" fill="#17282F"/>
<path d="M62.2143 516.334C62.2143 516.334 14.2551 491.286 13.314 449.428C13.281 447.953 14.901 447.045 16.111 447.879C23.2393 452.809 42.9911 469.788 62.2143 516.334Z" fill="#F03D5F"/>
<path d="M23.2719 463.802C23.5052 463.651 25.7487 466.542 29.2482 471.304C33.1432 476.692 37.7157 483.016 42.7667 490.001C47.8386 496.972 52.4271 503.279 56.3379 508.647C59.8402 513.395 62.0241 516.324 61.799 516.516C61.6013 516.685 59.0189 514.073 55.2096 509.532C51.4107 504.986 46.4007 498.518 41.1257 491.185C35.8493 483.86 31.2689 477.094 28.0685 472.113C24.8668 467.14 23.0399 463.961 23.2719 463.802" fill="#17282F"/>
<path d="M113.715 627.235C113.715 627.235 64.3218 605.147 60.8408 563.42C60.718 561.955 62.2786 560.946 63.5376 561.705C70.952 566.193 91.6989 581.941 113.715 627.235Z" fill="#F03D5F"/>
<path d="M71.6535 577.171C71.8762 576.999 74.2936 579.752 78.0739 584.291C82.2891 589.433 87.2373 595.466 92.7034 602.134C98.1894 608.782 103.152 614.795 107.379 619.92C111.163 624.445 113.523 627.236 113.311 627.445C113.124 627.624 110.386 625.174 106.31 620.872C102.243 616.566 96.8464 610.411 91.1377 603.413C85.4249 596.421 80.4413 589.946 76.9455 585.171C73.45 580.4 71.4318 577.34 71.6535 577.171" fill="#17282F"/>
<path d="M85.2925 750.939C85.2925 750.939 51.3803 708.78 67.287 670.049C67.8458 668.686 69.6966 668.5 70.469 669.752C75.0257 677.122 86.323 700.59 85.2925 750.939" fill="#F03D5F"/>
<path d="M70.6522 687.211C70.9262 687.164 71.8238 690.714 73.1222 696.477C74.5354 702.973 76.1922 710.599 78.0231 719.025C79.8763 727.44 81.5554 735.056 82.9858 741.545C84.2957 747.294 85.1238 750.855 84.839 750.943C84.5896 751.021 83.2703 747.588 81.6003 741.899C79.9394 736.217 77.9388 728.281 76.0444 719.45C74.1426 710.626 72.6542 702.588 71.7172 696.751C70.7787 690.906 70.3765 687.262 70.6522 687.211" fill="#17282F"/>
<path d="M118.886 896.516C118.886 896.516 69.8709 873.6 67.0938 831.819C66.9949 830.351 68.5728 829.369 69.8182 830.152C77.1561 834.761 97.6357 850.86 118.886 896.516Z" fill="#F03D5F"/>
<path d="M77.6721 845.749C77.8975 845.583 80.2676 848.373 83.9727 852.976C88.0998 858.187 92.9464 864.304 98.3005 871.063C103.673 877.801 108.534 883.899 112.676 889.095C116.384 893.68 118.697 896.512 118.481 896.715C118.29 896.893 115.594 894.396 111.59 890.027C107.593 885.653 102.304 879.408 96.7135 872.318C91.1182 865.232 86.2439 858.672 82.8301 853.84C79.4136 849.011 77.448 845.914 77.6721 845.749" fill="#17282F"/>
<path d="M216.515 683.79C216.561 683.793 216.581 684.198 216.576 684.977C216.552 685.922 216.524 687.059 216.49 688.439C216.346 691.692 216.151 696.079 215.91 701.555C215.277 713.089 214.398 729.175 213.344 748.408L213.341 748.456L213.331 748.52C209.83 768.098 199.861 789.798 186.465 810.867C176.64 826.389 166.343 840.497 157.46 853.62C148.521 866.709 140.974 878.831 135.713 889.568C130.419 900.294 127.34 909.507 125.541 915.948C124.679 919.18 124.032 921.702 123.659 923.426C123.255 925.144 123.01 926.044 122.942 926.031C122.873 926.017 122.984 925.096 123.259 923.348C123.503 921.59 124.027 919.035 124.778 915.749C126.353 909.213 129.251 899.842 134.426 888.947C139.565 878.034 147.041 865.751 155.915 852.578C164.736 839.36 174.98 825.232 184.753 809.791C198.076 788.826 207.995 767.456 211.624 748.192L211.61 748.3C212.963 729.083 214.091 713.018 214.899 701.495C215.343 696.028 215.698 691.648 215.96 688.406C216.099 687.032 216.212 685.902 216.305 684.96C216.398 684.184 216.469 683.786 216.515 683.79" fill="#17282F"/>
<path d="M187.329 806.842C187.329 806.842 208.087 756.874 181.977 724.143C181.059 722.993 179.231 723.33 178.84 724.744C176.526 733.099 172.249 758.791 187.329 806.842" fill="#F03D5F"/>
<path d="M183.55 741.562C183.828 741.532 184.463 745.142 185.196 751.016C185.93 756.885 186.752 765.018 187.396 774.02C188.047 783.029 188.349 791.206 188.346 797.131C188.334 803.055 188.027 806.717 187.765 806.713C187.468 806.71 187.268 803.063 186.915 797.174C186.472 790.544 185.952 782.766 185.378 774.165C184.777 765.563 184.232 757.778 183.77 751.148C183.402 745.253 183.273 741.592 183.55 741.562" fill="#17282F"/>
<path d="M176.458 806.842H195.161V723.448H176.458V806.842Z" fill="#BA2C42"/>
<path d="M187.582 806.207C187.373 805.013 187.191 801.781 186.915 797.174C186.472 790.544 185.952 782.766 185.378 774.165C184.777 765.563 184.232 757.778 183.77 751.148C183.402 745.253 183.273 741.592 183.55 741.562C183.551 741.562 183.552 741.562 183.552 741.562C183.833 741.562 184.467 745.166 185.196 751.017C185.93 756.885 186.752 765.018 187.396 774.02C188.047 783.029 188.349 791.206 188.346 797.131C188.338 800.533 188.235 803.187 188.098 804.831C187.887 805.411 187.712 805.874 187.582 806.207" fill="#0F191D"/>
<path d="M123.037 927.249C123.037 927.249 139.675 875.763 110.994 845.252C109.987 844.183 108.194 844.668 107.917 846.113C106.289 854.626 104.109 880.578 123.037 927.249" fill="#F03D5F"/>
<path d="M113.975 862.491C114.25 862.437 115.175 865.987 116.381 871.781C117.589 877.567 119.069 885.605 120.44 894.53C121.819 903.452 122.783 911.585 123.26 917.49C123.729 923.398 123.72 927.07 123.458 927.086C123.163 927.107 122.667 923.486 121.838 917.644C120.86 911.075 119.71 903.361 118.44 894.837C117.144 886.314 115.971 878.597 114.971 872.027C114.127 866.179 113.699 862.542 113.975 862.491" fill="#17282F"/>
<path d="M123.037 927.249C109.801 894.615 106.887 872.112 106.887 858.617C106.887 852.811 107.426 848.674 107.916 846.113C108.091 845.204 108.867 844.675 109.67 844.675C110.141 844.675 110.621 844.858 110.994 845.252C124.27 859.377 127.836 877.994 127.836 893.918C127.836 908.305 124.927 920.497 123.637 925.187C123.642 923.537 123.529 920.881 123.261 917.491C122.783 911.585 121.819 903.453 120.44 894.531C119.069 885.606 117.589 877.568 116.381 871.781C115.184 866.028 114.263 862.491 113.98 862.491C113.978 862.491 113.976 862.491 113.975 862.491C113.699 862.543 114.128 866.179 114.971 872.028C115.971 878.597 117.145 886.315 118.44 894.838C119.71 903.362 120.86 911.075 121.838 917.645C122.487 922.215 122.931 925.427 123.236 926.597C123.109 927.026 123.037 927.249 123.037 927.249" fill="#BA2C42"/>
<path d="M123.236 926.597C122.931 925.427 122.487 922.215 121.838 917.645C120.86 911.075 119.71 903.362 118.44 894.838C117.144 886.315 115.971 878.597 114.971 872.028C114.127 866.179 113.699 862.543 113.975 862.492C113.976 862.492 113.978 862.492 113.98 862.492C114.263 862.492 115.184 866.028 116.381 871.781C117.589 877.568 119.069 885.606 120.44 894.531C121.819 903.453 122.783 911.586 123.26 917.491C123.529 920.881 123.641 923.537 123.637 925.187C123.474 925.781 123.337 926.254 123.236 926.597" fill="#0F191D"/>
<path d="M213.767 745.78C213.767 745.78 258.091 714.749 253.619 673.117C253.462 671.652 251.736 670.957 250.647 671.942C244.213 677.753 226.818 697.139 213.767 745.78" fill="#F03D5F"/>
<path d="M213.767 745.78C226.818 697.139 244.213 677.753 250.647 671.942C250.996 671.625 251.411 671.483 251.82 671.483C252.683 671.483 253.512 672.121 253.619 673.117C253.832 675.107 253.935 677.075 253.935 679.018C253.951 717.648 213.767 745.78 213.767 745.78Z" fill="#BA2C42"/>
<path d="M245.599 688.659C245.849 688.783 244.447 692.175 241.916 697.52C239.387 702.868 235.717 710.17 231.429 718.117C227.147 726.067 223.014 733.129 219.832 738.127C216.643 743.124 214.419 746.05 214.2 745.905C213.953 745.742 215.74 742.557 218.603 737.394C221.785 731.567 225.52 724.72 229.65 717.152C233.757 709.573 237.474 702.713 240.643 696.868C243.496 691.696 245.349 688.537 245.599 688.659" fill="#17282F"/>
<path d="M140.909 876.205C140.909 876.205 194.37 867.87 208.69 828.522C209.193 827.142 207.95 825.758 206.537 826.163C198.204 828.542 174.049 838.287 140.909 876.205" fill="#F03D5F"/>
<path d="M140.909 876.205C174.049 838.287 198.204 828.542 206.537 826.163C206.707 826.115 206.876 826.092 207.038 826.092C208.016 826.092 208.805 826.92 208.805 827.887C208.805 828.097 208.767 828.309 208.69 828.522C196.157 862.96 153.644 873.64 143.227 875.772C142.17 875.989 141.444 876.118 141.113 876.171C140.977 876.194 140.909 876.205 140.909 876.205" fill="#BA2C42"/>
<path d="M194.644 838.948C194.814 839.171 192.062 841.594 187.434 845.282C182.809 848.97 176.297 853.91 168.948 859.154C161.603 864.405 154.782 868.923 149.724 872.01C144.66 875.091 141.377 876.738 141.242 876.512C141.092 876.259 144.101 874.187 148.942 870.816C154.368 866.979 160.736 862.478 167.774 857.504C174.799 852.51 181.162 847.988 186.577 844.135C191.42 840.744 194.475 838.73 194.644 838.948Z" fill="#17282F"/>
<path d="M89.9093 974.591L74.3147 1079.55H171.499L158.899 974.591H89.9093Z" fill="#33535F"/>
<path d="M162.784 1007.11C162.784 1007.67 145.237 1008.12 123.597 1008.12C101.949 1008.12 84.4055 1007.67 84.4055 1007.11C84.4055 1006.56 101.949 1006.1 123.597 1006.1C145.237 1006.1 162.784 1006.56 162.784 1007.11Z" fill="#17282F"/>
<path d="M164.711 1015.47C164.711 1016.02 146.589 1016.48 124.239 1016.48C101.883 1016.48 83.7644 1016.02 83.7644 1015.47C83.7644 1014.91 101.883 1014.46 124.239 1014.46C146.589 1014.46 164.711 1014.91 164.711 1015.47Z" fill="#17282F"/>
</g>
<defs>
<clipPath id="clip0">
<rect width="1444.62" height="1027.29" fill="white" transform="translate(-331.521 -7.02246)"/>
</clipPath>
</defs>
</svg>
