<svg width="606" height="1029" viewBox="0 0 606 1029" fill="none" xmlns="http://www.w3.org/2000/svg">
<mask id="mask0" style="mask-type:alpha" maskUnits="userSpaceOnUse" x="5" y="3" width="601" height="1026">
<path d="M101.103 467.289C130.832 368.367 145.716 269.44 108.64 170.492C88.3314 116.291 49.1901 57.7055 16 3.49979L605.5 3.49979L605.5 1028L21.7274 1028L19.2416 1011.39C11.838 961.921 -2.96927 862.982 11.9146 764.055C26.7984 665.127 71.3735 566.211 101.103 467.289Z" fill="#536372"/>
</mask>
<g mask="url(#mask0)">
<path fill-rule="evenodd" clip-rule="evenodd" d="M-22.9151 -430L-37.8271 -380.3C-52.739 -330.6 -82.5629 -231.2 -52.739 -131.8C-22.9151 -32.4002 66.5565 66.9998 103.836 166.4C141.116 265.8 126.204 365.2 96.3805 464.6C66.5565 564 21.8207 663.4 6.90876 762.8C-8.00319 862.2 6.90871 961.6 14.3647 1011.3L21.8207 1061L833.5 1061L833.5 1011.3C833.5 961.6 833.5 862.2 833.5 762.8C833.5 663.4 833.5 564 833.5 464.6C833.5 365.2 833.5 265.8 833.5 166.4C833.5 66.9998 833.5 -32.4001 833.5 -131.8C833.5 -231.2 833.5 -330.6 833.5 -380.3L833.5 -430L-22.9151 -430Z" fill="#0099FF"/>
<rect x="-222" y="-129" width="1163" height="1533" fill="#E4A3A3"/>
<mask id="mask1" style="mask-type:alpha" maskUnits="userSpaceOnUse" x="-161" y="-526" width="946" height="1569">
<path fill-rule="evenodd" clip-rule="evenodd" d="M-116.189 -526L-131.88 -473.702C-147.572 -421.403 -178.955 -316.807 -147.572 -212.21C-116.189 -107.613 -22.0394 -3.01681 17.1894 101.58C56.4183 206.176 40.7268 310.773 9.34371 415.37C-22.0394 519.966 -69.114 624.563 -84.8056 729.16C-100.497 833.756 -84.8056 938.353 -76.9599 990.651L-69.1141 1042.95L785 1042.95L785 990.651C785 938.353 785 833.756 785 729.16C785 624.563 785 519.966 785 415.37C785 310.773 785 206.177 785 101.58C785 -3.01678 785 -107.613 785 -212.21C785 -316.807 785 -421.403 785 -473.702L785 -526L-116.189 -526Z" fill="#0099FF"/>
</mask>
<g mask="url(#mask1)">
<rect width="1440" height="1024" transform="translate(-802 -1)" fill="white"/>
<rect width="1440" height="1024" transform="translate(-802 -1)" fill="white"/>
<rect x="-802" y="-1" width="1440" height="1024" fill="#E4A3A3"/>
<path d="M-428.118 304.052H228.767V-187.79H-428.118V304.052Z" fill="#DADBD8"/>
<path d="M-405.156 283.841H208.264V-164.921H-405.156V283.841Z" fill="#FAFAF9"/>
<path d="M-121.15 -72.0398L-111.793 145.242L159.454 148.515L147.278 -69.1706L-121.15 -72.0398Z" fill="#E7E8E5"/>
<path d="M145.148 129.857H-124.293V-73.5971H145.148V129.857Z" fill="#F3F2F1"/>
<path d="M145.149 129.861C145.149 129.861 145.095 128.549 145.068 126.087C145.045 123.568 145.018 119.945 144.981 115.229C144.934 105.69 144.87 91.7923 144.786 74.0597C144.688 38.5843 144.554 -12.1818 144.389 -73.5968L145.149 -72.8367C68.9779 -72.7896 -24.0007 -72.7324 -124.27 -72.6718H-124.293L-123.367 -73.5968C-123.4 -0.426161 -123.431 68.8596 -123.459 129.858L-124.293 129.023C-44.5688 129.195 22.6786 129.34 70.061 129.44C93.7572 129.535 112.472 129.612 125.338 129.663C131.718 129.706 136.636 129.74 140.03 129.763C141.664 129.784 142.919 129.8 143.83 129.81C144.688 129.827 145.149 129.861 145.149 129.861C145.149 129.861 144.752 129.891 143.928 129.908C143.04 129.922 141.812 129.935 140.218 129.955C136.864 129.979 132.001 130.012 125.691 130.056C112.869 130.11 94.218 130.184 70.6059 130.278C23.0923 130.382 -44.3468 130.524 -124.293 130.695H-125.129V129.858C-125.156 68.8596 -125.188 -0.426161 -125.219 -73.5968L-125.221 -74.5252H-124.293H-124.27C-24.0007 -74.4613 68.9779 -74.4041 145.149 -74.357H145.912V-73.5968C145.744 -11.9833 145.61 38.9475 145.515 74.5373C145.431 92.1959 145.364 106.034 145.32 115.536C145.283 120.187 145.253 123.763 145.233 126.248C145.206 128.66 145.149 129.861 145.149 129.861" fill="#DADBD8"/>
<path d="M17.435 106.968H-91.7896V-30.4968H17.435V106.968Z" fill="#F3F2F1"/>
<path d="M17.4343 106.969C17.4209 106.952 17.404 106.72 17.3872 106.276C17.3738 105.754 17.3603 105.115 17.3401 104.318C17.3166 102.509 17.2829 100.003 17.2426 96.8005C17.1888 90.1609 17.1148 80.632 17.0206 68.6006C16.9197 44.4032 16.775 10.1622 16.6069 -30.493L17.4343 -29.6656C-15.1148 -29.6353 -52.3661 -29.605 -91.7768 -29.568C-91.9988 -29.3729 -90.0345 -31.307 -90.8653 -30.4694V-30.4358V-30.3584V-30.2071V-29.9111V-29.3158V-28.1217V-25.7436V-21.0044C-90.8653 -17.8494 -90.8653 -14.7146 -90.8653 -11.5932C-90.8686 -5.35048 -90.872 0.828388 -90.8754 6.92987C-90.8855 19.1362 -90.8956 31.0499 -90.9057 42.6003C-90.946 65.6877 -90.9864 87.3254 -91.02 106.969L-91.7902 106.198C-59.0225 106.367 -31.8282 106.501 -12.7098 106.599C-3.2246 106.683 4.25256 106.75 9.47952 106.797C11.9753 106.834 13.9295 106.864 15.3624 106.884C16.7011 106.911 17.4343 106.969 17.4343 106.969C17.4646 106.999 16.8154 107.026 15.5272 107.053C14.1279 107.076 12.2242 107.103 9.7923 107.14C4.60571 107.187 -2.81426 107.254 -12.2255 107.339C-31.4616 107.433 -58.8207 107.571 -91.7902 107.739L-92.5571 107.742L-92.5605 106.969C-92.5941 87.3254 -92.6345 65.6877 -92.6749 42.6003C-92.6849 31.0499 -92.6951 19.1362 -92.7052 6.92987C-92.7085 0.828388 -92.7118 -5.35048 -92.7152 -11.5932C-92.7152 -14.7146 -92.7152 -17.8494 -92.7152 -21.0044V-25.7436L-92.7186 -28.1217V-29.3158V-29.9111V-30.2071V-30.3584V-30.4358V-30.4694C-93.5426 -29.6521 -91.5952 -31.6299 -91.7768 -31.4213C-52.3661 -31.3877 -15.1148 -31.3541 17.4343 -31.3238H18.2685L18.2651 -30.493C18.0969 10.3842 17.9523 44.8102 17.848 69.1387C17.7572 81.0894 17.6832 90.5544 17.6294 97.1504C17.589 100.285 17.5554 102.734 17.5318 104.506C17.5117 105.267 17.4948 105.875 17.4847 106.37C17.4679 106.784 17.4511 106.985 17.4343 106.969" fill="#DADBD8"/>
<path d="M121.719 52.3508H30.8086V-30.4968H121.719V52.3508Z" fill="#F3F2F1"/>
<path d="M121.722 52.3512C121.691 52.3243 121.661 51.7794 121.631 50.7501C121.611 49.6032 121.58 48.1199 121.543 46.2531C121.493 42.2034 121.422 36.5257 121.338 29.368C121.237 14.7904 121.099 -5.79116 120.931 -30.4931L121.718 -29.706C95.4624 -29.6656 64.2419 -29.6185 30.8149 -29.5681C30.603 -29.3696 32.5606 -31.3171 31.7332 -30.483V-30.4594V-30.4157V-30.3249V-30.1534V-29.7968V-29.0904V-27.6777V-24.8659C31.7332 -22.9957 31.7332 -21.1323 31.7332 -19.2756C31.7298 -15.5622 31.7298 -11.8859 31.7265 -8.24314C31.7197 -0.957688 31.713 6.17633 31.7063 13.1288C31.676 27.027 31.6457 40.1953 31.6222 52.3512L30.8082 51.5406C57.7705 51.7088 80.36 51.8534 96.3874 51.9509C104.272 52.0418 110.534 52.1157 114.988 52.1662C117.053 52.2065 118.694 52.2368 119.952 52.2604C121.086 52.2906 121.688 52.3243 121.722 52.3512C121.752 52.3848 121.21 52.4151 120.134 52.4454C118.916 52.4723 117.325 52.5026 115.327 52.5429C110.918 52.5934 104.716 52.664 96.9054 52.7548C80.757 52.8557 57.9857 52.997 30.8082 53.1651L29.9976 53.1719L29.9942 52.3512C29.9673 40.1953 29.9404 27.027 29.9102 13.1288C29.9034 6.17633 29.8967 -0.957688 29.89 -8.24314C29.89 -11.8859 29.8866 -15.5622 29.8833 -19.2756C29.8833 -21.1323 29.8833 -22.9957 29.8833 -24.8659V-27.6777V-29.0904V-29.7968V-30.1534V-30.3249V-30.4157V-30.4594V-30.483C29.0525 -29.6623 31.0066 -31.6266 30.8149 -31.4214C64.2419 -31.371 95.4624 -31.3238 121.718 -31.2835H122.515L122.509 -30.4931C122.341 -5.58598 122.203 15.1705 122.105 29.8658C122.018 36.9495 121.947 42.57 121.897 46.576C121.863 48.3789 121.829 49.8151 121.809 50.925C121.779 51.8971 121.749 52.3815 121.722 52.3512" fill="#DADBD8"/>
<path d="M121.719 106.968H30.8086V65.3409H121.719V106.968Z" fill="#F3F2F1"/>
<path d="M121.722 106.968C121.675 106.921 121.628 105.882 121.577 103.951C121.537 101.856 121.48 99.0774 121.409 95.5894C121.321 88.2468 121.197 77.9611 121.049 65.341L121.718 66.0137C98.0087 66.081 66.0213 66.1685 30.815 66.266C29.9842 67.0934 31.9351 65.1391 31.7333 65.3443V65.3544V65.378V65.4218V65.5058V65.6774V66.0204V66.7066V68.0722V70.7967C31.7333 72.6063 31.7333 74.4091 31.7299 76.1985C31.7299 79.7807 31.7232 83.3158 31.7232 86.8004C31.7097 93.763 31.6997 100.507 31.6862 106.968L30.8083 106.09C57.0306 106.259 79.5899 106.403 95.819 106.507C103.764 106.608 110.151 106.692 114.763 106.75C116.861 106.797 118.553 106.83 119.878 106.861C121.056 106.898 121.685 106.931 121.722 106.968C121.755 107.005 121.197 107.039 120.09 107.076C118.812 107.103 117.181 107.14 115.156 107.187C110.592 107.244 104.272 107.328 96.411 107.429C80.0339 107.533 57.2694 107.678 30.8083 107.85L29.9304 107.853V106.968C29.9169 100.507 29.9069 93.763 29.8934 86.8004C29.89 83.3158 29.8901 79.7807 29.8867 76.1985C29.8867 74.4091 29.8833 72.6063 29.8833 70.7967V68.0722V66.7066V66.0204V65.6774V65.5058V65.4218V65.378V65.3544V65.3443C29.6815 65.5394 31.6391 63.5853 30.815 64.4127C66.0213 64.5136 98.0087 64.601 121.718 64.6683L122.401 64.6716L122.391 65.341C122.243 78.1326 122.119 88.5562 122.031 96.0031C121.961 99.4239 121.903 102.155 121.863 104.207C121.813 106.067 121.765 107.015 121.722 106.968" fill="#DADBD8"/>
<path d="M14.7341 -30.258C-19.0763 16.4483 -57.9791 60.2652 -91.7896 106.968Z" fill="white"/>
<path d="M-91.7891 106.968C-91.8395 106.931 -91.5335 106.403 -90.8978 105.435C-90.1241 104.301 -89.1824 102.919 -88.0421 101.25C-85.543 97.6278 -81.8061 92.4749 -77.1072 86.1682C-67.7229 73.5448 -54.2922 56.4613 -39.2538 37.7768C-24.2053 19.0889 -10.6266 2.15348 -0.986674 -10.2547C3.69202 -16.2956 7.53993 -21.267 10.409 -24.9669C11.6569 -26.5545 12.6895 -27.8662 13.5405 -28.9459C14.2704 -29.8406 14.6841 -30.2948 14.7346 -30.2578C14.785 -30.2208 14.4756 -29.6927 13.8432 -28.724C13.0696 -27.5905 12.1278 -26.2081 10.9876 -24.5397C8.4918 -20.9172 4.75153 -15.7676 0.0526513 -9.46091C-9.33165 3.16586 -22.7623 20.2493 -37.8075 38.9406C-52.8493 57.6217 -66.4245 74.5572 -76.0645 86.9653C-80.7465 93.0029 -84.5978 97.9742 -87.4635 101.678C-88.7114 103.265 -89.7441 104.577 -90.595 105.653C-91.3283 106.551 -91.7386 107.005 -91.7891 106.968Z" fill="#DADBD8"/>
<path d="M-91.7896 -30.4968L17.435 106.968Z" fill="white"/>
<path d="M17.435 106.968C17.0348 107.288 -7.74113 76.7701 -37.8987 38.8158C-68.0664 0.847997 -92.1898 -30.1774 -91.7895 -30.497C-91.3893 -30.8131 -66.6167 -0.302316 -36.4491 37.6621C-6.29146 75.6164 17.8387 106.648 17.435 106.968Z" fill="#DADBD8"/>
<path d="M-62.0422 -74.233C-116.017 10.6731 -112.482 128.384 -53.5088 209.896C-14.1923 264.234 44.7808 300.655 91.6115 348.67C138.439 396.684 174.008 467.44 149.293 529.79C124.134 593.26 50.4451 619.082 -4.74072 659.287C-64.8507 703.08 -107.07 770.724 -120.003 843.962C-132.937 917.197 -116.441 995.211 -74.9649 1056.94H498.258C498.258 1056.94 598.953 865.038 469.49 718.791C340.023 572.544 270.499 570.149 275.288 474.248C280.085 378.346 347.214 347.18 385.576 311.216C423.937 275.257 610.94 191.343 500.653 -74.233H-62.0422Z" fill="#FAFAF9"/>
<path d="M-62.0429 -74.2296C-62.0429 -74.2296 -58.713 -74.2868 -52.1709 -74.3104C-45.6119 -74.3272 -35.8778 -74.3541 -23.1165 -74.3877C2.46663 -74.4247 40.1754 -74.4819 88.7417 -74.5492C185.979 -74.6232 326.689 -74.724 500.652 -74.8518H501.076L501.227 -74.4684C509.058 -54.5798 516.975 -34.1025 522.586 -12.3975C528.361 9.20998 533.09 31.7189 534.765 55.0518C536.524 78.3343 535.768 102.377 531.129 126.251C526.343 150.062 517.813 173.647 505.22 195.467C498.957 206.398 491.587 216.778 483.629 226.795C475.577 236.751 466.66 246.108 457.222 255.045C447.77 263.969 437.703 272.374 427.249 280.416C416.819 288.489 405.931 296.114 395.299 304.166C389.974 308.182 385.114 312.686 380.039 317.2C374.939 321.627 369.692 325.898 364.391 330.13C353.8 338.599 343.1 347.072 333.003 356.345C312.613 374.586 295.395 397.364 285.923 423.872C281.325 437.097 278.032 450.958 276.959 465.146C276.673 468.691 276.196 472.226 276.065 475.788C275.994 479.35 275.792 482.919 275.964 486.491C276.007 493.635 276.815 500.776 278.113 507.816C280.804 521.896 286.717 535.387 295.321 547.082C303.79 558.885 314.237 569.278 325.048 579.271C346.813 599.17 369.894 618.161 392.009 638.671C414.226 659.065 435.803 680.595 456.586 703.221C466.896 714.573 477.383 725.999 486.397 738.666C495.721 751.101 503.548 764.684 510.43 778.736C523.988 806.976 532.367 837.958 535.115 869.64C538.065 901.321 535.811 933.604 529.528 965.195C526.427 981.007 522.297 996.668 517.231 1012.08C512.162 1027.48 506.313 1042.67 499.034 1057.35L498.802 1057.82H498.257C493.606 1057.82 488.553 1057.82 483.498 1057.82C287.82 1057.81 99.0173 1057.79 -74.9657 1057.78H-75.4164L-75.6619 1057.41C-102.974 1016.41 -119.19 969.308 -123.663 922.104C-128.415 874.894 -121.151 827.545 -103.832 785.523C-86.7381 743.352 -60.1626 706.366 -28.0576 677.292C-12.0504 662.643 5.79318 650.652 23.6738 639.563C41.5713 628.45 59.6167 618.174 76.6834 606.93C93.6726 595.665 110.046 583.661 123.343 568.975C136.682 554.418 146.874 537.311 152.215 518.926C157.573 500.527 157.624 481.227 154.489 463.061C151.31 444.827 144.893 427.585 136.773 411.702C128.63 395.8 118.755 381.202 107.921 367.875C97.1136 354.509 85.1023 342.645 73.007 331.445C48.7424 309.107 23.9093 289.572 1.5551 269.495C-9.63879 259.478 -20.2508 249.367 -30.0118 238.977C-39.7022 228.53 -48.5652 217.817 -56.1769 206.721C-71.5315 184.579 -82.0593 161.256 -88.9748 138.74C-95.9037 116.198 -99.3446 94.4053 -100.135 74.3552C-100.606 69.3502 -100.421 64.4394 -100.414 59.6464C-100.35 54.8567 -100.495 50.1713 -100.001 45.6238C-99.6474 41.0729 -99.3077 36.6363 -98.9747 32.3142C-98.4567 28.0156 -97.747 23.8549 -97.1684 19.7951C-92.1198 -12.6767 -82.3251 -36.4031 -74.6865 -51.5896C-72.8567 -55.4476 -71.2422 -58.8414 -69.4999 -61.5894C-67.8618 -64.3778 -66.4895 -66.7188 -65.3862 -68.6024C-63.1764 -72.3561 -62.0429 -74.2296 -62.0429 -74.2296C-62.275 -73.8193 -63.21 -72.1678 -65.2887 -68.4914C-66.3751 -66.6044 -67.7206 -64.2566 -69.3216 -61.4649C-71.0269 -58.727 -72.6212 -55.3264 -74.4275 -51.4617C-81.9719 -36.2517 -91.6623 -12.532 -96.6101 19.8825C-97.1752 23.9356 -97.8748 28.0895 -98.3793 32.3814C-98.7022 36.6901 -99.0318 41.12 -99.3716 45.6608C-99.8559 50.1949 -99.7012 54.8702 -99.755 59.6498C-99.7516 64.4294 -99.9265 69.3301 -99.4455 74.3216C-98.6147 94.3179 -95.1368 116.043 -88.1911 138.501C-81.2588 160.933 -70.7309 184.155 -55.4066 206.183C-47.8117 217.229 -38.9622 227.891 -29.2853 238.298C-19.5343 248.644 -8.93578 258.721 2.25475 268.711C24.6022 288.734 49.4554 308.243 73.7941 330.597C85.9163 341.798 97.9881 353.691 108.856 367.115C119.75 380.485 129.686 395.144 137.89 411.127C146.073 427.097 152.552 444.447 155.774 462.839C158.952 481.16 158.919 500.672 153.51 519.299C148.122 537.906 137.816 555.215 124.365 569.914C110.961 584.744 94.5035 596.815 77.4705 608.127C60.3601 619.415 42.3045 629.708 24.4474 640.811C6.60045 651.9 -11.1389 663.831 -27.0485 678.412C-58.972 707.348 -85.3927 744.162 -102.375 786.12C-119.58 827.925 -126.784 874.994 -122.042 921.949C-117.578 968.891 -101.43 1015.73 -74.2727 1056.48L-74.9657 1056.11C99.0173 1056.09 287.82 1056.08 483.498 1056.07C488.553 1056.07 493.606 1056.07 498.257 1056.07L497.48 1056.53C504.675 1042.04 510.531 1026.85 515.569 1011.53C520.611 996.189 524.722 980.596 527.816 964.854C534.066 933.405 536.312 901.287 533.379 869.797C530.652 838.305 522.33 807.535 508.869 779.483C502.038 765.527 494.268 752.034 485.005 739.682C476.058 727.103 465.634 715.74 455.325 704.382C434.575 681.785 413.045 660.289 390.862 639.919C368.781 619.429 345.74 600.465 323.914 580.499C313.074 570.465 302.556 560.008 293.969 548.051C285.26 536.201 279.223 522.431 276.498 508.129C275.18 500.978 274.373 493.743 274.326 486.525C274.157 482.912 274.359 479.317 274.437 475.721C274.571 472.125 275.045 468.563 275.335 464.988C276.424 450.686 279.758 436.687 284.403 423.32C293.982 396.533 311.429 373.509 331.933 355.185C342.094 345.864 352.831 337.371 363.419 328.915C368.717 324.687 373.954 320.429 379.019 316.033C384.008 311.6 389.002 306.982 394.364 302.945C405.05 294.859 415.914 287.258 426.324 279.212C436.751 271.2 446.785 262.832 456.199 253.952C465.597 245.066 474.47 235.759 482.482 225.866C490.403 215.91 497.733 205.598 503.962 194.74C516.491 173.069 524.977 149.648 529.754 125.982C534.378 102.252 535.149 78.3377 533.42 55.1527C531.768 31.9274 527.073 9.48915 521.335 -12.0611C515.761 -33.7022 507.88 -54.1357 500.08 -73.9941L500.652 -73.6107C326.794 -73.7385 186.167 -73.8428 88.9872 -73.9134C40.3839 -73.984 2.6449 -74.0379 -22.9551 -74.0716C-35.75 -74.1086 -45.511 -74.1355 -52.0868 -74.1523C-58.6558 -74.1792 -62.0429 -74.2296 -62.0429 -74.2296" fill="#17282F"/>
<path d="M477.781 81.4863C562.206 95.3643 429.09 244.894 353.743 303.894C310.111 338.061 263.254 375.111 242.537 426.506C219.03 484.816 236.453 550.355 225.06 609.015C223.167 618.749 208.774 617.219 208.919 607.3C209.48 568.797 208.451 530.315 202.071 492.411C193.023 438.652 172.354 385.467 134.675 346.066C103.919 313.908 63.5898 292.536 30.7817 262.472C-17.1186 218.574 -66.3206 161.959 -71.1204 97.1671C-71.1204 97.1671 20.8492 23.0883 71.8978 32.439C131.554 43.3671 190.288 135.424 282.728 124.879C347.275 117.52 379.844 65.3883 477.781 81.4863" fill="#F03D5F"/>
<path d="M485.275 881.826C483.139 860.713 477.512 836.818 458.773 826.858C447.421 820.825 433.6 821.494 421.172 824.763C408.737 828.035 397.055 833.687 384.735 837.346C360.487 844.547 333.922 843.706 310.182 834.985C287.272 826.569 267.609 811.36 246.341 799.398C225.07 787.442 200.173 778.531 176.491 784.424C135.657 794.585 114.41 843.747 74.0402 855.614C56.0957 860.888 36.8259 857.928 18.5854 853.794C0.344832 849.661 -17.9663 844.359 -36.6542 845.056C-51.2991 845.604 -66.536 850.666 -76.8016 860.703L-76.6939 860.565L-76.9899 860.884C-78.6784 862.553 -80.229 864.362 -81.6181 866.313C-94.1406 883.003 -96.142 905.449 -92.2907 925.831C-87.9753 948.656 -77.3162 969.749 -65.8734 989.96C-52.3956 1013.77 -37.0881 1037.47 -14.8046 1053.35C3.66128 1066.5 25.3259 1064.72 47.7574 1062.94C58.7159 1062.07 69.8593 1061.2 80.9019 1062.07C159.38 1068.26 243.819 1072.49 322.307 1066.41C363.766 1063.2 402.629 1067.69 435.528 1042.25C458.679 1024.36 473.728 997.384 480.989 969.039C488.248 940.695 488.214 910.934 485.275 881.826" fill="#F03D5F"/>
<path d="M337.188 841.392C337.177 841.392 337.167 841.39 337.156 841.39C337.156 841.39 337.156 841.39 337.156 841.386C337.167 841.39 337.177 841.392 337.188 841.392" fill="#B3B5B3"/>
<path d="M380.46 1054.3C372.751 1054.3 364.991 1050.31 358.708 1045.46C340.683 1031.55 329.129 1010.03 325.772 987.512C322.415 964.99 326.942 941.626 336.895 921.145C342.287 910.052 349.455 898.333 347.252 886.346C347.598 886.138 347.941 885.936 348.277 885.737C351.725 883.665 354.45 882.027 356.437 880.834C357.285 880.302 357.971 879.872 358.536 879.519C359 879.219 359.236 879.051 359.219 879.023C359.216 879.021 359.212 879.021 359.206 879.021C359.152 879.021 358.893 879.138 358.439 879.366C357.854 879.68 357.137 880.063 356.252 880.53C354.228 881.654 351.453 883.195 347.941 885.142C347.665 885.297 347.389 885.455 347.104 885.612C347.073 885.472 347.043 885.327 347.009 885.186C345.156 877.296 339.381 871.035 335.109 864.146C330.837 857.259 332.724 848.173 337.158 841.39C337.168 841.39 337.178 841.392 337.188 841.392C341.449 842.199 345.751 842.459 350.07 842.459C352.082 842.459 354.096 842.401 356.111 842.317C361.17 849.569 367.52 855.715 375.142 860.226L379.125 934.308L399.427 930.785C398.418 955.138 399.427 979.57 402.464 1003.75C403.648 1013.16 405.128 1022.74 403.332 1032.05C401.536 1041.36 395.687 1050.53 386.642 1053.37C384.604 1054.01 382.535 1054.3 380.46 1054.3" fill="#CE3148"/>
<path d="M218.407 256.546C204.061 256.546 189.723 254.114 176.696 249.664C161.583 244.417 148.694 237.03 137.423 229.614C126.121 222.12 116.38 214.723 107.198 207.643C98.0524 200.546 89.7176 193.708 82.2673 187.273C52.4898 161.468 36.8257 142.498 39.8462 138.835C40.233 138.364 40.8923 138.135 41.8172 138.135C48.3593 138.135 68.1101 149.591 96.8987 167.284C105.113 172.326 114.093 177.842 123.733 183.762C133.363 189.628 143.723 196.099 154.284 202.09C164.879 208.073 175.935 213.519 187.402 217.054C196.995 219.92 207.126 221.521 217.802 221.521C219.803 221.521 221.818 221.464 223.856 221.349C249.678 220.034 274.736 210.932 296.448 200.455C318.271 189.776 337.786 177.694 354.806 168.165C371.805 158.528 386.346 151.408 396.931 147.624C403.618 145.226 408.67 144.065 411.761 144.065C413.567 144.065 414.704 144.462 415.107 145.236C416.251 147.422 411.993 152.151 403.866 159.362C395.71 166.584 383.81 176.49 368.68 188.689C353.467 200.785 335.035 215.369 311.56 228.978C299.802 235.772 286.711 241.938 272.395 246.953C265.197 249.368 257.737 251.611 249.89 253.175C242.086 254.847 233.947 255.957 225.575 256.34C223.19 256.478 220.798 256.546 218.407 256.546" fill="#CE3148"/>
<path d="M209.339 679.283C215.562 677.094 223.002 683.353 221.902 689.862C220.806 696.363 211.727 699.838 206.568 695.731C201.408 691.621 202.764 681.994 208.858 679.468" fill="#F03D5F"/>
<path d="M6.56103 239.058C6.5173 239.099 5.83116 238.402 4.55973 237.04C3.1975 235.547 1.37107 233.542 -0.929603 231.019C-3.25045 228.349 -6.30452 225.261 -9.42589 221.315C-12.5944 217.373 -16.1799 212.91 -20.1355 207.992C-23.7883 202.823 -27.9389 197.253 -32.1131 191.084C-34.0942 187.925 -36.146 184.66 -38.2583 181.299C-39.2943 179.607 -40.4244 177.936 -41.4301 176.16C-42.4021 174.364 -43.3877 172.544 -44.3867 170.701C-52.6644 156.13 -60.0339 139.06 -65.2743 120.416C-70.5181 101.761 -72.9768 83.3224 -73.1988 66.5316C-73.2157 62.3406 -72.9836 58.2472 -72.8894 54.2748C-72.7986 52.2903 -72.8322 50.326 -72.6337 48.4122C-72.4319 46.4949 -72.2301 44.608 -72.0317 42.7513C-71.6078 39.048 -71.3119 35.4558 -70.8141 32.0283C-70.1985 28.6278 -69.6066 25.3584 -69.0415 22.237C-68.0795 15.964 -66.4213 10.4578 -65.2339 5.57059C-64.5881 3.1421 -64.0803 0.85156 -63.4412 -1.20357C-62.7752 -3.23852 -62.163 -5.10862 -61.608 -6.80721C-60.5216 -10.0429 -59.6572 -12.6195 -59.0147 -14.5334C-58.4026 -16.2959 -58.0561 -17.2073 -57.9989 -17.1872C-57.9418 -17.167 -58.1806 -16.2151 -58.6817 -14.4223C-59.2435 -12.4849 -60.0036 -9.88155 -60.9555 -6.60882C-61.4634 -4.90013 -62.0251 -3.02328 -62.6373 -0.978237C-63.2293 1.08698 -63.6867 3.37754 -64.2854 5.81275C-65.3786 10.7067 -66.946 16.2061 -67.8239 22.4623C-68.3519 25.5736 -68.9036 28.8329 -69.4754 32.2234C-69.9328 35.6306 -70.1952 39.2062 -70.5854 42.8892C-70.767 44.7325 -70.952 46.6093 -71.1403 48.5131C-71.322 50.4202 -71.2715 52.371 -71.3523 54.3421C-71.4162 58.2875 -71.6213 62.3474 -71.5877 66.5081C-71.2749 83.1677 -68.7892 101.439 -63.5892 119.941C-58.3925 138.434 -51.1239 155.393 -42.9706 169.927C-41.9885 171.764 -41.0197 173.58 -40.0611 175.369C-39.0723 177.142 -37.9589 178.814 -36.9398 180.506C-34.8644 183.866 -32.8497 187.125 -30.8988 190.283C-26.7987 196.462 -22.722 202.049 -19.1432 207.249C-15.2751 212.214 -11.7703 216.714 -8.66909 220.693C-5.62844 224.689 -2.65509 227.834 -0.41497 230.572C1.77807 233.182 3.52377 235.257 4.8221 236.805C6.00607 238.244 6.60812 239.018 6.56103 239.058" fill="#17282F"/>
<path d="M-25.3593 738.757C-25.3862 738.741 -25.1743 738.367 -24.7303 737.651C-24.2325 736.86 -23.5733 735.818 -22.729 734.486C-21.8175 733.073 -20.7143 731.368 -19.4227 729.37C-18.7634 728.357 -18.0537 727.271 -17.3002 726.11C-16.4728 724.997 -15.5041 723.88 -14.5253 722.663C-12.5375 720.231 -10.331 717.537 -7.92603 714.597C-5.3361 711.809 -2.36607 708.923 0.741846 705.741C7.12923 699.562 14.8519 692.973 23.8326 686.31C41.6864 672.778 64.7199 659.331 89.6876 643.636C102.076 635.661 115.119 627.259 127.45 617.034C139.798 606.886 151.701 595.184 161.338 581.226C180.342 552.968 188.061 520.238 188.737 490.978C189.504 461.497 183.231 435.241 175.845 414.313C168.364 393.304 159.791 377.317 153.561 366.534C150.447 361.128 147.89 357.011 146.128 354.236C145.294 352.901 144.638 351.855 144.147 351.065C143.706 350.345 143.494 349.968 143.521 349.951C143.548 349.934 143.807 350.277 144.295 350.967C144.823 351.731 145.526 352.75 146.424 354.045C148.281 356.756 150.938 360.822 154.147 366.187C160.571 376.887 169.343 392.84 177.009 413.896C184.583 434.874 191.031 461.278 190.349 491.015C190.224 498.428 189.625 506.017 188.492 513.702C187.429 521.391 185.804 529.175 183.568 536.931C179.242 552.487 172.3 567.936 162.791 582.204C153.023 596.355 140.982 608.161 128.533 618.366C116.095 628.645 102.99 637.047 90.552 645.002C65.4902 660.649 42.4465 673.952 24.5692 687.305C15.5751 693.881 7.83894 700.373 1.42129 706.447C-1.70345 709.579 -4.69367 712.418 -7.30715 715.159C-9.74572 718.051 -11.9758 720.695 -13.9905 723.083C-14.9861 724.281 -15.9717 725.377 -16.8159 726.467C-17.5929 727.604 -18.3194 728.674 -18.9955 729.669C-20.3409 731.627 -21.4845 733.295 -22.433 734.677C-23.3345 735.966 -24.0442 736.978 -24.5756 737.742C-25.0667 738.424 -25.3324 738.771 -25.3593 738.757Z" fill="#17282F"/>
<path d="M359.219 879.024C359.236 879.051 359 879.219 358.536 879.519C357.971 879.873 357.285 880.302 356.437 880.834C354.449 882.027 351.725 883.666 348.277 885.738C346.488 886.798 344.51 887.967 342.354 889.246C340.151 890.457 337.669 891.613 335.048 892.943C329.758 895.492 323.885 898.741 316.952 901.361C313.528 902.767 309.939 904.237 306.206 905.768C302.456 907.271 298.409 908.435 294.299 909.858C286.109 912.848 277.047 914.977 267.576 917.449C248.474 921.697 227.099 924.815 204.499 925.539C181.879 925.999 160.372 924.002 141.069 920.753C131.48 918.778 122.317 917.123 113.982 914.563C109.805 913.359 105.701 912.411 101.877 911.106C98.0695 909.77 94.4099 908.489 90.9152 907.262C83.8551 905.007 77.8209 902.071 72.4056 899.8C69.7181 898.61 67.182 897.584 64.9183 896.488C62.6984 895.33 60.6634 894.261 58.8202 893.295C55.2683 891.409 52.4631 889.912 50.4147 888.825C49.5435 888.338 48.8305 887.945 48.2519 887.625C47.7709 887.348 47.5321 887.191 47.5489 887.164C47.5624 887.137 47.8281 887.241 48.3394 887.469C48.9415 887.749 49.6781 888.089 50.5829 888.512C52.6649 889.528 55.5172 890.921 59.1229 892.684C60.9863 893.609 63.0347 894.627 65.2749 895.734C67.552 896.781 70.1015 897.76 72.7958 898.899C78.2312 901.082 84.2755 903.928 91.3323 906.097C94.8236 907.281 98.4798 908.523 102.284 909.815C106.098 911.079 110.195 911.993 114.362 913.161C122.674 915.65 131.799 917.241 141.348 919.164C160.564 922.306 181.96 924.244 204.452 923.789C226.93 923.07 248.188 920.016 267.212 915.876C276.647 913.461 285.678 911.395 293.845 908.476C297.948 907.093 301.988 905.966 305.732 904.502C309.469 903.016 313.051 901.583 316.478 900.218C323.407 897.685 329.297 894.524 334.611 892.065C337.241 890.783 339.741 889.677 341.961 888.51C344.133 887.285 346.131 886.162 347.941 885.143C351.452 883.195 354.227 881.654 356.252 880.531C357.137 880.063 357.853 879.68 358.439 879.367C358.94 879.116 359.202 878.997 359.219 879.024" fill="#17282F"/>
<path d="M394.297 167.162C394.317 167.186 394.075 167.411 393.581 167.832C393.012 168.303 392.286 168.898 391.377 169.648C389.316 171.293 386.44 173.587 382.787 176.5C375.306 182.416 364.489 190.997 350.816 201.218C337.117 211.383 320.521 223.223 300.787 234.292C290.824 239.613 280.212 245.052 268.557 249.119C256.94 253.219 244.451 256.357 231.367 257.393C205.087 259.169 180.173 252.512 159.908 242.529C149.774 237.45 140.632 231.759 132.31 226.115C124.096 220.32 116.599 214.713 109.966 209.338C96.6464 198.652 86.216 189.611 78.9642 183.408C75.4325 180.354 72.6508 177.949 70.6562 176.227C69.7784 175.443 69.0754 174.818 68.5204 174.323C68.0461 173.889 67.814 173.654 67.8342 173.631C67.8544 173.607 68.1235 173.795 68.6381 174.185C69.22 174.646 69.96 175.228 70.8816 175.955C72.9266 177.62 75.7823 179.941 79.4048 182.887C86.7878 188.925 97.3427 197.825 110.733 208.366C117.403 213.67 124.92 219.2 133.131 224.918C141.446 230.478 150.557 236.085 160.618 241.08C180.728 250.885 205.336 257.393 231.239 255.644C244.128 254.625 256.469 251.54 267.979 247.504C279.526 243.498 290.081 238.13 300.007 232.876C319.677 221.948 336.309 210.243 350.08 200.219C363.83 190.142 374.762 181.71 382.37 175.961C386.11 173.156 389.05 170.95 391.162 169.369C392.111 168.676 392.874 168.124 393.473 167.687C393.998 167.317 394.277 167.139 394.297 167.162" fill="#17282F"/>
<path d="M197.897 923.854C177.803 923.854 158.688 922.001 141.349 919.164C131.799 917.241 122.674 915.65 114.363 913.161C110.195 911.993 106.099 911.079 102.284 909.815C98.7795 908.627 95.3991 907.48 92.16 906.376C100.438 900.497 110.333 898.493 120.632 898.493C130.05 898.493 139.808 900.168 148.984 902.094C165.469 905.559 182.061 910.844 198.717 910.844C201.97 910.844 205.222 910.641 208.482 910.184C223.51 908.082 237.301 900.686 252.131 897.473C255.965 896.643 260.018 896.185 264.054 896.185C275.393 896.185 286.63 899.791 292.809 908.839C284.918 911.57 276.25 913.561 267.213 915.876C248.188 920.016 226.931 923.07 204.452 923.789C202.256 923.834 200.069 923.854 197.897 923.854V923.854ZM91.5984 907.504C91.3797 907.426 91.1644 907.353 90.9458 907.275C90.9492 907.275 90.9492 907.275 90.9492 907.275C91.1644 907.348 91.3831 907.426 91.5984 907.504Z" fill="#CE3148"/>
<path d="M195.259 924.774C160.059 924.774 124.866 919.01 91.5974 907.503C91.3822 907.426 91.1635 907.348 90.9482 907.275C91.3485 906.965 91.7521 906.665 92.1591 906.376C95.3982 907.48 98.7786 908.627 102.283 909.814C106.098 911.078 110.194 911.993 114.362 913.161C122.673 915.65 131.799 917.24 141.348 919.164C158.687 922.001 177.802 923.854 197.896 923.854C200.069 923.854 202.255 923.834 204.451 923.789C226.93 923.07 248.187 920.015 267.212 915.876C276.25 913.56 284.917 911.57 292.808 908.838C292.933 909.02 293.054 909.205 293.175 909.39C261.622 919.649 228.437 924.774 195.259 924.774" fill="#101C21"/>
<path d="M647.176 816.005L574.739 734.896L574.002 833.488L595.805 896.727L379.125 934.308L369.932 763.339L354.335 632.036C352.425 615.948 361.604 600.593 376.676 594.657L436.308 571.172L520.293 586.581L554.08 599.423C568.264 604.811 580.907 613.607 590.897 625.029L692.601 741.334L647.176 816.005" fill="#F03D5F"/>
<path d="M569.656 715.502C569.672 715.155 574.422 715.858 581.892 714.641C589.285 713.487 599.504 709.871 607.98 702.071C616.443 694.248 620.876 684.355 622.621 677.08C624.438 669.734 624.122 664.941 624.468 664.955C624.572 664.948 624.744 666.132 624.774 668.284C624.814 670.437 624.603 673.569 623.829 677.359C622.352 684.88 617.96 695.233 609.167 703.356C600.361 711.466 589.689 715.004 582.07 715.865C578.229 716.333 575.091 716.289 572.952 716.077C570.806 715.872 569.642 715.606 569.656 715.502" fill="white"/>
<path d="M575.993 829.29C576.497 829.288 576.628 795.133 576.285 753.013C575.939 710.88 575.249 676.737 574.745 676.743C574.237 676.747 574.106 710.897 574.452 753.028C574.795 795.143 575.485 829.294 575.993 829.29" fill="#17282F"/>
<path d="M568.054 854.353L437.128 801.646C426.567 797.395 419.335 787.519 418.471 776.17L408.888 650.639C408.888 650.639 410.021 597.253 376.675 594.656L357.701 602.127C333.184 615.147 327.113 650.844 330.45 678.402C335.192 717.564 337.167 772.985 342.475 806.974C346.817 834.777 362.74 859.23 389.951 866.394L551.217 901.304L568.054 854.353" fill="#F03D5F"/>
<path d="M410.765 669.791C410.822 669.784 410.963 670.776 411.178 672.663C411.384 674.712 411.663 677.467 412.019 680.934C412.685 688.294 413.627 698.65 414.787 711.378C415.894 724.287 417.209 739.578 418.666 756.544C419.026 760.795 419.389 765.148 419.766 769.598C420.156 774.048 420.425 778.606 421.437 783.028C422.396 787.468 424.528 791.629 427.942 794.794C431.34 797.97 435.591 800.297 440.024 802.308C476.125 817.931 509.401 830.831 533.554 839.876C545.542 844.295 555.296 847.887 562.229 850.441C565.501 851.645 568.098 852.604 570.025 853.316C571.805 853.989 572.726 854.369 572.706 854.426C572.686 854.484 571.724 854.214 569.911 853.65C567.957 853.016 565.32 852.162 562.007 851.082C555.152 848.812 545.273 845.412 533.127 841.039C508.832 832.281 475.506 819.573 439.298 803.902C434.794 801.854 430.374 799.46 426.748 796.058C423.085 792.679 420.738 788.054 419.766 783.418C418.719 778.774 418.474 774.182 418.097 769.745C417.744 765.292 417.401 760.936 417.061 756.682C415.743 739.702 414.555 724.398 413.553 711.475C412.628 698.728 411.875 688.354 411.34 680.988C411.121 677.507 410.95 674.745 410.822 672.69C410.728 670.793 410.704 669.794 410.765 669.791" fill="#17282F"/>
<path d="M335.751 738.031C335.815 738.027 335.895 738.609 336.01 739.716C336.128 741.024 336.269 742.622 336.444 744.559C336.831 749.033 337.359 755.053 337.994 762.373C338.714 769.887 339.622 778.828 340.931 788.709C342.28 798.574 343.864 809.458 346.84 820.504C348.253 826.088 350.231 831.245 353.231 835.668C356.235 840.129 359.565 844.137 363.012 847.686C369.935 854.766 377.324 859.956 383.964 863.404C397.358 870.366 407.095 870.467 406.961 870.931C406.954 870.991 406.369 870.975 405.255 870.891C404.142 870.817 402.497 870.685 400.412 870.265C396.238 869.532 390.234 867.891 383.399 864.506C376.578 861.147 368.976 855.963 361.862 848.816C358.32 845.234 354.893 841.17 351.808 836.627C348.677 832.069 346.551 826.56 345.152 820.972C342.135 809.755 340.598 798.833 339.33 788.918C338.109 778.988 337.322 770.014 336.763 762.476C336.212 754.936 335.919 748.828 335.764 744.6C335.721 742.656 335.687 741.048 335.66 739.733C335.657 738.619 335.694 738.034 335.751 738.031Z" fill="#17282F"/>
<path d="M391.74 825.87C391.559 825.823 392.117 823.02 394.122 818.893C396.103 814.773 399.772 809.449 405.114 804.868C410.475 800.31 416.308 797.522 420.684 796.207C425.076 794.872 427.925 794.76 427.949 794.945C428.003 795.238 425.251 795.784 421.091 797.377C416.933 798.951 411.42 801.806 406.251 806.2C401.104 810.62 397.421 815.614 395.215 819.479C392.988 823.337 392.019 825.967 391.74 825.87" fill="#17282F"/>
<path d="M417.491 730.406C417.508 730.382 417.787 730.507 418.322 730.776C418.938 731.096 419.708 731.503 420.663 732.004C422.766 732.993 425.83 734.547 430.004 735.966C438.238 738.822 451.137 741.731 466.704 739.097C482.068 736.585 499.939 727.53 512.317 710.759C518.445 702.478 523.184 692.273 524.264 681.093C524.806 675.54 524.348 669.754 522.515 664.312C520.719 658.88 517.433 653.838 513.077 649.889C508.745 645.93 503.36 643.142 497.705 642.419C492.135 641.538 486.168 643.011 482.3 646.748C480.437 648.625 479.273 651.134 479.3 653.72C479.29 656.297 480.282 658.843 481.829 660.912C484.927 665.146 490.151 667.121 495.149 667.861C505.347 669.26 515.371 667.417 523.766 663.764C532.195 660.088 539.087 654.625 544.048 648.598C549.02 642.543 552.081 635.998 553.914 630.058C555.754 624.098 556.315 618.692 556.406 614.306C556.47 609.907 556.009 606.5 555.669 604.209C555.474 603.146 555.316 602.295 555.192 601.606C555.088 601.02 555.051 600.714 555.077 600.708C555.077 600.708 556.934 605.376 557.086 614.31C557.102 618.75 556.635 624.249 554.852 630.337C553.08 636.408 550.039 643.125 545.01 649.378C539.989 655.604 532.976 661.268 524.348 665.093C515.754 668.897 505.495 670.861 494.907 669.455C489.707 668.705 484.002 666.657 480.484 661.911C478.762 659.61 477.605 656.744 477.601 653.714C477.561 650.673 478.947 647.679 481.086 645.537C485.476 641.289 491.961 639.775 497.941 640.693C503.999 641.464 509.7 644.43 514.251 648.591C518.839 652.748 522.276 658.032 524.17 663.761C526.087 669.479 526.544 675.503 525.973 681.258C524.826 692.832 519.912 703.272 513.615 711.718C500.884 728.815 482.58 737.917 466.905 740.322C451.036 742.838 438.009 739.683 429.775 736.605C421.447 733.426 417.491 730.406 417.491 730.406" fill="white"/>
<path d="M331.728 696.925C331.644 696.851 332.378 695.872 333.874 694.241C335.388 692.63 337.726 690.413 340.951 688.089C347.308 683.313 357.833 678.964 369.915 677.83C375.956 677.184 381.818 677.474 386.985 678.543C392.161 679.616 396.611 681.358 400.14 683.165C403.678 684.964 406.355 686.737 408.142 688.038C409.914 689.347 410.829 690.158 410.765 690.248C410.583 690.524 406.668 687.564 399.605 684.281C392.619 680.938 381.926 678.15 370.1 679.569C358.257 680.696 348.048 684.705 341.654 689.111C335.173 693.427 331.967 697.174 331.728 696.925" fill="white"/>
<path d="M352.665 607.165C352.935 606.869 356.029 611.154 363.264 614.871C366.839 616.724 371.461 618.278 376.755 618.827C382.026 619.385 387.979 618.783 393.64 616.492C399.267 614.111 403.906 610.327 407.242 606.207C410.603 602.083 412.772 597.714 413.993 593.876C416.486 586.136 415.645 580.919 416.045 580.936C416.136 580.926 416.401 582.184 416.482 584.502C416.573 586.819 416.301 590.216 415.174 594.236C414.067 598.255 411.935 602.856 408.5 607.216C405.09 611.571 400.253 615.601 394.31 618.113C388.333 620.529 382.066 621.1 376.577 620.428C371.064 619.772 366.305 618.023 362.682 615.964C359.046 613.912 356.449 611.703 354.882 609.997C353.298 608.299 352.595 607.222 352.665 607.165" fill="white"/>
<path d="M466.761 813.576C466.704 813.566 466.795 812.718 467.034 811.097C467.407 809.512 467.922 807.112 469.355 804.32C471.998 798.679 478.574 791.616 488.954 787.306C499.189 782.709 513.262 781.824 527.446 785.928C534.369 787.986 542.313 790.525 547.507 797.286C550.046 800.609 550.921 805.56 548.983 809.6C547.127 813.656 543.48 816.452 539.649 818.406C535.744 820.314 531.506 821.392 527.255 821.476C523.04 821.558 518.644 820.508 515.354 817.783C512.031 815.1 510.286 810.952 510.027 806.998C509.717 803.004 510.528 799.154 511.806 795.655C517.386 781.649 528.674 772.743 538.792 768.336C549.084 763.836 558.398 763.362 564.55 763.914C570.745 764.552 573.954 765.894 573.954 765.894C573.904 766.122 570.624 765.01 564.496 764.593C558.418 764.257 549.299 764.919 539.303 769.467C534.342 771.73 529.222 774.986 524.608 779.439C520.02 783.869 515.893 789.544 513.323 796.204C512.122 799.546 511.392 803.206 511.692 806.859C511.957 810.495 513.525 814.104 516.444 816.455C519.327 818.84 523.289 819.812 527.228 819.732C531.187 819.657 535.206 818.628 538.869 816.838C542.475 815.012 545.808 812.382 547.392 808.88C549.044 805.406 548.354 801.282 546.114 798.289C543.898 795.234 540.658 793.031 537.355 791.336C534.029 789.658 530.464 788.514 527.006 787.478C513.118 783.378 499.475 784.117 489.428 788.451C479.233 792.52 472.728 799.223 469.957 804.635C467.094 810.068 467.01 813.643 466.761 813.576" fill="white"/>
<path d="M379.588 860.847C379.537 860.515 384.583 860.09 392.144 857.393C399.661 854.76 409.681 849.364 417.882 840.293C426.082 831.221 430.441 820.706 432.308 812.96C434.229 805.167 434.145 800.105 434.481 800.124C434.585 800.124 434.706 801.379 434.666 803.66C434.632 805.934 434.34 809.238 433.516 813.239C431.928 821.208 427.633 832.119 419.183 841.47C410.731 850.814 400.304 856.185 392.541 858.566C388.642 859.788 385.387 860.413 383.123 860.676C380.859 860.944 379.598 860.952 379.588 860.847" fill="white"/>
<path d="M337.157 763.272C337.14 763.21 337.682 762.992 338.738 762.636C339.794 762.289 341.361 761.804 343.41 761.286C347.496 760.297 353.595 758.942 361.247 759.477C365.054 759.777 369.222 760.644 373.372 762.474C377.496 764.303 381.623 767.172 384.684 771.351C387.687 775.521 389.527 780.95 389.083 786.614C388.871 789.436 388.007 792.271 386.483 794.805C384.95 797.296 382.649 799.557 379.622 800.542C376.635 801.478 373.133 801.004 370.776 798.79C368.451 796.539 367.869 793.378 367.725 790.637C367.513 785.051 368.72 779.702 370.812 775.06C374.977 765.669 382.723 759.507 389.907 756.941C397.142 754.26 403.557 754.462 407.714 755.178C409.813 755.538 411.397 756.006 412.45 756.376C413.493 756.769 414.031 757.004 414.011 757.062C413.957 757.233 411.764 756.362 407.617 755.851C403.516 755.353 397.277 755.363 390.351 758.095C383.483 760.721 376.194 766.702 372.286 775.717C370.325 780.159 369.218 785.282 369.44 790.546C369.571 793.123 370.173 795.82 371.976 797.526C373.749 799.207 376.631 799.654 379.094 798.871C381.583 798.07 383.621 796.126 385 793.889C386.369 791.623 387.166 789.057 387.371 786.469C387.812 781.282 386.134 776.197 383.372 772.291C380.56 768.377 376.692 765.596 372.773 763.796C368.831 761.986 364.822 761.077 361.139 760.708C353.719 760.032 347.661 761.172 343.561 761.952C339.451 762.793 337.197 763.401 337.157 763.272" fill="white"/>
<path d="M526.559 837.242C519.876 834.715 512.627 831.942 504.908 828.93L466.765 813.576C466.768 813.576 466.768 813.576 466.768 813.576C466.953 813.576 467.064 811.47 468.393 808.05C474.602 812.187 481.316 815.672 488.093 818.753C501.383 824.79 513.892 830.353 526.559 837.242V837.242ZM466.758 813.572L463.321 812.19C455.736 809.035 447.949 805.739 440.025 802.308C435.592 800.297 431.34 797.97 427.943 794.794C424.529 791.629 422.397 787.468 421.438 783.028C420.425 778.605 420.156 774.048 419.766 769.598C419.447 765.833 419.137 762.137 418.835 758.515C418.787 757.543 418.727 756.566 418.656 755.595C417.445 739.433 416.238 723.271 415.03 707.113C421.502 715.522 425.457 725.29 428.639 735.481C425.155 734.203 422.531 732.881 420.664 732.003C419.709 731.502 418.939 731.095 418.323 730.775C417.836 730.53 417.56 730.402 417.503 730.402C417.496 730.402 417.492 730.405 417.492 730.405C417.492 730.405 421.162 733.207 428.878 736.255C434.64 754.973 437.95 775.029 449.537 790.65C454.569 797.431 460.916 803.007 467.932 807.74C467.495 809.065 467.243 810.208 467.034 811.097C466.802 812.677 466.708 813.526 466.758 813.572" fill="#BA2C42"/>
<path d="M504.908 828.931C492.15 823.956 478.117 818.346 463.321 812.19L466.758 813.572C466.758 813.576 466.762 813.576 466.762 813.576C466.765 813.576 466.765 813.576 466.765 813.576L504.908 828.931V828.931ZM466.082 815.194C464.659 814.7 463.243 814.221 461.831 813.758C454.417 811.309 444.956 807.593 437.098 802.867C437.825 803.223 438.562 803.566 439.298 803.902C448.444 807.861 457.404 811.629 466.082 815.194Z" fill="#BA2C42"/>
<path d="M530.43 839.391C509.542 832.499 487.158 822.479 466.082 815.194C457.404 811.629 448.443 807.861 439.298 803.902C438.561 803.566 437.825 803.223 437.098 802.867C436.261 802.362 435.44 801.847 434.643 801.319C434.606 800.538 434.542 800.125 434.481 800.125C434.478 800.125 434.478 800.125 434.478 800.125C434.394 800.125 434.337 800.452 434.266 801.067C431.595 799.275 429.191 797.354 427.223 795.316C427.711 795.15 427.966 795.036 427.949 794.945C427.946 794.902 427.791 794.875 427.505 794.875C427.33 794.875 427.105 794.885 426.836 794.908C418.138 785.514 419.51 772.211 418.834 758.515C419.137 762.137 419.446 765.834 419.766 769.598C420.156 774.048 420.425 778.606 421.437 783.028C422.396 787.468 424.529 791.629 427.943 794.794C431.34 797.97 435.591 800.297 440.024 802.308C447.949 805.739 455.736 809.035 463.32 812.19C478.117 818.346 492.149 823.956 504.907 828.93C512.627 831.942 519.875 834.715 526.559 837.242C527.847 837.945 529.138 838.661 530.43 839.391" fill="#0F191D"/>
<path d="M427.223 795.316C427.159 795.247 427.095 795.184 427.031 795.117C426.964 795.046 426.9 794.979 426.836 794.908C427.105 794.885 427.33 794.874 427.505 794.874C427.791 794.874 427.946 794.902 427.949 794.945C427.966 795.036 427.71 795.15 427.223 795.316Z" fill="#0F191D"/>
<path d="M428.877 736.255C421.161 733.207 417.491 730.406 417.491 730.406C417.491 730.406 417.495 730.402 417.502 730.402C417.559 730.402 417.835 730.53 418.322 730.776C418.938 731.095 419.708 731.502 420.663 732.003C422.53 732.881 425.154 734.203 428.638 735.481C428.719 735.74 428.796 735.999 428.877 736.255" fill="#A7A9A8"/>
<path d="M466.768 813.576C466.768 813.576 466.768 813.576 466.765 813.576C466.765 813.576 466.765 813.576 466.761 813.576C466.761 813.576 466.758 813.576 466.758 813.572C466.707 813.526 466.802 812.677 467.034 811.097C467.242 810.208 467.494 809.066 467.932 807.74C468.083 807.841 468.238 807.945 468.393 808.05C467.064 811.47 466.953 813.576 466.768 813.576" fill="#A7A9A8"/>
<path d="M434.643 801.319C434.518 801.235 434.39 801.151 434.266 801.067C434.337 800.452 434.394 800.125 434.478 800.125C434.478 800.125 434.478 800.125 434.481 800.125C434.542 800.125 434.606 800.539 434.643 801.319" fill="#A7A9A8"/>
<path d="M641.649 993.636C641.649 993.636 537.984 1061.51 534.271 1064.32C528.684 1068.54 535.088 1088.62 544.762 1085.15C549.333 1083.5 636.321 1059.3 645.678 1055.66C655.032 1052.02 680.208 1031.5 680.208 1031.5L641.649 993.636Z" fill="#F03D5F"/>
<path d="M620.176 1038.92C620.613 1038.75 618.605 1033.54 613.856 1028.73C609.133 1023.87 603.97 1021.76 603.795 1022.19C603.53 1022.67 608.07 1025.4 612.544 1030.01C617.061 1034.57 619.691 1039.17 620.176 1038.92" fill="#17282F"/>
<path d="M857.078 828.104C857.078 828.104 888.177 839.21 888.308 874.08C888.56 940.876 753.346 1014.5 753.346 1014.5L573.416 895.283L562.138 890.719C562.138 890.719 805.033 799.48 857.078 828.104" fill="#17282F"/>
<path d="M815.696 718.983L751.61 881.436L475.671 885.933L470.562 871.002L567.268 867.494L613.745 723.382L815.696 718.983" fill="#33535F"/>
<path d="M770.385 1022.62C770.385 1022.62 516.161 855.863 505.751 852.395C495.341 848.924 470.185 832.443 445.029 839.381C419.873 846.321 397.32 868.877 386.039 901.839C379.598 920.672 376.554 952.804 375.128 976.903C373.419 1005.72 382.343 1034.44 401.185 1056.3C409.762 1066.25 420.341 1074.9 432.883 1078.8C435.53 1079.63 438.278 1080.34 441.1 1080.95C489.166 1091.38 538.563 1069.8 565.565 1028.69L571.499 1019.66C571.499 1019.66 737.803 1080.76 740.406 1079.9L770.385 1022.62" fill="#17282F"/>
<path d="M455.871 976.719C455.871 976.719 456.332 976.954 457.263 977.334C458.269 977.735 459.652 978.282 461.424 978.985C465.178 980.428 470.59 982.513 477.542 985.191C491.683 990.516 512.083 998.205 537.44 1007.75C562.882 1017.25 593.359 1028.53 627.553 1040.98C661.75 1053.41 699.648 1067.05 740.118 1080.76L740.851 1081L741.211 1080.32C747.568 1068.18 754.272 1055.38 761.073 1042.38C764.544 1035.76 767.985 1029.18 771.197 1023.04L771.587 1022.3L770.881 1021.85C694.545 973.392 626.248 930.035 576.962 898.748C552.354 883.225 532.493 870.696 518.712 862.005C511.888 857.746 506.573 854.426 502.89 852.132C501.128 851.052 499.755 850.215 498.763 849.607C497.828 849.048 497.323 848.799 497.323 848.799C497.323 848.799 497.761 849.148 498.665 849.761C499.637 850.401 500.976 851.291 502.702 852.436C506.344 854.797 511.598 858.204 518.346 862.587C532.052 871.393 551.806 884.083 576.289 899.811C625.495 931.219 693.677 974.738 769.889 1023.38L769.576 1022.19C766.364 1028.33 762.919 1034.91 759.448 1041.53C752.65 1054.53 745.95 1067.33 739.6 1079.47L740.696 1079.03C700.243 1065.36 662.332 1051.78 628.102 1039.46C593.931 1027.02 563.404 1015.91 537.861 1006.61C512.422 997.28 491.958 989.775 477.778 984.572C470.775 982.023 465.326 980.038 461.545 978.666C459.742 978.03 458.343 977.532 457.327 977.172C456.372 976.843 455.871 976.719 455.871 976.719" fill="#33535F"/>
<path d="M482.253 384.556C486.586 372.834 496.165 367.745 508.314 364.808C520.457 361.868 533.968 365.346 543.177 373.789C549.339 379.433 553.857 387.233 561.468 390.684C573.998 396.365 590.059 388.064 601.935 395.006C608.968 399.116 612.419 408.47 609.742 416.166C607.065 423.859 598.555 429.049 590.489 427.905C598.656 431.763 600.18 444.053 594.556 451.12C588.939 458.187 578.538 460.101 569.85 457.642C561.162 455.183 553.944 449.116 547.806 442.496C541.667 435.87 536.292 428.521 529.649 422.409C522.999 416.294 514.708 411.37 505.687 411.033C493.467 410.576 482.196 418.79 475.782 429.2C469.371 439.603 466.976 451.944 465.187 464.04C463.401 476.132 462.055 488.472 457.39 499.771C456.842 501.099 456.061 502.569 454.655 502.862C452.624 503.289 451.141 501.039 450.327 499.135C441.137 477.598 436.233 454.248 435.984 430.835C435.84 417.239 437.363 404.515 445.806 393.856C454.252 383.197 473.727 376.557 482.253 384.556" fill="#17282F"/>
<path d="M453.586 438.816L434.902 574.626C431.72 597.72 448.514 618.776 471.739 620.808C493.414 622.708 512.761 607.236 515.704 585.679C517.104 575.457 518.288 566.934 518.499 565.891C518.499 565.891 553.521 567.394 560.725 533.52C564.207 517.15 568.633 482.848 572.276 451.772C576.191 418.396 553.773 387.616 520.824 381.034L517.544 380.378C481.803 375.383 457.592 402.947 453.586 438.816" fill="#F8A58D"/>
<path d="M518.654 565.413C518.654 565.413 496.845 562.87 476.896 543.984C476.896 543.984 482.476 570.512 516.976 574.229L518.654 565.413" fill="#F68260"/>
<path d="M557.839 472.539C557.419 475.119 554.886 476.888 552.185 476.498C549.491 476.108 547.638 473.706 548.061 471.126C548.482 468.55 551.011 466.774 553.709 467.164C556.413 467.554 558.26 469.962 557.839 472.539Z" fill="#17282F"/>
<path d="M561.65 466.979C560.924 467.491 557.795 464.04 552.572 463.007C547.372 461.907 543.003 463.824 542.565 463.074C542.343 462.735 543.184 461.719 545.095 460.837C546.978 459.953 550.012 459.341 553.261 460.003C556.511 460.669 559.003 462.415 560.332 463.952C561.69 465.506 562.007 466.757 561.65 466.979" fill="#17282F"/>
<path d="M506.303 464.087C505.883 466.663 503.35 468.436 500.649 468.042C497.955 467.652 496.102 465.25 496.525 462.674C496.946 460.094 499.479 458.321 502.176 458.712C504.874 459.098 506.724 461.507 506.303 464.087Z" fill="#17282F"/>
<path d="M510.161 457.702C509.434 458.217 506.296 454.763 501.079 453.733C495.879 452.63 491.513 454.551 491.073 453.797C490.851 453.458 491.685 452.442 493.605 451.561C495.486 450.679 498.523 450.064 501.769 450.726C505.014 451.392 507.514 453.138 508.839 454.675C510.191 456.226 510.511 457.48 510.161 457.702Z" fill="#17282F"/>
<path d="M521.369 500.191C521.403 499.888 524.756 499.976 530.148 500.356C531.507 500.483 532.825 500.47 533.229 499.606C533.733 498.707 533.464 497.157 533.131 495.478C532.519 492.001 531.887 488.358 531.214 484.544C528.631 469.004 527.04 456.33 527.669 456.233C528.295 456.132 530.901 468.651 533.485 484.19C534.093 488.018 534.675 491.664 535.223 495.152C535.422 496.767 535.95 498.66 534.867 500.524C534.309 501.445 533.185 501.973 532.287 502.031C531.379 502.121 530.629 501.987 529.96 501.896C524.611 501.119 521.329 500.49 521.369 500.191Z" fill="#17282F"/>
<path d="M505.287 500.729C506.145 500.85 505.025 506.518 509.068 511.506C513.104 516.508 519.269 517.08 519.155 517.88C519.162 518.25 517.591 518.711 515.028 518.27C512.512 517.856 509.02 516.323 506.545 513.272C504.079 510.214 503.464 506.673 503.736 504.311C503.995 501.896 504.907 500.622 505.287 500.729Z" fill="#17282F"/>
<path d="M515.597 437.521C514.796 438.837 509.72 437.125 503.447 436.637C497.188 436.028 491.894 436.832 491.335 435.399C491.096 434.716 492.223 433.553 494.494 432.577C496.744 431.602 500.164 430.929 503.922 431.255C507.675 431.592 510.925 432.846 512.976 434.198C515.042 435.55 515.95 436.892 515.597 437.521" fill="#17282F"/>
<path d="M562.75 451.493C561.597 452.492 558.246 450.544 553.934 449.623C549.659 448.55 545.791 448.826 545.199 447.42C544.947 446.74 545.764 445.667 547.587 444.867C549.387 444.063 552.205 443.676 555.159 444.359C558.109 445.045 560.47 446.636 561.731 448.15C563.013 449.673 563.272 450.995 562.75 451.493" fill="#17282F"/>
<path d="M451.333 464.517C450.805 464.15 429.382 452.953 425.484 476.316C421.589 499.683 445.847 498.774 445.998 498.112C446.149 497.449 451.333 464.517 451.333 464.517" fill="#F8A58D"/>
<path d="M440.34 488.072C440.246 487.977 439.883 488.287 439.143 488.489C438.42 488.68 437.232 488.701 436.092 488.041C433.775 486.723 432.349 482.461 432.941 478.23C433.233 476.094 434.017 474.143 435.049 472.593C436.045 470.998 437.353 469.993 438.632 469.979C439.917 469.898 440.67 470.79 440.848 471.496C441.053 472.199 440.825 472.643 440.942 472.7C441 472.771 441.507 472.394 441.484 471.395C441.464 470.918 441.282 470.319 440.804 469.781C440.323 469.229 439.54 468.862 438.655 468.809C436.836 468.634 434.935 470.019 433.798 471.721C432.564 473.417 431.635 475.6 431.302 477.998C430.667 482.734 432.342 487.54 435.557 489.081C437.131 489.784 438.581 489.515 439.385 489.081C440.202 488.627 440.411 488.125 440.34 488.072" fill="#F68260"/>
<path d="M580.876 446.159C565.121 447.148 549.074 440.004 539.266 427.636C532.408 418.978 528.045 407.636 518.328 402.382C511.789 398.847 503.743 398.803 496.66 401.054C489.573 403.304 483.323 407.656 477.73 412.554C480.844 431.127 472.587 449.509 464.538 466.532C463.65 468.412 462.634 470.427 460.767 471.348C457.599 472.912 453.818 470.437 451.921 467.457C448.891 462.681 448.534 456.714 448.652 451.06C448.904 438.177 451.168 425.221 456.398 413.445C461.628 401.669 469.943 391.101 480.824 384.196C494.42 375.565 511.55 373.103 527.292 376.503C543.033 379.9 557.328 388.918 568.031 400.953C572.992 406.536 577.314 412.95 579.003 420.229" fill="#17282F"/>
</g>
</g>
<path d="M15.5398 3.00403C48.7299 57.2098 87.8713 115.795 108.18 169.996C145.256 268.944 130.372 367.871 100.643 466.793C70.9133 565.715 26.3382 664.631 11.4544 763.559C-3.4295 862.486 11.3778 961.425 18.7814 1010.89L21.342 1028" stroke="#536372" stroke-width="10"/>
</svg>
