<svg width="781" height="543" viewBox="0 0 781 543" fill="none" xmlns="http://www.w3.org/2000/svg">
<path d="M231.442 542.464C230.67 527.046 229.697 513.29 220.539 500.862C211.381 488.436 191.045 483.076 180.507 494.356C182.246 475.248 170.848 455.638 153.384 447.69C135.921 439.744 113.648 444.032 100.384 457.895C95.877 440.502 76.9083 442.497 58.9748 441.397C41.0414 440.299 21.1 464.976 14.5898 495.815C14.5898 495.815 3.6943 541.597 4.99215 542.03C6.29 542.464 231.442 542.464 231.442 542.464Z" fill="#F3F2F1"/>
<path d="M596.25 508.099C587.258 496.98 569.878 491.417 558.255 499.746C556.914 486.898 549.113 474.891 537.92 468.444C526.725 461.997 512.425 461.278 500.64 466.566C502.369 445.125 485.938 423.74 464.778 419.886C443.615 416.031 420.7 430.25 414.759 450.924C384.585 447.06 353.416 469.779 347.86 499.686C334.611 494.454 318.84 496.147 307.004 504.071C295.168 511.996 286.319 528.525 286.11 542.768L608.702 542.464C607.108 528.253 605.241 519.218 596.25 508.099Z" fill="#E7E8E5"/>
<path d="M459.65 9.01018L450.397 105.769C450.397 105.769 449.981 112.456 443.708 114.18C437.434 115.904 430.825 88.8658 430.825 88.8658L424.314 91.7216L439.469 125.673L447.486 152.573L451.835 218.601L441.318 542.519L476.403 542.624C476.403 542.624 472.707 234.269 473.54 220.896C474.371 207.523 501.654 168.288 501.654 168.288L500.791 159.511L472.336 197.755L487.284 9.02038L459.65 9.01018Z" fill="#DADBD8"/>
<path d="M14.2584 8.40828C14.2584 8.40828 34.0576 123.275 40.0043 138.735C45.9506 154.196 51.8965 172.035 51.8965 172.035L94.4207 95.4857L101.461 99.2897L57.8428 185.117C57.8428 185.117 81.6281 213.659 82.8173 238.633C84.0064 263.608 82.8173 305.232 82.8173 305.232L103.978 542.704H69.7355V306.421C69.7355 306.421 76.871 245.769 73.3035 235.066C69.7355 224.362 49.5177 189.874 49.5177 189.874C49.5177 189.874 27.8407 162.52 25.0027 135.167C22.1653 107.814 4.99121 8.40828 4.99121 8.40828H14.2584Z" fill="#DADBD8"/>
<path d="M283.964 9.19422C283.964 9.19422 256.986 69.1251 252.932 101.602L235.793 56.4267C229.734 60.9915 247.875 120.884 247.875 120.884C247.875 120.884 234.265 187.865 234.473 222.374C234.684 256.883 234.386 393.905 234.386 393.905L201.685 542.875L238.727 543C238.727 543 254.794 415.229 253.792 402.034C252.789 388.839 252.873 219.339 252.873 219.339C252.873 219.339 259.979 139.16 266.048 115.818C272.117 92.4768 309.002 9.20669 309.002 9.20669L283.964 9.19422" fill="#E7E8E5"/>
<path d="M739.01 8.77735C739.01 8.77735 715.835 67.5886 713.503 100.061L694.001 56.1041C688.192 60.9584 709.471 119.48 709.471 119.48C709.471 119.48 699.419 186.729 701.451 220.992C703.484 255.256 710.425 391.361 710.425 391.361L685.642 541.057L722.637 539.213C722.637 539.213 731.932 411.457 730.233 398.406C728.534 385.352 719.665 217.001 719.665 217.001C719.665 217.001 722.525 136.989 727.352 113.485C732.179 89.9785 762.812 8.77735 762.812 8.77735H739.01Z" fill="#E7E8E5"/>
<path d="M118.445 146.847C105.16 149.776 94.6569 162.388 94.1797 175.982C107.737 174.365 118.995 161.496 118.796 147.844" fill="#F3F2F1"/>
<path d="M601.43 38.9912C603.777 47.5222 612.32 53.9231 621.167 53.7789C619.663 45.0252 610.927 38.143 602.066 38.73" fill="#DADBD8"/>
<path d="M630.47 111.279C637.973 117.289 649.57 117.475 657.261 111.708C650.358 104.966 638.287 104.479 630.863 110.642" fill="#F3F2F1"/>
<path d="M214.887 203.151C213.992 210.688 218.708 218.535 225.782 221.281C227.418 213.843 222.706 205.551 215.478 203.15" fill="#DADBD8"/>
<path d="M136.04 192.594C135.146 200.13 139.862 207.977 146.937 210.724C148.572 203.285 143.859 194.993 136.631 192.593" fill="#DADBD8"/>
<path d="M413.427 46.2377C409.757 52.8793 411.166 61.9259 416.682 67.1367C421.002 60.8642 419.764 51.4077 413.975 46.458" fill="#DADBD8"/>
<path d="M382.621 112.85C356.172 112.85 334.73 91.4093 334.73 64.96C334.73 53.773 338.568 43.4807 344.998 35.3289C335.655 44.0689 329.812 56.505 329.812 70.307C329.812 96.7564 351.254 118.197 377.702 118.197C392.964 118.197 406.556 111.059 415.326 99.9392C406.766 107.946 395.266 112.85 382.621 112.85" fill="#DADBD8"/>
<path d="M217.092 71.3359L221.024 72.8144L217.182 74.2723C216.064 74.6982 215.188 75.5918 214.785 76.7182L213.488 80.3496L212.281 76.7636C211.885 75.5884 210.979 74.6584 209.816 74.2315L205.953 72.8144L209.768 71.4166C210.919 70.9953 211.819 70.079 212.221 68.9219L213.488 65.2792L214.652 68.797C215.041 69.9677 215.938 70.901 217.092 71.3359" fill="#DADBD8"/>
<path d="M527.668 114.995L531.598 116.473L527.757 117.931C526.638 118.356 525.762 119.25 525.359 120.377L524.063 124.01L522.856 120.423C522.46 119.249 521.553 118.317 520.39 117.891L516.527 116.473L520.343 115.077C521.493 114.654 522.395 113.739 522.796 112.581L524.063 108.938L525.228 112.455C525.615 113.627 526.512 114.56 527.668 114.995" fill="#DADBD8"/>
<path d="M542.183 75.3157L544.148 76.0549L542.229 76.7839C541.669 76.9962 541.23 77.4425 541.029 78.0068L540.381 79.8225L539.777 78.0295C539.579 77.4425 539.125 76.9769 538.545 76.7634L536.612 76.0549L538.52 75.3566C539.096 75.1454 539.545 74.6877 539.747 74.1086L540.381 72.2873L540.964 74.0462C541.157 74.631 541.605 75.0976 542.183 75.3157" fill="#DADBD8"/>
<path d="M192.047 115.483L194.013 116.224L192.093 116.951C191.533 117.164 191.095 117.611 190.894 118.176L190.245 119.991L189.642 118.197C189.443 117.61 188.99 117.145 188.409 116.931L186.478 116.224L188.385 115.524C188.96 115.314 189.411 114.855 189.612 114.276L190.245 112.455L190.828 114.214C191.021 114.8 191.469 115.266 192.047 115.483" fill="#DADBD8"/>
<path d="M375.981 53.0406L377.946 53.781L376.026 54.5099C375.466 54.7223 375.028 55.1686 374.827 55.7318L374.179 57.5486L373.575 55.7545C373.377 55.1674 372.924 54.7018 372.343 54.4884L370.411 53.781L372.319 53.0815C372.893 52.8703 373.344 52.4127 373.545 51.8336L374.179 50.0122L374.76 51.7711C374.954 52.3571 375.403 52.8237 375.981 53.0406" fill="#DADBD8"/>
<path d="M313.373 184.616C316.448 181.877 316.405 177.626 315.428 174.023C318.59 171.76 320.579 166.767 316.837 164.01C322.72 160.268 316.82 152.072 310.875 154.224C313.056 147.849 301.386 145.866 298.851 150.654C296.249 145.438 287.811 149.773 287.466 154.667C285.187 153.139 280.876 153.016 280.361 156.342C278.569 153.731 271.783 154.601 272.647 158.499C268.005 157.419 265.79 164.291 270.185 166.126C267.175 168.273 267.652 173.267 271.014 174.808C268.959 175.726 270.89 178.237 272.684 177.909C273.535 183.936 270.553 193.562 277.446 196.631" fill="#17282F"/>
<path d="M276.818 218.319L284.875 229.446L296.186 241.23L303.167 232.058C303.272 227.772 303.488 219.048 303.594 214.797C318.58 213.415 314.335 193.765 314.15 178.327C313.74 167.828 304.952 159.6 294.478 159.685C283.613 159.902 277.727 169.251 278.243 180.105L276.818 214.895" fill="#F8A58D"/>
<path d="M303.605 214.79C303.605 214.79 296.999 215.074 290.17 210.408C290.17 210.408 293.093 218.031 303.526 217.491L303.605 214.79" fill="#F68260"/>
<path d="M311.071 186.712C311.104 188.539 308.072 188.623 308.095 186.757C308.062 184.928 311.094 184.847 311.071 186.712Z" fill="#17282F"/>
<path d="M311.892 182.793C310.137 181.981 307.802 181.921 306.031 182.542C306.59 180.581 311.549 180.737 311.892 182.793Z" fill="#17282F"/>
<path d="M296.014 185.704C296.047 187.531 293.015 187.615 293.039 185.749C293.006 183.919 296.038 183.838 296.014 185.704Z" fill="#17282F"/>
<path d="M295.952 181.729C294.121 181.112 291.792 181.305 290.099 182.114C290.443 180.105 295.387 179.722 295.952 181.729Z" fill="#17282F"/>
<path d="M301.317 195.127C300.915 194.882 304.284 195.07 304.817 194.388C304.321 191.58 300.573 181.767 301.098 181.757C301.28 181.697 302.65 185.294 304.159 189.792C304.534 191.503 305.595 192.856 305.347 194.583C304.911 195.744 301.132 195.097 301.317 195.127" fill="#17282F"/>
<path d="M296.616 176.045C296.446 176.293 289.508 176.785 289.302 176.569C289.9 174.423 295.717 174.006 296.616 176.045Z" fill="#17282F"/>
<path d="M311.849 175.691C311.441 175.876 306.815 175.552 306.436 175.316C306.657 173.256 311.913 173.622 311.849 175.691Z" fill="#17282F"/>
<path d="M312.441 160.27L311.711 159.93C314.243 153.163 303.921 150.516 301.147 156.56C300.003 154.257 297.113 152.985 294.642 153.697C291.987 154.164 290.729 157.347 288.425 158.195C280.613 149.695 267.078 164.696 275.197 170.096C272.752 173.115 274.07 178.03 277.696 179.42C280.512 188.27 293.065 180.819 286.654 174.11C290.16 175.816 294.649 173.287 295.009 169.405C297.19 172.68 306.965 172.97 304.337 167.523C308.873 169.925 314.326 165.042 312.441 160.27Z" fill="#17282F"/>
<path d="M282.522 181.831C282.756 184.662 282.731 194.847 277.979 190.665C276.286 186.737 277.1 182.09 276.976 177.891" fill="#17282F"/>
<path d="M278.797 187.853C268.665 184.348 269.995 201.134 278.811 198.096C278.824 197.891 278.797 187.853 278.797 187.853Z" fill="#F8A58D"/>
<path d="M276.649 195.38C273.563 197.468 273.003 188.697 276.011 190.427C276.31 191.429 276.361 189.476 275.232 189.734C271.95 190.313 273.88 198.077 276.649 195.38Z" fill="#F68260"/>
<path d="M272.422 508.796L272.917 530.249C272.917 530.249 251.279 537.956 250.983 541.931L292.612 542.464L293.212 509.007L272.422 508.796" fill="#F03D5F"/>
<path d="M285.393 531.77C285.274 531.77 285.154 531.755 285.035 531.723C284.228 531.507 283.54 530.43 283.827 529.647C283.968 529.263 284.308 528.923 284.703 528.723L286.128 528.743C286.751 529.09 287.133 529.866 286.962 530.565C286.794 531.259 286.096 531.77 285.393 531.77Z" fill="#F89DB4"/>
<path d="M286.118 542.381L250.984 541.931C250.844 540.978 251.793 540.305 252.32 540.008C251.515 540.704 251.027 541.356 250.984 541.931L286.118 542.381" fill="white"/>
<path d="M292.612 542.464L286.118 542.381L250.983 541.931C251.027 541.356 251.515 540.704 252.32 540.008C252.516 539.897 252.655 539.839 252.655 539.839L292.541 539.09L292.612 542.464" fill="#F89DB4"/>
<path d="M272.245 530.03C272.25 530.231 273.265 530.337 274.256 531.004C275.266 531.645 275.77 532.531 275.958 532.453C276.146 532.416 275.858 531.197 274.643 530.412C273.435 529.615 272.204 529.842 272.245 530.03Z" fill="#17282F"/>
<path d="M267.855 531.779C267.807 531.975 268.683 532.332 269.362 533.201C270.067 534.049 270.229 534.981 270.432 534.974C270.623 535.009 270.778 533.821 269.913 532.757C269.058 531.686 267.863 531.585 267.855 531.779" fill="#17282F"/>
<path d="M265.309 536.973C265.492 537.018 265.788 536.005 265.28 534.886C264.781 533.763 263.828 533.311 263.739 533.479C263.622 533.645 264.232 534.25 264.634 535.176C265.059 536.092 265.106 536.949 265.309 536.973" fill="#17282F"/>
<path d="M272.674 525.127C272.757 525.314 273.693 525.046 274.841 525.138C275.991 525.208 276.88 525.604 276.988 525.432C277.108 525.286 276.245 524.522 274.89 524.432C273.538 524.331 272.576 524.967 272.674 525.127" fill="#17282F"/>
<path d="M272.653 520.798C272.651 520.882 273.453 521.018 274.739 520.814C275.38 520.711 276.135 520.513 276.93 520.172C277.325 520.002 277.731 519.796 278.134 519.551C278.327 519.432 278.557 519.309 278.77 519.069C278.997 518.86 279.133 518.323 278.877 517.99C278.668 517.667 278.292 517.524 277.992 517.513C277.686 517.499 277.436 517.558 277.209 517.611C276.745 517.718 276.307 517.866 275.908 518.039C275.107 518.392 274.455 518.84 273.968 519.276C272.991 520.158 272.652 520.913 272.721 520.953C272.812 521.023 273.29 520.391 274.283 519.667C274.778 519.304 275.408 518.933 276.155 518.642C276.53 518.498 276.933 518.377 277.358 518.288C277.799 518.178 278.174 518.179 278.285 518.378C278.325 518.453 278.331 518.483 278.237 518.611C278.14 518.729 277.96 518.842 277.769 518.963C277.397 519.198 277.025 519.401 276.659 519.578C275.928 519.929 275.232 520.165 274.635 520.324C273.437 520.642 272.652 520.687 272.653 520.798" fill="#17282F"/>
<path d="M272.915 521.093C272.986 521.125 273.4 520.401 273.491 519.087C273.534 518.434 273.477 517.641 273.236 516.8C273.114 516.38 272.944 515.95 272.721 515.526C272.482 515.113 272.192 514.558 271.405 514.458C270.994 514.437 270.646 514.754 270.526 515.028C270.385 515.307 270.354 515.549 270.303 515.79C270.22 516.274 270.223 516.751 270.284 517.193C270.403 518.081 270.756 518.823 271.146 519.358C271.945 520.448 272.791 520.702 272.809 520.633C272.879 520.531 272.175 520.13 271.566 519.085C271.265 518.571 271 517.893 270.931 517.118C270.895 516.733 270.906 516.323 270.984 515.914C271.055 515.472 271.226 515.118 271.391 515.165C271.598 515.165 271.945 515.503 272.111 515.857C272.321 516.233 272.486 516.617 272.613 516.994C272.865 517.749 272.969 518.471 272.991 519.079C273.032 520.301 272.805 521.06 272.915 521.093" fill="#17282F"/>
<path d="M345.424 508.957L344.617 530.398C344.617 530.398 366.14 538.419 366.376 542.397L324.745 542.326L324.632 508.865L345.424 508.957" fill="#F03D5F"/>
<path d="M332.141 531.737C331.431 531.737 330.728 531.212 330.568 530.509C330.498 530.196 330.536 529.869 330.658 529.572L333.626 529.433C333.663 529.5 333.693 529.568 333.717 529.637C333.993 530.424 333.289 531.492 332.479 531.695C332.368 531.723 332.254 531.737 332.141 531.737Z" fill="#F89DB4"/>
<path d="M366.377 542.397L324.746 542.326L366.377 542.397C366.343 541.823 365.865 541.164 365.072 540.458C365.595 540.762 366.532 541.449 366.377 542.397" fill="#F6F6F4"/>
<path d="M366.377 542.397L324.746 542.326L324.868 538.952L364.738 540.283C364.738 540.283 364.876 540.343 365.072 540.458C365.865 541.164 366.343 541.823 366.377 542.397" fill="#F89DB4"/>
<path d="M345.292 530.187C345.285 530.391 344.269 530.481 343.267 531.133C342.249 531.759 341.732 532.639 341.545 532.558C341.358 532.518 341.663 531.303 342.889 530.536C344.109 529.756 345.336 530.001 345.292 530.187" fill="#17282F"/>
<path d="M349.655 532.001C349.701 532.198 348.82 532.543 348.129 533.4C347.411 534.24 347.235 535.168 347.033 535.16C346.842 535.191 346.703 534 347.584 532.95C348.455 531.89 349.651 531.807 349.655 532.001" fill="#17282F"/>
<path d="M352.127 537.231C351.943 537.275 351.662 536.259 352.186 535.146C352.702 534.029 353.66 533.591 353.746 533.761C353.861 533.929 353.243 534.526 352.827 535.444C352.389 536.355 352.329 537.212 352.127 537.231" fill="#17282F"/>
<path d="M344.934 525.281C344.849 525.466 343.917 525.184 342.768 525.259C341.616 525.312 340.722 525.696 340.617 525.523C340.499 525.375 341.373 524.624 342.728 524.553C344.082 524.472 345.034 525.121 344.934 525.281Z" fill="#17282F"/>
<path d="M345.017 520.952C345.019 521.036 344.215 521.16 342.932 520.937C342.293 520.826 341.541 520.616 340.752 520.264C340.358 520.088 339.955 519.876 339.555 519.627C339.364 519.502 339.136 519.378 338.927 519.135C338.702 518.922 338.575 518.383 338.835 518.053C339.05 517.734 339.427 517.596 339.727 517.591C340.034 517.581 340.283 517.642 340.509 517.699C340.972 517.812 341.406 517.968 341.805 518.146C342.599 518.509 343.244 518.969 343.725 519.411C344.689 520.307 345.018 521.068 344.948 521.106C344.856 521.173 344.387 520.536 343.406 519.797C342.915 519.428 342.289 519.048 341.547 518.746C341.175 518.596 340.775 518.469 340.351 518.375C339.909 518.257 339.535 518.254 339.421 518.45C339.38 518.525 339.375 518.554 339.467 518.683C339.562 518.803 339.74 518.919 339.93 519.042C340.297 519.283 340.667 519.492 341.029 519.675C341.755 520.036 342.449 520.283 343.043 520.45C344.236 520.784 345.02 520.842 345.017 520.952" fill="#17282F"/>
<path d="M344.753 521.243C344.68 521.275 344.278 520.544 344.205 519.228C344.171 518.576 344.241 517.783 344.494 516.946C344.622 516.528 344.798 516.1 345.027 515.681C345.272 515.27 345.57 514.719 346.359 514.63C346.77 514.616 347.112 514.938 347.229 515.214C347.365 515.496 347.393 515.738 347.442 515.979C347.518 516.465 347.507 516.941 347.44 517.382C347.308 518.268 346.944 519.006 346.547 519.534C345.73 520.612 344.882 520.855 344.865 520.785C344.798 520.682 345.507 520.291 346.131 519.256C346.439 518.745 346.713 518.071 346.794 517.298C346.836 516.912 346.831 516.504 346.758 516.092C346.693 515.65 346.529 515.293 346.363 515.338C346.155 515.335 345.803 515.666 345.633 516.019C345.418 516.393 345.247 516.775 345.114 517.149C344.851 517.901 344.736 518.621 344.706 519.228C344.647 520.45 344.863 521.212 344.753 521.243" fill="#17282F"/>
<path d="M330.533 330.555L350.235 528.655L324.777 529.848L294.521 367.278L294.893 528.858L267.854 528.502L257.439 328.455L330.533 330.555" fill="#17282F"/>
<path d="M274.155 344.693C274.212 344.718 273.906 345.572 273.061 346.757C272.227 347.941 270.781 349.402 268.841 350.505C266.894 351.6 264.897 352.088 263.452 352.192C262.001 352.304 261.112 352.127 261.119 352.065C261.125 351.965 262.011 351.992 263.403 351.778C264.791 351.57 266.682 351.042 268.549 349.99C270.411 348.931 271.837 347.585 272.732 346.502C273.631 345.42 274.066 344.645 274.155 344.693" fill="#33535F"/>
<path d="M332.671 346.924C332.698 346.98 331.794 347.496 330.185 347.949C328.582 348.405 326.248 348.712 323.704 348.406C321.158 348.092 318.965 347.234 317.52 346.407C316.065 345.579 315.312 344.861 315.352 344.815C315.411 344.733 316.247 345.325 317.713 346.035C319.174 346.75 321.311 347.514 323.775 347.819C326.238 348.114 328.496 347.885 330.086 347.543C331.681 347.204 332.633 346.83 332.671 346.924Z" fill="#33535F"/>
<path d="M299.055 361.963C299.079 361.972 298.947 362.29 298.419 362.522C297.907 362.739 296.996 362.757 296.147 362.169C295.291 361.565 294.798 360.41 294.488 359.202C294.177 357.97 293.844 356.653 293.495 355.27C292.81 352.479 292.219 349.945 291.822 348.103C291.424 346.261 291.218 345.112 291.297 345.092C291.377 345.074 291.726 346.186 292.228 348.003C292.73 349.82 293.383 352.339 294.069 355.13C294.402 356.514 294.72 357.832 295.015 359.066C295.29 360.255 295.71 361.291 296.399 361.835C297.088 362.374 297.882 362.432 298.345 362.304C298.824 362.169 299.017 361.924 299.055 361.963" fill="#33535F"/>
<path d="M296.266 345.07C296.26 345.039 296.391 344.957 296.659 344.954C296.924 344.949 297.323 345.059 297.694 345.376C298.05 345.689 298.412 346.232 298.351 346.937C298.303 347.655 297.653 348.284 296.907 348.438C296.168 348.617 295.312 348.326 294.962 347.697C294.606 347.086 294.702 346.438 294.888 346.005C295.089 345.561 295.403 345.289 295.646 345.183C295.889 345.07 296.042 345.088 296.05 345.119C296.092 345.204 295.515 345.379 295.28 346.152C295.171 346.517 295.161 347.02 295.422 347.406C295.667 347.798 296.225 347.984 296.779 347.86C297.331 347.736 297.757 347.329 297.81 346.87C297.882 346.41 297.659 345.96 297.404 345.676C296.861 345.078 296.264 345.166 296.266 345.07" fill="#33535F"/>
<path d="M294.151 522.445C294.146 522.53 292.669 522.514 290.287 522.496C287.905 522.476 284.614 522.47 280.981 522.566C277.349 522.663 274.064 522.844 271.685 522.989C269.306 523.136 267.833 523.23 267.824 523.145C267.82 523.104 268.182 523.029 268.844 522.926C269.504 522.821 270.462 522.7 271.651 522.574C274.025 522.321 277.319 522.073 280.967 521.975C284.612 521.879 287.914 521.95 290.299 522.078C291.492 522.14 292.456 522.211 293.121 522.28C293.786 522.348 294.153 522.404 294.151 522.445" fill="#33535F"/>
<path d="M348.914 520.006C348.933 520.168 343.343 520.983 336.431 521.824C329.515 522.666 323.895 523.219 323.875 523.056C323.856 522.894 329.444 522.081 336.36 521.237C343.272 520.395 348.894 519.844 348.914 520.006Z" fill="#33535F"/>
<path d="M332.85 441.397C332.99 441.481 330.616 445.675 327.548 450.76C324.478 455.848 321.878 459.902 321.738 459.818C321.599 459.732 323.972 455.541 327.041 450.454C330.109 445.368 332.711 441.313 332.85 441.397" fill="#33535F"/>
<path d="M285.069 444.758C285.217 444.825 283.575 448.749 281.401 453.518C279.226 458.29 277.343 462.101 277.195 462.034C277.046 461.966 278.688 458.044 280.863 453.272C283.037 448.503 284.92 444.689 285.069 444.758" fill="#33535F"/>
<path d="M287.39 461.874C287.317 461.92 286.597 460.938 285.432 459.355C284.268 457.774 282.643 455.602 280.774 453.261C278.901 450.924 277.138 448.862 275.85 447.379C274.562 445.895 273.761 444.977 273.823 444.918C273.878 444.864 274.786 445.679 276.157 447.096C277.53 448.514 279.354 450.541 281.236 452.892C283.116 455.244 284.695 457.467 285.775 459.117C286.856 460.767 287.454 461.832 287.39 461.874" fill="#33535F"/>
<path d="M261.672 227.081C261.672 227.081 248.197 234.366 245.465 235.95C242.506 237.667 233.726 254.997 234.706 263.817C235.685 272.635 236.385 271.095 235.685 272.635C234.985 274.175 232.597 284.815 234.631 289.153C236.666 293.492 244.365 302.172 248.844 303.011C253.324 303.851 276.28 271.992 278.94 265.595C281.599 259.198 280.2 252.198 280.2 252.198L268.486 246.977L261.672 227.081" fill="#F03D5F"/>
<path d="M251.212 290.541C251.212 291.604 251.212 323.498 251.212 328.547C251.212 333.597 257.198 342.633 257.198 342.633H294.002H330.946C330.946 342.633 334.135 326.686 333.603 319.511C333.072 312.335 327.491 245.092 327.491 245.092L325.63 226.488L305.963 221.703L304.934 217.519L275.069 213.963L273.483 220.872L260.75 227.58C260.75 228.643 251.212 290.541 251.212 290.541" fill="#F03D5F"/>
<path d="M325.629 226.488C325.629 226.488 332.366 230.009 336.178 236.87C339.989 243.73 352.184 282.349 352.693 287.175C353.201 292.002 353.455 298.61 352.693 299.117C351.93 299.625 354.979 317.41 355.995 322.237C357.011 327.065 359.264 339.65 358.502 345.749C357.74 351.847 357.774 355.267 357.774 355.267L341.005 350.186L341.584 344.314C341.584 344.314 338.245 334.11 335.924 326.811C333.603 319.511 324.237 251.098 324.237 251.098L325.629 226.488" fill="#F03D5F"/>
<path d="M332.179 335.664C332.18 335.683 331.905 335.715 331.378 335.756C330.792 335.794 330.026 335.844 329.074 335.907C327.071 336.028 324.171 336.16 320.587 336.288C313.417 336.548 303.507 336.728 292.563 336.635C281.614 336.537 271.708 336.204 264.543 335.878C260.96 335.716 258.061 335.561 256.061 335.433C255.107 335.366 254.342 335.313 253.757 335.272C253.23 335.229 252.954 335.197 252.955 335.175C252.956 335.155 253.233 335.148 253.762 335.153C254.348 335.165 255.116 335.182 256.071 335.203C258.143 335.265 261.025 335.353 264.559 335.46C271.725 335.68 281.627 335.946 292.567 336.044C303.504 336.137 313.407 336.024 320.576 335.87C324.108 335.79 326.991 335.723 329.064 335.675C330.02 335.66 330.786 335.647 331.373 335.636C331.901 335.634 332.179 335.642 332.179 335.664" fill="#17282F"/>
<path d="M280.568 252.399C280.587 252.392 280.666 252.594 280.797 252.986C280.913 253.382 281.154 253.951 281.312 254.722C281.709 256.244 282.044 258.53 281.911 261.354C281.797 264.179 281.033 267.505 279.632 270.96C278.209 274.411 276.133 277.974 273.589 281.429C268.477 288.366 262.502 293.459 258.125 296.935C255.922 298.673 254.093 300.015 252.815 300.925C252.216 301.341 251.725 301.681 251.332 301.955C250.989 302.183 250.803 302.297 250.791 302.28C250.779 302.264 250.942 302.119 251.262 301.858C251.638 301.562 252.105 301.192 252.678 300.741C253.911 299.776 255.699 298.385 257.863 296.61C262.163 293.058 268.053 287.947 273.112 281.08C275.634 277.654 277.699 274.141 279.129 270.751C280.535 267.357 281.328 264.102 281.495 261.326C281.679 258.555 281.412 256.295 281.087 254.772C280.768 253.247 280.511 252.416 280.568 252.399" fill="#17282F"/>
<path d="M268.236 245.872C268.261 245.906 267.886 246.241 267.203 246.832C266.532 247.438 265.566 248.316 264.441 249.473C262.156 251.758 259.38 255.265 255.924 258.84C252.471 262.436 248.648 264.952 245.747 266.412C244.295 267.152 243.075 267.654 242.221 267.967C241.368 268.28 240.881 268.409 240.869 268.375C240.83 268.278 242.722 267.594 245.55 266.043C248.376 264.5 252.091 261.978 255.502 258.425C258.922 254.889 261.768 251.404 264.145 249.177C265.318 248.049 266.337 247.21 267.057 246.655C267.79 246.114 268.212 245.842 268.236 245.872" fill="#17282F"/>
<path d="M293.326 216.137C293.337 216.136 293.354 216.239 293.378 216.443C293.401 216.683 293.432 216.982 293.47 217.354C293.53 218.199 293.614 219.37 293.721 220.854C293.918 223.896 294.179 228.297 294.463 233.737C295.031 244.619 295.734 259.655 296.27 276.271C296.808 292.895 297.066 307.949 296.991 318.848C296.994 321.573 296.941 324.037 296.889 326.203C296.844 328.366 296.805 330.23 296.715 331.752C296.637 333.239 296.574 334.41 296.53 335.256C296.504 335.627 296.483 335.928 296.466 336.167C296.449 336.372 296.434 336.477 296.425 336.477C296.415 336.474 296.408 336.37 296.406 336.163C296.407 335.924 296.408 335.624 296.411 335.25C296.428 334.404 296.454 333.232 296.484 331.744C296.54 330.223 296.545 328.36 296.558 326.197C296.579 324.034 296.602 321.572 296.573 318.848C296.541 307.956 296.216 292.908 295.678 276.291C295.142 259.679 294.506 244.641 294.045 233.758C293.813 228.349 293.624 223.957 293.491 220.866C293.431 219.38 293.384 218.207 293.35 217.361C293.337 216.99 293.326 216.69 293.317 216.451C293.313 216.246 293.316 216.139 293.326 216.137" fill="#17282F"/>
<path d="M277.884 301.653C277.933 301.703 277.015 302.696 275.364 304.127C273.716 305.558 271.305 307.392 268.44 309.104C265.572 310.813 262.812 312.064 260.772 312.836C258.729 313.611 257.419 313.947 257.397 313.879C257.367 313.791 258.626 313.317 260.613 312.449C262.6 311.585 265.299 310.287 268.137 308.596C270.972 306.902 273.395 305.142 275.1 303.804C276.805 302.467 277.821 301.585 277.884 301.653" fill="#17282F"/>
<path d="M329.57 312.178C329.526 312.243 328.647 311.736 327.296 310.813C325.945 309.89 324.129 308.539 322.219 306.928C320.31 305.316 318.672 303.753 317.535 302.576C316.397 301.4 315.751 300.618 315.807 300.565C315.868 300.505 316.62 301.182 317.826 302.275C319.032 303.371 320.703 304.874 322.601 306.476C324.498 308.076 326.261 309.471 327.544 310.476C328.826 311.481 329.618 312.109 329.57 312.178" fill="#17282F"/>
<path d="M330.276 279.433C330.296 279.43 330.348 279.621 330.428 279.985C330.514 280.419 330.621 280.949 330.749 281.591C331.022 282.984 331.359 285.012 331.717 287.527C332.443 292.555 333.144 299.555 333.325 307.309C333.526 315.066 333.22 322.085 332.926 327.153C332.766 329.687 332.619 331.737 332.487 333.151C332.423 333.8 332.37 334.337 332.326 334.778C332.283 335.149 332.25 335.343 332.23 335.342C332.211 335.341 332.203 335.144 332.207 334.77C332.221 334.328 332.238 333.788 332.257 333.135C332.32 331.628 332.405 329.599 332.508 327.133C332.695 322.064 332.934 315.058 332.733 307.325C332.554 299.592 331.921 292.613 331.302 287.582C330.999 285.065 330.724 283.031 330.522 281.627C330.437 280.979 330.368 280.444 330.31 280.006C330.268 279.634 330.256 279.437 330.276 279.433" fill="#17282F"/>
<path d="M276.097 256.292C275.951 256.208 276.451 255.104 276.983 253.723C277.52 252.345 277.892 251.193 278.057 251.227C278.213 251.258 278.09 252.507 277.533 253.937C276.982 255.368 276.232 256.375 276.097 256.292Z" fill="#17282F"/>
<path d="M269.912 253.24C269.776 253.15 270.302 252.115 271.087 250.928C271.873 249.741 272.62 248.852 272.757 248.942C272.893 249.032 272.367 250.067 271.58 251.254C270.796 252.441 270.048 253.33 269.912 253.24" fill="#17282F"/>
<path d="M265.679 250.232C265.571 250.112 266.354 249.227 267.52 248.365C268.683 247.501 269.761 247.009 269.843 247.148C269.928 247.29 269.01 247.995 267.873 248.839C266.733 249.682 265.79 250.355 265.679 250.232" fill="#17282F"/>
<path d="M252.685 261.467C252.62 261.678 249.515 260.229 245.43 260.164C243.5 260.142 241.781 260.435 240.496 260.728C239.062 261.056 238.172 261.383 238.141 261.272C238.115 261.206 238.861 260.808 240.16 260.38C241.456 259.957 243.333 259.548 245.438 259.572C247.542 259.605 249.407 260.065 250.691 260.522C251.977 260.985 252.713 261.403 252.685 261.467" fill="#17282F"/>
<path d="M262.479 247.43C262.381 247.473 261.927 246.42 260.892 244.915C259.867 243.41 258.169 241.507 255.869 239.945C253.562 238.391 251.162 237.525 249.384 237.133C247.602 236.735 246.456 236.704 246.459 236.599C246.46 236.557 246.746 236.534 247.267 236.528C247.789 236.51 248.545 236.572 249.466 236.723C251.308 237.018 253.817 237.851 256.201 239.454C258.576 241.069 260.284 243.087 261.242 244.687C261.726 245.486 262.064 246.164 262.243 246.655C262.431 247.141 262.516 247.414 262.479 247.43" fill="#17282F"/>
<path d="M251.094 301.997C250.891 301.958 250.688 301.916 250.484 301.871C250.729 301.714 250.97 301.559 251.212 301.402C251.212 301.566 251.212 301.732 251.212 301.899C251.169 301.934 251.13 301.966 251.094 301.997Z" fill="#BA2C42"/>
<path d="M254.345 302.296C253.306 302.296 252.263 302.207 251.231 302.022C251.263 302.002 251.297 301.979 251.332 301.955C251.725 301.681 252.216 301.341 252.815 300.925C254.093 300.016 255.922 298.673 258.125 296.935C262.502 293.459 268.477 288.366 273.589 281.43C276.133 277.974 278.209 274.411 279.633 270.96C280.198 269.566 280.659 268.193 281.016 266.864C282.587 269.701 281.542 272.599 280.647 275.807C278.667 282.884 275.659 289.882 270.485 295.101C266.231 299.39 260.303 302.297 254.345 302.296ZM251.212 301.899C251.212 301.732 251.212 301.567 251.212 301.402C252.655 300.468 254.057 299.533 255.419 298.584C254.336 299.447 253.409 300.169 252.678 300.741C252.106 301.192 251.638 301.562 251.262 301.859C251.245 301.872 251.228 301.886 251.212 301.899" fill="#BA2C42"/>
<path d="M251.231 302.022C251.185 302.014 251.139 302.006 251.094 301.997C251.13 301.966 251.169 301.935 251.212 301.899C251.228 301.886 251.245 301.872 251.262 301.858C251.638 301.562 252.105 301.192 252.678 300.741C253.409 300.169 254.336 299.447 255.419 298.584C260.541 295.015 265.104 291.236 269.261 286.408C271.37 283.957 274.139 280.712 275.718 277.806C277.797 273.975 279.505 270.721 280.845 266.574C280.905 266.67 280.962 266.767 281.015 266.864C280.659 268.193 280.198 269.566 279.632 270.96C278.209 274.411 276.133 277.974 273.589 281.43C268.477 288.366 262.502 293.459 258.125 296.935C255.922 298.673 254.093 300.016 252.815 300.925C252.216 301.341 251.725 301.681 251.332 301.955C251.297 301.979 251.263 302.002 251.231 302.022Z" fill="#0F191D"/>
<path d="M270.802 330.453C270.096 330.453 269.391 330.39 268.701 330.268C266.905 329.947 265.041 329.124 264.203 327.504L264.542 327.581C265.997 327.816 267.486 327.978 268.963 327.978C270.619 327.978 272.26 327.774 273.823 327.235C276.781 326.214 279.41 323.784 279.914 320.696C280.65 323.526 279.334 326.667 277.024 328.459C275.267 329.82 273.035 330.453 270.802 330.453Z" fill="#BA2C42"/>
<path d="M298.717 340.952C292.666 340.952 286.614 340.423 280.58 339.895C273.55 339.279 265.727 338.3 259.164 335.614C260.713 335.697 262.518 335.786 264.543 335.878C271.708 336.204 281.614 336.537 292.563 336.634C294.562 336.651 296.526 336.659 298.446 336.659C307.036 336.659 314.728 336.5 320.587 336.288C321.897 336.242 323.117 336.194 324.234 336.147C317.685 339.172 310.432 340.495 303.217 340.846C301.717 340.92 300.217 340.952 298.717 340.952V340.952ZM313.809 335.988C320.157 335.854 325.143 335.715 325.143 335.715C325.106 335.733 325.069 335.75 325.032 335.768C323.695 335.799 322.204 335.833 320.576 335.87C318.529 335.915 316.261 335.954 313.809 335.988ZM281.225 335.883C275.7 335.777 270.684 335.643 266.461 335.518C270.847 335.618 276.374 335.75 281.225 335.883Z" fill="#BA2C42"/>
<path d="M298.445 336.659C296.525 336.659 294.562 336.651 292.562 336.634C281.614 336.537 271.708 336.204 264.543 335.878C262.518 335.786 260.713 335.697 259.164 335.614C258.947 335.525 258.732 335.434 258.518 335.342C258.518 335.342 261.863 335.413 266.46 335.518C270.683 335.643 275.7 335.777 281.224 335.883C284.621 335.975 287.684 336.068 289.794 336.15C291.247 336.206 293.278 336.23 295.64 336.23C295.892 336.23 296.147 336.23 296.407 336.229C296.411 336.391 296.416 336.475 296.425 336.477C296.433 336.477 296.446 336.393 296.461 336.229C301.668 336.218 308.258 336.105 313.809 335.988C316.26 335.954 318.529 335.915 320.575 335.87C322.204 335.833 323.694 335.799 325.032 335.768C324.768 335.898 324.502 336.024 324.234 336.147C323.117 336.194 321.897 336.242 320.587 336.288C314.727 336.5 307.036 336.659 298.445 336.659" fill="#0F191D"/>
<path d="M296.425 336.477C296.416 336.475 296.411 336.391 296.407 336.229C296.425 336.229 296.444 336.229 296.461 336.229C296.446 336.393 296.433 336.477 296.425 336.477Z" fill="#0F191D"/>
<path d="M345.71 346.56C345.872 346.577 345.951 347.672 345.883 349.006C345.816 350.34 345.628 351.421 345.465 351.42C345.302 351.42 345.224 350.325 345.292 348.975C345.36 347.626 345.548 346.545 345.71 346.56Z" fill="#17282F"/>
<path d="M352.422 347.935C352.581 347.919 352.83 349.147 352.79 350.678C352.755 352.213 352.446 353.425 352.288 353.403C352.122 353.379 352.164 352.158 352.198 350.665C352.237 349.17 352.256 347.95 352.422 347.935" fill="#17282F"/>
<path d="M293.238 215.927C293.312 215.878 293.783 217.047 295.437 218.008C296.24 218.505 297.301 218.922 298.452 219.522C298.738 219.675 299.029 219.842 299.317 220.035C299.606 220.232 299.921 220.467 300.125 220.863C300.345 221.262 300.26 221.805 300.037 222.147C299.82 222.506 299.557 222.767 299.285 223.039C299.006 223.306 298.698 223.558 298.317 223.728C297.943 223.9 297.454 223.939 297.057 223.755C296.265 223.346 296.01 222.661 295.647 222.147C294.973 221.047 294.468 219.997 294.099 219.098C293.367 217.29 293.162 216.097 293.229 216.081C293.318 216.054 293.666 217.198 294.481 218.929C294.892 219.792 295.425 220.798 296.109 221.856C296.46 222.366 296.799 223.008 297.289 223.224C297.775 223.45 298.384 223.101 298.874 222.612C299.385 222.123 299.859 221.562 299.605 221.117C299.362 220.649 298.709 220.312 298.19 220C297.096 219.394 296.025 218.927 295.211 218.361C293.523 217.249 293.15 215.92 293.238 215.927" fill="#17282F"/>
<path d="M241.809 267.602C241.599 267.602 241.402 267.549 241.261 267.396C241.05 267.164 241.07 266.788 241.232 266.519C241.394 266.25 241.663 266.067 241.933 265.908C243.637 264.895 245.607 264.452 247.508 263.89C248.685 263.542 249.872 263.125 250.93 262.516C248.997 264.005 247.135 265.178 245.551 266.043C244.67 266.526 243.879 266.926 243.21 267.249C242.945 267.335 242.678 267.418 242.41 267.498C242.22 267.555 242.009 267.602 241.809 267.602Z" fill="#BA2C42"/>
<path d="M243.21 267.249C243.879 266.926 244.669 266.526 245.55 266.043C247.134 265.178 248.996 264.005 250.929 262.516C251.458 262.212 251.953 261.86 252.398 261.446C252.411 261.449 252.423 261.453 252.436 261.455C249.982 264.256 246.752 266.088 243.21 267.249V267.249ZM252.537 261.339C252.531 261.336 252.526 261.332 252.52 261.329C252.582 261.269 252.644 261.206 252.703 261.143C252.648 261.208 252.593 261.274 252.537 261.339Z" fill="#0F191D"/>
<path d="M252.436 261.455C252.423 261.453 252.411 261.449 252.398 261.446C252.439 261.407 252.48 261.369 252.52 261.329C252.526 261.332 252.531 261.336 252.537 261.339C252.503 261.378 252.47 261.416 252.436 261.455" fill="#0F191D"/>
<path d="M292.454 238.947L271.296 228.917C269.779 227.947 269.726 225.242 270.547 223.405C271.033 222.315 272.313 221.819 273.448 222.189L296.516 230.343L292.454 238.947" fill="#17282F"/>
<path d="M300.196 237.224C298.593 241.724 299.007 245.981 301.122 246.734C303.235 247.487 306.247 244.451 307.851 239.952C309.453 235.452 309.038 231.194 306.925 230.441C304.812 229.688 301.798 232.725 300.196 237.224" fill="#33535F"/>
<path d="M292.453 238.947L300.282 246.269C297.729 238.947 302.114 232.41 306.017 230.34L296.419 230.309L292.453 238.947Z" fill="#17282F"/>
<path d="M304.806 231.118L299.782 244.431L478.781 449.024L577.427 303.8L304.806 231.118Z" fill="#F03D5F"/>
<path d="M477.709 447.798L475.285 445.027L445.585 411.08L353.14 305.418L327.799 276.454L301.895 246.846L299.782 244.431L304.806 231.117L577.427 303.8L577.343 303.924C576.258 303.551 575.063 303.371 573.774 303.371C558.96 303.371 531.397 327.289 507.427 362.155C487.143 391.656 475.099 420.756 475.087 437.39C475.084 441.82 475.934 445.364 477.709 447.798V447.798ZM474.958 331.25C474.958 333.118 476.473 334.632 478.341 334.632C480.208 334.632 481.723 333.118 481.723 331.25C481.723 329.383 480.208 327.867 478.341 327.867C476.473 327.867 474.958 329.383 474.958 331.25ZM427.112 329.559C427.112 330.493 427.868 331.25 428.803 331.25C429.736 331.25 430.494 330.493 430.494 329.559C430.494 328.624 429.736 327.867 428.803 327.867C427.868 327.867 427.112 328.624 427.112 329.559ZM484.262 307.32C484.262 308.255 485.02 309.012 485.953 309.012C486.888 309.012 487.645 308.255 487.645 307.32C487.645 306.386 486.888 305.629 485.953 305.629C485.02 305.629 484.262 306.386 484.262 307.32ZM407.893 288.332C407.893 289.266 408.65 290.023 409.585 290.023C410.519 290.023 411.276 289.266 411.276 288.332C411.276 287.399 410.519 286.641 409.585 286.641C408.65 286.641 407.893 287.399 407.893 288.332ZM340.635 251.377C340.635 252.312 341.393 253.069 342.327 253.069C343.262 253.069 344.019 252.312 344.019 251.377C344.019 250.444 343.262 249.686 342.327 249.686C341.393 249.686 340.635 250.444 340.635 251.377Z" fill="#FBCBD7"/>
<path d="M481.722 331.25C481.722 333.118 480.208 334.632 478.34 334.632C476.472 334.632 474.957 333.118 474.957 331.25C474.957 329.383 476.472 327.867 478.34 327.867C480.208 327.867 481.722 329.383 481.722 331.25Z" fill="#F03D5F"/>
<path d="M478.34 334.632C476.472 334.632 474.957 333.118 474.957 331.25C474.957 329.383 476.472 327.867 478.34 327.867C480.208 327.867 481.722 329.383 481.722 331.25C481.722 333.118 480.208 334.632 478.34 334.632Z" fill="#F89DB4"/>
<path d="M411.276 288.332C411.276 289.266 410.519 290.023 409.584 290.023C408.65 290.023 407.893 289.266 407.893 288.332C407.893 287.399 408.65 286.642 409.584 286.642C410.519 286.642 411.276 287.399 411.276 288.332Z" fill="#F03D5F"/>
<path d="M409.584 290.023C408.65 290.023 407.893 289.266 407.893 288.332C407.893 287.399 408.65 286.642 409.584 286.642C410.519 286.642 411.276 287.399 411.276 288.332C411.276 289.266 410.519 290.023 409.584 290.023Z" fill="#F89DB4"/>
<path d="M430.494 329.559C430.494 330.494 429.736 331.25 428.803 331.25C427.869 331.25 427.112 330.494 427.112 329.559C427.112 328.624 427.869 327.867 428.803 327.867C429.736 327.867 430.494 328.624 430.494 329.559Z" fill="#F03D5F"/>
<path d="M428.803 331.25C427.869 331.25 427.112 330.494 427.112 329.559C427.112 328.624 427.869 327.867 428.803 327.867C429.736 327.867 430.494 328.624 430.494 329.559C430.494 330.494 429.736 331.25 428.803 331.25Z" fill="#F89DB4"/>
<path d="M487.644 307.32C487.644 308.255 486.887 309.012 485.952 309.012C485.019 309.012 484.262 308.255 484.262 307.32C484.262 306.386 485.019 305.629 485.952 305.629C486.887 305.629 487.644 306.386 487.644 307.32Z" fill="#F03D5F"/>
<path d="M485.952 309.012C485.019 309.012 484.262 308.255 484.262 307.32C484.262 306.386 485.019 305.629 485.952 305.629C486.887 305.629 487.644 306.386 487.644 307.32C487.644 308.255 486.887 309.012 485.952 309.012Z" fill="#F89DB4"/>
<path d="M344.019 251.377C344.019 252.312 343.261 253.069 342.327 253.069C341.392 253.069 340.635 252.312 340.635 251.377C340.635 250.444 341.392 249.686 342.327 249.686C343.261 249.686 344.019 250.444 344.019 251.377Z" fill="#F03D5F"/>
<path d="M342.327 253.069C341.392 253.069 340.635 252.312 340.635 251.377C340.635 250.444 341.392 249.686 342.327 249.686C343.261 249.686 344.019 250.444 344.019 251.377C344.019 252.312 343.261 253.069 342.327 253.069Z" fill="#F89DB4"/>
<path d="M507.426 362.155C479.916 402.168 467.561 441.442 479.83 449.878C492.097 458.311 524.344 432.713 551.853 392.699C579.363 352.686 591.718 313.412 579.45 304.978C567.181 296.543 534.936 322.142 507.426 362.155Z" fill="#F03D5F"/>
<path d="M485.505 451.484C483.318 451.484 481.408 450.962 479.83 449.877C476.606 447.661 475.082 443.318 475.087 437.39C475.098 420.756 487.143 391.656 507.426 362.155C531.397 327.289 558.96 303.371 573.774 303.371C575.961 303.371 577.872 303.892 579.45 304.978C582.673 307.193 584.197 311.537 584.192 317.464C584.181 334.098 572.136 363.197 551.853 392.699C527.883 427.565 500.318 451.485 485.505 451.484" fill="#F9B2C4"/>
<path d="M299.782 244.431C299.782 244.431 305.882 241.604 304.805 231.117C304.805 231.117 298.51 234.932 299.782 244.431Z" fill="#FAFAF9"/>
<path d="M312.527 235.371L311.68 250.133L310.993 235.371L298.135 234.694L310.969 234.014L311.738 219.474L312.358 234.021L328.829 234.755L312.527 235.371" fill="white"/>
<path d="M310.54 234.458L307.21 229.102L311.361 233.88L310.54 234.458Z" fill="white"/>
<path d="M311.729 234.086L316.198 229.694L312.439 234.803L311.729 234.086Z" fill="white"/>
<path d="M312.525 235.149L315.856 240.504L311.704 235.727L312.525 235.149Z" fill="white"/>
<path d="M311.336 235.521L306.866 239.913L310.625 234.803L311.336 235.521Z" fill="white"/>
<path d="M293.203 226.204C292.096 225.341 289.216 225.294 289.216 225.294C289.216 225.294 290.164 224.648 288.1 222.978C287.391 222.407 283.09 223.048 283.09 223.048C283.09 223.048 283.09 221.414 281.544 221.03C280.944 220.881 279.982 220.749 278.876 221.073C277.44 221.493 275.943 221.952 275.875 223.447L275.329 226.452L275.272 226.439C275.008 226.425 272.807 226.195 272.69 226.35C272.574 226.505 272.158 228.735 272.016 229.82C271.91 230.631 272.847 233.667 273.719 235.301L273.46 239.277L268.13 246.048L280.416 252.03C280.416 252.03 282.725 248.15 284.081 246.269C285.501 244.3 288.659 242.954 289.206 241.45C289.925 239.469 291.309 235.411 291.838 232.287C292.222 230.02 294.161 229.454 294.161 229.454C294.161 229.454 294.311 227.066 293.203 226.204" fill="#F8A58D"/>
<path d="M275.602 224.956C275.776 224.95 275.792 226.967 275.382 229.363C274.974 231.76 274.787 233.686 274.666 233.695C274.491 233.704 274.446 231.684 274.857 229.285C275.265 226.887 275.48 224.963 275.602 224.956Z" fill="#F68260"/>
<path d="M279.338 228.553C279.268 228.519 279.407 228.114 279.44 227.43C279.508 226.758 279.362 225.756 279.747 224.644C279.94 224.1 280.317 223.604 280.786 223.354C281.25 223.103 281.696 223.047 282.048 223.003C282.757 222.942 283.171 222.89 283.198 222.954C283.227 223.027 282.801 223.218 282.117 223.373C281.78 223.461 281.383 223.557 281.036 223.776C280.688 223.99 280.414 224.362 280.246 224.828C279.91 225.765 279.975 226.767 279.813 227.478C279.677 228.201 279.397 228.589 279.338 228.553" fill="#F68260"/>
<path d="M289.686 224.941C289.679 225.014 289.221 225.077 288.492 225.117C288.127 225.137 287.696 225.152 287.216 225.161C286.725 225.149 286.25 225.208 285.76 225.39C285.278 225.571 284.883 225.866 284.64 226.217C284.398 226.563 284.31 226.975 284.236 227.325C284.113 228.038 283.96 228.498 283.883 228.473C283.818 228.451 283.834 228.02 283.864 227.275C283.893 226.907 283.94 226.427 284.229 225.951C284.512 225.484 285.005 225.104 285.57 224.893C286.129 224.679 286.735 224.63 287.21 224.671C287.699 224.689 288.14 224.713 288.508 224.742C289.245 224.797 289.692 224.869 289.686 224.941" fill="#F68260"/>
<path d="M293.327 226.568C293.323 226.647 292.816 226.657 292.024 226.712C291.252 226.77 290.112 226.908 289.331 227.744C288.547 228.581 288.38 229.706 288.285 230.479C288.198 231.27 288.157 231.775 288.078 231.774C288.01 231.774 287.918 231.28 287.909 230.457C287.913 229.664 288.01 228.389 288.945 227.378C289.402 226.886 290.008 226.594 290.554 226.463C291.106 226.329 291.606 226.319 292.017 226.335C292.842 226.378 293.329 226.501 293.327 226.568" fill="#F68260"/>
<path d="M341.848 350.441L338.617 357.96V367.806C338.617 367.806 340.416 373.358 341.559 373.253C342.702 373.148 344.901 372.311 344.588 370.949L347.102 372.311L349.825 372.102C349.825 372.102 356.959 365.189 357.32 363.722C357.68 362.256 357.786 359.896 357.786 359.896L355.648 354.623L341.848 350.441" fill="#F8A58D"/>
<path d="M343.979 362.242C344.06 362.259 344.01 362.798 343.798 363.619C343.584 364.438 343.315 365.533 343.421 366.774C343.59 369.296 345.017 370.947 344.87 371.041C344.82 371.089 344.38 370.761 343.901 370.03C343.419 369.312 342.926 368.163 342.832 366.818C342.715 365.474 343.086 364.266 343.399 363.494C343.713 362.707 343.9 362.228 343.979 362.242" fill="#F68260"/>
<path d="M347.13 368.301C347.051 368.32 346.849 367.863 346.587 367.114C346.456 366.738 346.311 366.289 346.157 365.79C345.998 365.292 345.873 364.708 345.603 364.253C345.341 363.78 344.923 363.619 344.529 363.789C344.129 363.952 343.875 364.301 343.742 364.639C343.487 365.333 343.447 365.859 343.347 365.843C343.289 365.835 343.164 365.349 343.346 364.508C343.445 364.099 343.732 363.564 344.31 363.29C344.591 363.152 344.98 363.102 345.328 363.239C345.68 363.372 345.942 363.66 346.112 363.951C346.457 364.553 346.545 365.128 346.68 365.635C346.806 366.15 346.911 366.615 346.991 367.006C347.151 367.79 347.21 368.282 347.13 368.301" fill="#F68260"/>
<path d="M353.195 363.23C353.346 363.196 353.726 364.484 353.608 366.111C353.5 367.741 352.945 368.961 352.8 368.906C352.637 368.853 352.918 367.613 353.019 366.07C353.132 364.527 353.027 363.259 353.195 363.23" fill="#F68260"/>
<path d="M346.643 361.413C346.803 361.4 347.045 362.7 347.071 364.324C347.099 365.948 346.899 367.256 346.739 367.247C346.573 367.239 346.508 365.935 346.479 364.334C346.454 362.733 346.478 361.427 346.643 361.413Z" fill="#F68260"/>
<path d="M356.132 365.488C355.996 365.425 356.114 364.634 356.138 363.61C356.186 362.588 356.174 361.767 356.326 361.73C356.492 361.688 356.781 362.554 356.728 363.633C356.705 364.714 356.297 365.566 356.132 365.488Z" fill="#F68260"/>
<path d="M301.365 199.63C300.776 199.399 300.069 199.756 299.769 200.313C299.469 200.872 299.515 201.562 299.734 202.157C299.826 202.407 299.976 202.672 300.232 202.743C300.407 202.792 300.641 202.819 300.792 202.718C300.944 202.616 301.147 202.494 301.259 202.351C301.562 201.962 301.747 201.438 301.87 200.961C301.997 200.462 301.847 199.733 301.365 199.63" fill="#F68260"/>
<path d="M300.696 202.947C300.733 203.014 300.695 203.143 300.504 203.229C300.318 203.315 299.996 203.319 299.682 203.118C299.352 202.908 299.143 202.513 299.052 202.129C298.965 201.752 298.919 201.366 298.983 200.897C299.075 199.947 299.923 199.142 300.654 199.188C301.366 199.206 301.596 199.673 301.476 199.77C301.372 199.894 301.08 199.851 300.784 200.014C300.507 200.156 300.233 200.505 300.154 201.069C300.112 201.344 300.115 201.682 300.126 201.946C300.138 202.204 300.182 202.376 300.231 202.488C300.357 202.755 300.607 202.816 300.696 202.947" fill="#17282F"/>
<path d="M331.987 212.437L338.121 201.626C335.407 197.221 333.839 192.036 333.839 186.483C333.839 170.513 346.785 157.567 362.755 157.567C378.725 157.567 391.671 170.513 391.671 186.483C391.671 202.453 378.725 215.399 362.755 215.399C356.087 215.399 349.95 213.136 345.059 209.344L345.068 209.357L331.987 212.437Z" fill="white"/>
<path d="M331.987 212.437C332.988 212.19 336.901 211.222 345.035 209.214L344.951 209.445L344.942 209.434L344.968 209.227H345.149C348.415 211.738 353.088 214.173 358.928 214.934C360.381 215.113 361.898 215.225 363.456 215.142C364.233 215.095 365.026 215.073 365.824 215.003C366.617 214.88 367.421 214.755 368.236 214.629C371.467 213.978 374.764 212.741 377.838 210.821C383.982 207.04 389.205 200.331 390.824 192.128C391.618 188.054 391.547 183.686 390.474 179.465C389.395 175.258 387.384 171.146 384.372 167.763C381.324 164.309 377.56 161.54 373.409 159.932C369.277 158.289 364.869 157.658 360.652 157.959C356.434 158.257 352.396 159.458 348.927 161.401C345.449 163.329 342.51 165.906 340.238 168.787C337.958 171.669 336.345 174.852 335.342 178.026C334.343 181.213 334.063 184.379 334.058 187.316C334.195 193.228 336.143 198.102 338.242 201.552L338.245 201.697C334.334 208.408 332.482 211.587 331.987 212.437C332.462 211.577 334.242 208.355 337.998 201.557L338.001 201.701C335.842 198.241 333.827 193.322 333.65 187.327C333.635 184.351 333.902 181.134 334.9 177.89C335.905 174.66 337.531 171.416 339.839 168.474C342.141 165.533 345.125 162.9 348.666 160.926C352.194 158.938 356.309 157.703 360.61 157.392C364.91 157.078 369.408 157.714 373.627 159.388C377.865 161.027 381.709 163.85 384.818 167.377C387.891 170.829 389.944 175.025 391.043 179.322C392.133 183.632 392.2 188.084 391.382 192.24C389.718 200.604 384.374 207.429 378.107 211.254C374.972 213.197 371.61 214.442 368.325 215.087C367.496 215.211 366.678 215.334 365.872 215.454C365.061 215.523 364.256 215.541 363.466 215.584C361.885 215.66 360.347 215.536 358.874 215.347C352.953 214.537 348.239 212.031 344.968 209.46L345.176 209.255L345.185 209.267L345.16 209.473L345.102 209.5C336.926 211.331 332.992 212.211 331.987 212.437" fill="#17282F"/>
<path d="M359.196 174.19L360.68 188.586C360.802 189.762 361.782 190.664 362.965 190.688C364.213 190.713 365.262 189.756 365.35 188.51L366.378 173.942C366.456 172.84 365.55 171.918 364.445 171.977L360.927 172.165C359.878 172.222 359.089 173.145 359.196 174.19" fill="#F03D5F"/>
<path d="M366.573 198.789C365.977 200.643 363.991 201.661 362.138 201.065C360.285 200.469 359.265 198.483 359.862 196.63C360.458 194.777 362.443 193.758 364.297 194.353C366.149 194.949 367.169 196.935 366.573 198.789Z" fill="#F03D5F"/>
<path d="M138.118 2.94449L127.726 100.285C127.726 100.285 126.487 112.863 120.189 109.226C113.013 105.079 106.939 86.0896 106.939 86.0896L105.5 82.699L98.6289 85.5798L115.378 121.411L124.185 149.826L128.653 219.659L114.984 542.031L154.237 541.932C154.237 541.932 151.911 236.11 152.921 221.956C153.933 207.802 211.537 166.139 211.537 166.139L211.385 157.634L151.715 197.478L169.109 2.92857L138.118 2.94449" fill="#17282F"/>
<path d="M106.835 85.8101L92.0506 51.3759L114.361 -0.000112825H110.559L86.7146 47.9887L78.5115 7.76447L74.4219 7.68612L80.602 51.3759L92.0506 73.7272L63.4208 69.2476L61.4678 73.7272L94.6601 79.4002L99.7645 87.4895" fill="#17282F"/>
<path d="M669.747 0.25556C669.747 0.25556 650.383 112.397 644.325 128.146C638.267 143.897 632.209 162.07 632.209 162.07L588.888 84.0889L581.715 87.962L626.151 175.397C626.151 175.397 601.921 204.474 600.709 229.916C599.497 255.358 600.709 297.763 600.709 297.763L579.151 539.684H614.036V298.974C614.036 298.974 606.767 237.186 610.402 226.283C614.036 215.378 634.632 180.244 634.632 180.244C634.632 180.244 656.717 152.378 659.608 124.513C662.498 96.6475 679.993 1.09926 679.993 1.09926L669.747 0.25556Z" fill="#17282F"/>
<path d="M721.417 493.627C708.156 481.554 688.505 476.949 671.261 481.873C665.75 458.87 640.011 442.834 616.934 448.023C593.855 453.212 577.462 478.725 582.328 501.873C567.367 495.082 548.921 496.661 535.332 505.895C521.741 515.128 513.429 525.736 514.231 542.147L737.814 542.464C741.103 524.833 734.679 505.701 721.417 493.627Z" fill="#33535F"/>
<path d="M587.716 530.225C587.716 530.225 587.93 528.705 588.939 526.135C589.969 523.596 591.908 519.993 595.471 516.537C598.989 513.111 604.276 509.876 610.819 508.972C617.305 508.132 624.841 509.703 631.002 514.162C633.319 515.816 635.338 517.802 636.926 519.949L636.403 520.083C637.377 513.561 640.033 507.779 643.345 503.307C644.948 501.022 646.809 499.136 648.57 497.43C650.409 495.803 652.197 494.38 653.961 493.291C657.46 491.068 660.57 489.814 662.753 489.158C663.833 488.784 664.713 488.651 665.288 488.495C665.869 488.359 666.175 488.3 666.179 488.317C666.184 488.336 665.885 488.432 665.314 488.599C664.749 488.789 663.881 488.956 662.818 489.357C660.668 490.071 657.607 491.371 654.172 493.615C652.44 494.715 650.685 496.142 648.882 497.766C647.156 499.469 645.331 501.344 643.763 503.612C640.52 508.044 637.929 513.752 636.982 520.163L636.878 520.863L636.457 520.297C634.901 518.203 632.926 516.262 630.658 514.642C624.625 510.275 617.241 508.719 610.89 509.512C604.485 510.366 599.265 513.5 595.76 516.839C592.211 520.206 590.237 523.732 589.151 526.223C588.627 527.483 588.259 528.484 588.068 529.179C587.968 529.495 587.886 529.752 587.82 529.962C587.76 530.138 587.726 530.227 587.716 530.225" fill="#17282F"/>
<path d="M636.424 520.37C636.277 520.133 636.129 519.9 635.975 519.671C636.134 519.871 636.29 520.073 636.442 520.276C636.435 520.307 636.43 520.34 636.424 520.37ZM636.51 519.403C634.991 517.466 633.122 515.675 631.002 514.162C625.895 510.467 619.846 508.755 614.23 508.755C613.071 508.755 611.929 508.828 610.818 508.972C609.033 509.218 607.341 509.639 605.754 510.189C601.409 511.453 597.449 513.774 594.515 517.262C597.332 509.876 602.695 503.242 609.931 500.057C612.767 498.81 615.892 498.17 619 498.17C623.825 498.17 628.608 499.713 632.19 502.922C637.011 493.728 647.578 488.325 658.008 488.325C659.914 488.325 661.816 488.506 663.676 488.877C663.389 488.953 663.08 489.045 662.753 489.158C660.569 489.814 657.459 491.068 653.961 493.291C652.196 494.38 650.409 495.803 648.569 497.43C646.808 499.135 644.947 501.022 643.345 503.307C640.148 507.623 637.562 513.159 636.51 519.403V519.403ZM642.77 505.039C643.094 504.55 643.424 504.074 643.763 503.611C645.331 501.344 647.156 499.469 648.882 497.766C650.685 496.142 652.439 494.715 654.172 493.615C654.535 493.377 654.894 493.15 655.248 492.934C650.268 496.088 646.022 500.217 642.77 505.039" fill="#20353D"/>
<path d="M636.442 520.277C636.29 520.073 636.134 519.871 635.975 519.671C631.632 513.165 624.339 509.699 616.471 509.115C615.686 509.058 614.899 509.028 614.111 509.028C611.28 509.028 608.444 509.406 605.754 510.189C607.341 509.639 609.033 509.219 610.818 508.973C611.929 508.828 613.071 508.756 614.23 508.756C619.846 508.756 625.895 510.467 631.002 514.162C633.122 515.676 634.991 517.466 636.51 519.403C637.562 513.159 640.148 507.624 643.345 503.307C644.947 501.022 646.808 499.136 648.569 497.43C650.409 495.803 652.196 494.38 653.961 493.291C657.459 491.068 660.569 489.814 662.753 489.158C663.08 489.045 663.389 488.954 663.676 488.878C663.732 488.889 663.787 488.9 663.843 488.911L661.1 489.834C659.057 490.723 657.101 491.76 655.248 492.934C654.894 493.15 654.535 493.377 654.172 493.615C652.439 494.715 650.685 496.142 648.882 497.766C647.156 499.469 645.331 501.344 643.763 503.612C643.424 504.074 643.094 504.55 642.77 505.039C639.707 509.582 637.525 514.74 636.442 520.277" fill="#0F191D"/>
<path d="M716.329 466.481C713.24 467.257 710.475 469.251 708.761 471.937C710.822 474.619 714.654 475.108 717.861 474.031C721.066 472.952 723.598 470.444 725.579 467.703C722.798 466.149 719.419 465.702 716.329 466.481" fill="#33535F"/>
<path d="M713.843 447.293C709.327 448.845 705.446 452.172 703.225 456.401C701.003 460.628 700.463 465.712 701.747 470.313C706.803 470.694 711.185 466.904 713.188 462.245C715.191 457.587 714.924 452.248 713.843 447.293" fill="#33535F"/>
<path d="M54.0998 479.957C57.3116 480.379 60.1699 482.419 62.0634 485.046C63.9574 487.676 64.9691 490.85 65.5041 494.045C66.5402 500.227 64.8689 507.245 62.5757 513.079C56.2732 510.123 52.915 502.778 51.4456 498.946C49.1227 492.888 48.6027 480.529 54.0998 479.957" fill="#F03D5F"/>
<path d="M71.8666 521.779C69.8675 518.762 69.9145 514.632 71.6231 511.441C73.3326 508.251 76.5267 505.997 80.0103 505.014C81.6209 504.56 83.4812 504.396 84.8504 505.358C86.1314 506.257 86.6539 507.974 86.4503 509.525C86.2463 511.077 85.4253 512.481 84.4667 513.718C81.1809 517.959 77.2222 521.459 71.8666 521.779" fill="#F03D5F"/>
<path d="M70.2742 541.358C70.2258 541.361 70.1522 540.898 70.0634 540.058C69.9748 539.216 69.8696 537.999 69.7858 536.489C69.6346 533.481 69.5095 529.24 70.5062 524.675C71.5072 520.104 73.7224 516.326 75.8754 514.154C76.9422 513.055 77.9353 512.303 78.6641 511.864C79.3915 511.42 79.8262 511.236 79.8457 511.271C79.9269 511.39 78.2263 512.257 76.24 514.491C74.241 516.688 72.1687 520.375 71.1914 524.829C70.2179 529.284 70.2569 533.471 70.2821 536.472C70.3305 539.483 70.3784 541.353 70.2742 541.358" fill="#17282F"/>
<path d="M55.5653 489.334C55.6119 489.319 55.8922 490.039 56.3606 491.355C56.8303 492.671 57.4775 494.586 58.2528 496.96C59.8035 501.706 61.8376 508.3 63.9055 515.636C65.9706 522.973 67.6771 529.661 68.8321 534.519C69.4104 536.948 69.8571 538.919 70.1428 540.286C70.4307 541.653 70.5677 542.414 70.5203 542.426C70.4733 542.437 70.2466 541.698 69.8771 540.35C69.485 538.883 68.9704 536.961 68.3508 534.641C67.0733 529.816 65.2925 523.156 63.2291 515.826C61.1635 508.499 59.2069 501.889 57.7782 497.106C57.0964 494.805 56.5317 492.895 56.1002 491.439C55.7121 490.098 55.5192 489.349 55.5653 489.334Z" fill="#17282F"/>
<path d="M63.4729 527.656C60.399 520.672 53.7532 515.378 46.2584 513.943C44.3506 513.577 41.9977 513.629 40.9366 515.257C39.8735 516.887 40.7831 519.072 41.9275 520.646C46.6905 527.195 55.6773 530.337 63.4835 528.183" fill="#F03D5F"/>
<path d="M48.3538 519.435C48.3618 519.387 48.8062 519.434 49.6091 519.562C50.0123 519.619 50.502 519.707 51.0564 519.869C51.6121 520.024 52.2594 520.164 52.9371 520.433C54.3206 520.893 55.9031 521.624 57.5718 522.595C59.2183 523.599 60.9358 524.863 62.549 526.403C64.1413 527.966 65.46 529.643 66.5175 531.257C67.5413 532.892 68.3241 534.451 68.8271 535.818C69.1185 536.487 69.279 537.13 69.4516 537.68C69.6313 538.229 69.736 538.715 69.806 539.117C69.9599 539.915 70.0215 540.357 69.9741 540.367C69.8402 540.398 69.4959 538.635 68.368 536.006C67.8162 534.688 67.0045 533.189 65.9758 531.61C64.9136 530.054 63.6135 528.432 62.0597 526.909C60.4869 525.404 58.8249 524.159 57.2352 523.147C55.6241 522.171 54.0992 521.409 52.7632 520.9C50.101 519.856 48.3272 519.569 48.3538 519.435" fill="#17282F"/>
<path d="M780.681 542.464C780.681 542.627 605.905 542.76 390.359 542.76C174.739 542.76 0 542.627 0 542.464C0 542.301 174.739 542.168 390.359 542.168C605.905 542.168 780.681 542.301 780.681 542.464Z" fill="#17282F"/>
</svg>
