<svg width="58" height="58" viewBox="0 0 58 58" fill="none" xmlns="http://www.w3.org/2000/svg">
<path fill-rule="evenodd" clip-rule="evenodd" d="M29 58C45.0163 58 58 45.0163 58 29C58 12.9837 45.0163 0 29 0C12.9837 0 0 12.9837 0 29C0 45.0163 12.9837 58 29 58ZM25.8249 13.3762C25.9229 12.1904 26.6255 11.1099 27.5661 10.699C29.8955 9.68084 32.6212 11.3594 32.6212 13.8118C32.6212 14.5204 32.6469 14.548 33.5191 14.7824C35.6783 15.3623 38.1012 17.369 39.2206 19.5047C40.2324 21.4347 40.3623 22.3606 40.4941 28.5825C40.6553 36.1891 40.9139 37.1094 43.6617 39.8524C45.3151 41.5031 45.4856 41.9821 44.6539 42.6391C44.1573 43.0315 44.042 43.0344 29.07 43.0344C18.0723 43.0344 13.8743 42.9751 13.5718 42.8151C12.5454 42.2726 12.6248 41.5504 13.8219 40.5366C15.0099 39.5307 16.3504 37.5715 16.8752 36.0739C17.1908 35.1734 17.3131 34.1782 17.4497 31.4018C17.9177 21.8836 17.9396 21.6268 18.3828 20.4366C19.6105 17.141 22.0081 14.9552 24.8682 14.5244L25.741 14.393L25.8249 13.3762ZM25.512 45.1853C25.384 44.7646 25.3992 44.7616 27.9103 44.7026C29.3002 44.67 31.1423 44.6244 32.0041 44.6016C33.7591 44.555 33.7995 44.5945 33.2768 45.8506C32.685 47.2731 31.7333 47.9327 30.0149 48.1116C27.6215 48.3606 26.1954 47.4338 25.512 45.1853Z" fill="#E9E9E9"/>
</svg>
