<svg width="212" height="212" viewBox="0 0 212 212" fill="none" xmlns="http://www.w3.org/2000/svg">
<path fill-rule="evenodd" clip-rule="evenodd" d="M106 212C164.542 212 212 164.542 212 106C212 47.4578 164.542 0 106 0C47.4578 0 0 47.4578 0 106C0 164.542 47.4578 212 106 212ZM94.3946 48.8923C94.7527 44.5581 97.3209 40.6087 100.759 39.1066C109.273 35.3851 119.236 41.5204 119.236 50.4843C119.236 53.0745 119.33 53.1756 122.518 54.0322C130.411 56.1519 139.266 63.4868 143.358 71.293C147.056 78.3477 147.531 81.7318 148.013 104.474C148.602 132.277 149.547 135.641 159.591 145.667C165.635 151.701 166.258 153.452 163.218 155.853C161.403 157.288 160.981 157.298 106.256 157.298C66.0574 157.298 50.7131 157.081 49.6074 156.497C45.8558 154.513 46.1459 151.874 50.5215 148.168C54.8638 144.492 59.7634 137.33 61.6818 131.856C62.8354 128.565 63.2824 124.927 63.7815 114.779C65.4924 79.9885 65.5723 79.0496 67.1923 74.6993C71.6796 62.6532 80.4432 54.6638 90.8977 53.0892L94.0878 52.6089L94.3946 48.8923ZM93.2507 165.16C92.7829 163.622 92.8384 163.611 102.017 163.396C107.097 163.277 113.831 163.11 116.98 163.026C123.395 162.856 123.543 163.001 121.632 167.592C119.469 172.791 115.991 175.202 109.71 175.856C100.961 176.766 95.7488 173.379 93.2507 165.16Z" fill="#EB6969"/>
</svg>
