<svg width="30" height="28" viewBox="0 0 30 28" fill="none" xmlns="http://www.w3.org/2000/svg">
<path fill-rule="evenodd" clip-rule="evenodd" d="M13.8576 0.459261C14.4947 -0.153088 15.5052 -0.153086 16.1424 0.459263L20.2934 4.44841V3.10222C20.2934 2.19919 21.0294 1.46714 21.9374 1.46714H23.731C24.639 1.46714 25.375 2.19919 25.375 3.10222V9.33199L29.4951 13.2914C30.5582 14.3131 29.831 16.1023 28.3526 16.1023H25.375V25.3839C25.375 26.8287 24.1973 28 22.7445 28H19.023V20.0872C19.023 18.6424 17.8453 17.4711 16.3925 17.4711H13.6075C12.1547 17.4711 10.977 18.6424 10.977 20.0872V28H6.832C5.37921 28 4.2015 26.8287 4.2015 25.3839V16.1023H1.64737C0.169044 16.1023 -0.558162 14.3131 0.504931 13.2914L13.8576 0.459261Z" fill="#DD7676"/>
</svg>
