<svg width="1217" height="1004" viewBox="0 0 1217 1004" fill="none" xmlns="http://www.w3.org/2000/svg">
<mask id="mask0" style="mask-type:alpha" maskUnits="userSpaceOnUse" x="0" y="0" width="1217" height="1004">
<rect width="1217" height="1004" fill="#C4C4C4"/>
</mask>
<g mask="url(#mask0)">
<mask id="mask1" style="mask-type:alpha" maskUnits="userSpaceOnUse" x="-15" y="-12" width="1232" height="1026">
<path d="M1187.06 452.655C1216.77 353.81 1231.64 254.959 1194.59 156.087C1174.3 101.929 1135.19 43.3881 1102.03 -10.7758L1097.95 -10.7758L-13.6085 -10.7758L-13.6085 1013.43L1107.83 1013.43L1105.27 996.337C1097.87 946.905 1083.08 848.043 1097.95 749.192C1112.82 650.34 1157.36 551.501 1187.06 452.655Z" fill="#536372"/>
</mask>
<g mask="url(#mask1)">
<rect x="-14" y="-12" width="1252" height="1025" fill="white"/>
<path d="M1094 -16.5006C1127.19 37.7051 1169.27 101.223 1189.58 155.423C1226.65 254.371 1211.77 353.298 1182.04 452.22C1152.31 551.142 1107.74 650.058 1092.85 748.986C1077.97 847.914 1092.78 946.853 1100.18 996.322L1103.5 1017.5" stroke="#536372" stroke-width="10"/>
</g>
</g>
</svg>
