<svg width="1232" height="1026" viewBox="0 0 1232 1026" fill="none" xmlns="http://www.w3.org/2000/svg">
<mask id="mask0" style="mask-type:alpha" maskUnits="userSpaceOnUse" x="0" y="0" width="1232" height="1026">
<path d="M1202.04 464.221C1231.77 365.299 1246.65 266.372 1209.58 167.424C1189.27 113.223 1150.13 54.6374 1116.94 0.431701L1112.85 0.431701L0.396513 0.431701L0.39654 1025.43L1122.74 1025.43L1120.18 1008.32C1112.77 958.853 1097.97 859.914 1112.85 760.987C1127.73 662.059 1172.31 563.143 1202.04 464.221Z" fill="#536372"/>
</mask>
<g mask="url(#mask0)">
<rect x="1.39648" y="0.427734" width="1252" height="1025" fill="white"/>
<path d="M1109 -4.5001C1142.19 49.7056 1184.27 113.223 1204.58 167.424C1241.65 266.372 1226.77 365.299 1197.04 464.221C1167.31 563.143 1122.74 662.059 1107.85 760.987C1092.97 859.914 1107.77 958.853 1115.18 1008.32L1118.5 1029.5" stroke="#536372" stroke-width="10"/>
</g>
</svg>
