<svg width="212" height="212" viewBox="0 0 212 212" fill="none" xmlns="http://www.w3.org/2000/svg">
<path fill-rule="evenodd" clip-rule="evenodd" d="M106 212C164.542 212 212 164.542 212 106C212 47.4578 164.542 0 106 0C47.4578 0 0 47.4578 0 106C0 164.542 47.4578 212 106 212ZM125.909 44.734C128.243 43.53 131.787 42.1895 133.784 41.7555C144.671 39.3902 155.161 42.6276 163.034 50.7825C172.558 60.6471 174.638 73.9346 168.586 86.2544C166.438 90.6264 165.128 92.1968 155.02 102.518L143.832 113.943L143.399 109.671C143.161 107.322 142.428 103.439 141.771 101.042L140.575 96.6837L148.1 89.0497C156.557 80.4684 157.855 78.1993 157.803 72.082C157.726 62.9891 150.027 55.2933 140.915 55.2012C134.007 55.1312 133.33 55.6177 115.127 73.7211C96.5496 92.1979 96.0176 92.9335 96.0549 100.082C96.0806 105.074 97.8068 108.853 101.701 112.443L104.303 114.84L99.2232 119.896L94.1432 124.952L91.4808 122.365C81.2346 112.408 78.9548 97.8585 85.6227 84.981C87.4958 81.3627 89.9396 78.6625 104.717 63.8775C119.688 48.9001 122.159 46.6677 125.909 44.734ZM108.717 98.3316L113.673 93.2742L118.629 88.2173L120.349 89.4826C122.64 91.1695 127.083 97.1107 128.488 100.368C132.45 109.551 132.073 118.918 127.374 128.021C125.508 131.635 123.069 134.334 108.282 149.146C91.9778 165.476 91.1395 166.219 86.3705 168.543C73.8381 174.651 60.6774 172.589 50.6955 162.953C40.5712 153.179 38.1899 139.398 44.4308 126.695C46.6102 122.258 47.8592 120.762 57.9963 110.44L69.1613 99.0707L69.5942 103.334C69.8322 105.679 70.5649 109.558 71.2224 111.955L72.4182 116.313L64.8934 123.947C56.43 132.534 55.1343 134.802 55.1962 140.914C55.2883 150.026 62.9847 157.725 72.0781 157.801C78.9921 157.859 79.67 157.372 97.8657 139.275C116.444 120.798 116.976 120.063 116.938 112.915C116.913 107.902 115.161 104.087 111.306 100.644L108.717 98.3316Z" fill="#44B38B"/>
</svg>
