<svg width="729" height="358" viewBox="0 0 729 358" fill="none" xmlns="http://www.w3.org/2000/svg">
<path d="M92.5555 81.2V66.4C92.5555 42 91.3555 26.6 88.9555 20.2C86.2888 12.8667 82.4888 8.33333 77.5555 6.59999C74.7555 5.53332 71.3555 4.99999 67.3555 4.99999C63.3555 4.99999 59.8888 5.53332 56.9555 6.59999C54.1555 7.66666 51.8221 9.53333 49.9555 12.2C48.0888 14.8667 46.5555 17.6667 45.3555 20.6C44.2888 23.5333 43.4221 27.6667 42.7555 33C41.9555 40.7333 41.5555 52.1333 41.5555 67.2V81.6C41.5555 97.8667 42.1555 109.467 43.3555 116.4C44.6888 123.2 46.2888 128.067 48.1555 131C52.2888 137.533 58.6888 140.8 67.3555 140.8C77.8888 140.8 84.6888 136.4 87.7555 127.6C90.9555 118.667 92.5555 103.2 92.5555 81.2ZM66.9555 145C44.6888 145 28.0221 139 16.9555 127C6.02214 114.867 0.555469 97.4 0.555469 74.6C0.555469 51.6667 6.42214 33.6667 18.1555 20.6C30.0221 7.39999 46.7555 0.799995 68.3555 0.799995C89.9555 0.799995 106.222 7.06666 117.155 19.6C128.222 32 133.755 49.6667 133.755 72.6C133.755 95.5333 128.155 113.333 116.955 126C105.889 138.667 89.2221 145 66.9555 145ZM262.012 143H216.412L214.212 128.4C212.078 133.733 208.878 137.867 204.612 140.8C200.478 143.6 194.278 145 186.012 145C165.345 145 155.012 133.867 155.012 111.6V51.4H143.812V47.8H192.212V116.4C192.212 124.4 192.745 129.667 193.812 132.2C195.012 134.733 197.278 136 200.612 136C204.078 136 207.145 133.933 209.812 129.8C212.478 125.667 213.812 119.933 213.812 112.6V51.4H204.612V47.8H251.012V139.4H262.012V143ZM335.905 53.4C330.972 53.4 326.639 56.6 322.905 63C319.172 69.4 317.305 77 317.305 85.8V139.4H331.505V143H269.105V139.4H280.105V51.4H269.105V47.8H317.305V67C319.039 60.2 322.372 55 327.305 51.4C332.239 47.6667 337.839 45.8 344.105 45.8C350.372 45.8 355.439 47.6 359.305 51.2C363.305 54.6667 365.305 59.6667 365.305 66.2C365.305 72.6 363.839 77.5333 360.905 81C357.972 84.4667 353.439 86.2 347.305 86.2C341.305 86.2 336.839 84.2 333.905 80.2C331.105 76.2 330.772 70.6667 332.905 63.6H340.105C343.439 56.8 342.039 53.4 335.905 53.4ZM373.385 145V109.2H375.785C379.252 120.8 383.918 128.933 389.785 133.6C395.652 138.267 402.985 140.6 411.785 140.6C425.385 140.6 432.185 136.267 432.185 127.6C432.185 123.867 430.518 121.067 427.185 119.2C421.985 116.267 415.318 114 407.185 112.4C398.118 110 390.518 106.8 384.385 102.8C377.052 98 373.385 90.4 373.385 80C373.385 69.6 376.585 61.3333 382.985 55.2C389.385 48.9333 397.918 45.8 408.585 45.8C415.118 45.8 421.852 47.3333 428.785 50.4C431.318 51.4667 433.252 52 434.585 52C435.918 52 437.052 51.5333 437.985 50.6C438.918 49.6667 440.052 47.9333 441.385 45.4H443.585V76H441.185C434.385 58.6667 423.852 50 409.585 50C403.318 50 398.652 51.1333 395.585 53.4C392.518 55.5333 390.985 58.2667 390.985 61.6C390.985 63.6 391.452 65.2 392.385 66.4C393.318 67.4667 394.052 68.2667 394.585 68.8C395.118 69.3333 395.985 69.9333 397.185 70.6C398.385 71.1333 399.385 71.6 400.185 72C400.985 72.2667 402.185 72.6667 403.785 73.2C405.518 73.7333 406.785 74.0667 407.585 74.2C416.652 76.4667 423.185 78.4667 427.185 80.2C431.185 81.8 434.985 83.8 438.585 86.2C445.918 91.2667 449.585 99.4667 449.585 110.8C449.585 122 446.252 130.533 439.585 136.4C432.918 142.133 423.785 145 412.185 145C403.918 145 395.918 143.067 388.185 139.2C386.585 138.133 385.318 137.6 384.385 137.6C381.452 137.6 378.585 140.067 375.785 145H373.385ZM622.641 2.99999L624.641 53.2H620.841C614.975 35.4667 609.775 23.4 605.241 17C600.708 10.4667 594.175 7.2 585.641 7.2H583.241V138.8H600.241V143H527.241V138.8H544.241V7.2H541.641C533.108 7.2 526.508 10.6 521.841 17.4C517.175 24.0667 512.041 36 506.441 53.2H502.641L504.641 2.99999H622.641ZM689.651 103.6V86.6C689.651 73.6667 688.917 64.2667 687.451 58.4C686.117 52.4 682.917 49.4 677.851 49.4C674.917 49.4 672.517 50.2667 670.651 52C668.917 53.6 667.651 56.3333 666.851 60.2C665.651 66.2 665.051 75.3333 665.051 87.6V103.2C665.051 117.733 665.451 126.467 666.251 129.4C667.184 132.333 668.117 134.733 669.051 136.6C670.517 139.8 673.384 141.4 677.651 141.4C682.851 141.4 686.251 138.4 687.851 132.4C689.051 128.133 689.651 118.533 689.651 103.6ZM677.251 145C660.584 145 647.984 140.733 639.451 132.2C630.917 123.667 626.651 111.467 626.651 95.6C626.651 79.6 631.184 67.3333 640.251 58.8C649.451 50.1333 662.317 45.8 678.851 45.8C695.384 45.8 707.717 49.8 715.851 57.8C723.984 65.6667 728.051 77.7333 728.051 94C728.051 128 711.117 145 677.251 145ZM143.949 353.8C150.616 353.8 156.483 352 161.549 348.4C166.749 344.8 169.349 339.4 169.349 332.2C169.349 324.867 166.549 319.267 160.949 315.4C155.483 311.533 147.616 308.2 137.349 305.4C127.216 302.467 119.816 299.933 115.149 297.8C110.616 295.667 106.283 292.867 102.149 289.4C93.8826 282.467 89.7492 271.733 89.7492 257.2C89.7492 245.333 93.9492 235.133 102.349 226.6C110.883 218.067 122.483 213.8 137.149 213.8C144.216 213.8 151.549 214.867 159.149 217C166.883 219 171.683 220 173.549 220C175.416 220 177.083 218.667 178.549 216H180.749L182.149 256.4H178.949C172.549 244.8 165.816 235.533 158.749 228.6C151.816 221.533 144.216 218 135.949 218C127.816 218 121.483 219.933 116.949 223.8C112.416 227.533 110.149 232.6 110.149 239C110.149 245.267 112.816 250.133 118.149 253.6C123.616 256.933 130.283 259.667 138.149 261.8C146.016 263.933 151.149 265.4 153.549 266.2C156.083 267 159.149 268.133 162.749 269.6C166.483 270.933 169.483 272.4 171.749 274C174.149 275.467 176.616 277.4 179.149 279.8C181.816 282.067 183.883 284.6 185.349 287.4C188.949 293.8 190.749 301.4 190.749 310.2C190.749 324.6 186.216 336.2 177.149 345C168.216 353.667 156.416 358 141.749 358C134.149 358 125.416 357 115.549 355C105.816 353 100.416 352 99.3492 352C97.4826 352 95.6826 354 93.9492 358H91.1492L89.1492 310.4H92.5492C98.4159 322 105.883 332.133 114.949 340.8C124.149 349.467 133.816 353.8 143.949 353.8ZM203.871 206H252.071V279.2C254.204 273.067 257.471 268.133 261.871 264.4C266.271 260.667 272.938 258.8 281.871 258.8C302.538 258.8 312.871 269.933 312.871 292.2V352.4H324.071V356H267.471V352.4H275.671V287.4C275.671 279.4 275.138 274.267 274.071 272C273.004 269.6 271.071 268.4 268.271 268.4C264.004 268.4 260.204 271.2 256.871 276.8C253.671 282.4 252.071 289.2 252.071 297.2V352.4H260.671V356H203.871V352.4H214.871V209.6H203.871V206ZM378.113 309H383.913V293.6C383.913 280.933 383.18 272.467 381.713 268.2C380.38 263.8 377.713 261.6 373.713 261.6C371.313 261.6 369.113 262.267 367.113 263.6C365.247 264.8 364.313 266.533 364.313 268.8C364.313 270.933 364.713 273.133 365.513 275.4H370.513C371.58 278.2 372.113 281.6 372.113 285.6C372.113 289.467 370.447 292.867 367.113 295.8C363.78 298.6 359.58 300 354.513 300C343.047 300 337.313 294.467 337.313 283.4C337.313 267 351.247 258.8 379.113 258.8C394.98 258.8 405.913 261.533 411.913 267C418.047 272.333 421.113 282.2 421.113 296.6V337.2C421.113 344.133 423.047 347.6 426.913 347.6C431.447 347.6 434.113 340.733 434.913 327L437.913 327.2C437.38 338.933 435.18 347 431.313 351.4C427.447 355.8 421.113 358 412.313 358C396.313 358 387.113 353.067 384.713 343.2C382.98 348.267 380.38 352 376.913 354.4C373.447 356.8 368.38 358 361.713 358C341.98 358 332.113 349.933 332.113 333.8C332.113 324.333 335.847 317.867 343.313 314.4C350.913 310.8 362.513 309 378.113 309ZM370.113 333.6C370.113 340.533 370.447 345 371.113 347C371.913 349 373.313 350 375.313 350C377.447 350 379.38 348.333 381.113 345C382.98 341.533 383.913 336.8 383.913 330.8V312.2H382.513C374.247 312.2 370.113 318.267 370.113 330.4V333.6ZM509.679 266.4C504.746 266.4 500.412 269.6 496.679 276C492.946 282.4 491.079 290 491.079 298.8V352.4H505.279V356H442.879V352.4H453.879V264.4H442.879V260.8H491.079V280C492.812 273.2 496.146 268 501.079 264.4C506.012 260.667 511.612 258.8 517.879 258.8C524.146 258.8 529.212 260.6 533.079 264.2C537.079 267.667 539.079 272.667 539.079 279.2C539.079 285.6 537.612 290.533 534.679 294C531.746 297.467 527.212 299.2 521.079 299.2C515.079 299.2 510.612 297.2 507.679 293.2C504.879 289.2 504.546 283.667 506.679 276.6H513.879C517.212 269.8 515.812 266.4 509.679 266.4ZM596.526 358C579.326 358 566.392 353.6 557.726 344.8C549.192 335.867 544.926 323.533 544.926 307.8C544.926 291.933 549.726 279.8 559.326 271.4C569.059 263 581.392 258.8 596.326 258.8C626.592 258.8 641.126 274 639.926 304.4H583.526V312.2C583.526 325.267 585.192 335.133 588.526 341.8C591.859 348.467 597.659 351.8 605.926 351.8C621.392 351.8 631.526 343.533 636.326 327L639.926 327.6C637.392 337.2 632.792 344.667 626.126 350C619.592 355.333 609.726 358 596.526 358ZM583.726 300.4H604.326V290.6C604.326 279.8 603.659 272.467 602.326 268.6C601.126 264.6 598.592 262.6 594.726 262.6C590.992 262.6 588.192 264.733 586.326 269C584.592 273.133 583.726 280.333 583.726 290.6V300.4Z" fill="#DD7676"/>
</svg>
